<?xml version="1.0" encoding="UTF-8" standalone="no"?>
<svg
   xmlns:dc="http://purl.org/dc/elements/1.1/"
   xmlns:cc="http://creativecommons.org/ns#"
   xmlns:rdf="http://www.w3.org/1999/02/22-rdf-syntax-ns#"
   xmlns:svg="http://www.w3.org/2000/svg"
   xmlns="http://www.w3.org/2000/svg"
   xmlns:sodipodi="http://sodipodi.sourceforge.net/DTD/sodipodi-0.dtd"
   xmlns:inkscape="http://www.inkscape.org/namespaces/inkscape"
   width="76.273216mm"
   height="138.74573mm"
   viewBox="0 0 76.273214 138.74573"
   version="1.1"
   id="svg8"
   inkscape:version="1.0.2-2 (e86c870879, 2021-01-15)"
   sodipodi:docname="Aguardiente.svg">
  <defs
     id="defs2">
    <inkscape:path-effect
       effect="spiro"
       id="path-effect1318"
       is_visible="true"
       lpeversion="1" />
    <inkscape:path-effect
       effect="spiro"
       id="path-effect1314"
       is_visible="true"
       lpeversion="1" />
    <inkscape:path-effect
       effect="spiro"
       id="path-effect1251"
       is_visible="true"
       lpeversion="1" />
    <inkscape:path-effect
       effect="spiro"
       id="path-effect1247"
       is_visible="true"
       lpeversion="1" />
    <inkscape:path-effect
       effect="spiro"
       id="path-effect1243"
       is_visible="true"
       lpeversion="1" />
    <inkscape:path-effect
       effect="spiro"
       id="path-effect1231"
       is_visible="true"
       lpeversion="1" />
    <inkscape:path-effect
       effect="spiro"
       id="path-effect1208"
       is_visible="true"
       lpeversion="1" />
    <inkscape:path-effect
       effect="spiro"
       id="path-effect1203"
       is_visible="true"
       lpeversion="1" />
    <inkscape:path-effect
       effect="spiro"
       id="path-effect1177"
       is_visible="true"
       lpeversion="1" />
    <inkscape:path-effect
       effect="spiro"
       id="path-effect1153"
       is_visible="true"
       lpeversion="1" />
    <inkscape:path-effect
       effect="spiro"
       id="path-effect1107"
       is_visible="true"
       lpeversion="1" />
    <inkscape:path-effect
       effect="spiro"
       id="path-effect1084"
       is_visible="true"
       lpeversion="1" />
    <inkscape:path-effect
       effect="spiro"
       id="path-effect1080"
       is_visible="true"
       lpeversion="1" />
    <inkscape:path-effect
       effect="spiro"
       id="path-effect1074"
       is_visible="true"
       lpeversion="1" />
    <inkscape:path-effect
       effect="spiro"
       id="path-effect1068"
       is_visible="true"
       lpeversion="1" />
    <inkscape:path-effect
       effect="spiro"
       id="path-effect1022"
       is_visible="true"
       lpeversion="1" />
    <inkscape:path-effect
       effect="spiro"
       id="path-effect999"
       is_visible="true"
       lpeversion="1" />
    <inkscape:path-effect
       effect="spiro"
       id="path-effect995"
       is_visible="true"
       lpeversion="1" />
    <inkscape:path-effect
       effect="spiro"
       id="path-effect991"
       is_visible="true"
       lpeversion="1" />
    <inkscape:path-effect
       effect="spiro"
       id="path-effect983"
       is_visible="true"
       lpeversion="1" />
    <inkscape:path-effect
       effect="spiro"
       id="path-effect979"
       is_visible="true"
       lpeversion="1" />
    <inkscape:path-effect
       effect="spiro"
       id="path-effect949"
       is_visible="true"
       lpeversion="1" />
    <inkscape:path-effect
       effect="spiro"
       id="path-effect938"
       is_visible="true"
       lpeversion="1" />
    <inkscape:path-effect
       effect="spiro"
       id="path-effect915"
       is_visible="true"
       lpeversion="1" />
    <inkscape:path-effect
       effect="spiro"
       id="path-effect906"
       is_visible="true"
       lpeversion="1" />
    <inkscape:path-effect
       effect="spiro"
       id="path-effect883"
       is_visible="true"
       lpeversion="1" />
    <inkscape:path-effect
       effect="powerclip"
       id="path-effect855"
       is_visible="true"
       lpeversion="1"
       inverse="true"
       flatten="false"
       hide_clip="false"
       message="Utilice la regla de relleno parimpar en el diálogo &lt;b&gt;Relleno y borde&lt;/b&gt; si el resultado no está aplanada después de convertir el recorte en trayectos." />
    <clipPath
       clipPathUnits="userSpaceOnUse"
       id="clipPath851">
      <rect
         style="display:block;fill:none;stroke:#ed5206;stroke-width:1;stroke-linecap:square;stroke-linejoin:round;stroke-miterlimit:4;stroke-dasharray:none;paint-order:stroke fill markers"
         id="rect853"
         width="29.043907"
         height="7.8608513"
         x="57.671333"
         y="170.41444" />
    </clipPath>
    <inkscape:path-effect
       effect="spiro"
       id="path-effect2022"
       is_visible="true"
       lpeversion="1" />
    <inkscape:path-effect
       effect="spiro"
       id="path-effect2172"
       is_visible="true"
       lpeversion="1" />
  </defs>
  <sodipodi:namedview
     id="base"
     pagecolor="#ffffff"
     bordercolor="#666666"
     borderopacity="1.0"
     inkscape:pageopacity="0.0"
     inkscape:pageshadow="2"
     inkscape:zoom="0.45878928"
     inkscape:cx="-48.462519"
     inkscape:cy="420.02641"
     inkscape:document-units="mm"
     inkscape:current-layer="layer1"
     inkscape:document-rotation="0"
     showgrid="false"
     inkscape:window-width="1366"
     inkscape:window-height="705"
     inkscape:window-x="-8"
     inkscape:window-y="-8"
     inkscape:window-maximized="1"
     fit-margin-top="0"
     fit-margin-left="0"
     fit-margin-right="0"
     fit-margin-bottom="0" />
  <metadata
     id="metadata5">
    <rdf:RDF>
      <cc:Work
         rdf:about="">
        <dc:format>image/svg+xml</dc:format>
        <dc:type
           rdf:resource="http://purl.org/dc/dcmitype/StillImage" />
        <dc:title></dc:title>
      </cc:Work>
    </rdf:RDF>
  </metadata>
  <g
     inkscape:label="Capa 1"
     inkscape:groupmode="layer"
     id="layer1"
     transform="translate(-29.109087,-43.634646)">
    <g
       id="g1953"
       transform="translate(-323.92514,-189.23747)">
      <path
         style="fill:#cdeae0;fill-opacity:1;stroke:none;stroke-width:0.26821px;stroke-linecap:butt;stroke-linejoin:miter;stroke-opacity:1"
         d="m 355.1151,280.67308 c 0.0674,-1.22701 0.44291,-2.4359 1.08248,-3.48521 0.59803,-0.98116 1.41584,-1.81352 2.30769,-2.53804 0.90427,-0.73461 1.89893,-1.37479 2.66455,-2.25297 0.80287,-0.9209 1.31341,-2.05894 1.72482,-3.20933 0.50354,-1.40801 0.87552,-2.86002 1.18953,-4.32202 0.22954,-1.06868 0.42861,-2.14442 0.69911,-3.20347 0.13561,-0.53092 0.29107,-1.0622 0.55351,-1.54323 0.26243,-0.48104 0.64142,-0.91305 1.13295,-1.15527 0.50584,-0.24927 1.093,-0.28138 1.65437,-0.22771 0.56137,0.0537 1.11223,0.18771 1.67228,0.25371 1.22093,0.14387 2.45476,-0.038 3.68413,-0.0358 1.339,0.002 2.68039,0.22343 4.01217,0.0845 0.1341,-0.014 0.2683,-0.0316 0.40311,-0.0299 0.13482,0.002 0.27169,0.0238 0.39175,0.0852 0.13122,0.0671 0.23677,0.17896 0.3084,0.30774 0.0716,0.12879 0.11064,0.27395 0.12736,0.42036 0.0334,0.29283 -0.0201,0.58755 -0.0446,0.88125 -0.10151,1.21227 0.28846,2.40495 0.65155,3.56602 0.41651,1.33187 0.804,2.67275 1.22804,4.00224 0.5216,1.63538 1.13257,3.30953 2.33413,4.53542 0.61685,0.62934 1.36369,1.11248 2.06076,1.65161 1.38993,1.07501 2.60687,2.40485 3.39267,3.9765 0.86037,1.72079 1.1757,3.66667 1.25748,5.58882 0.098,2.30392 -0.12324,4.61048 -0.0823,6.91612 0.0269,1.51424 0.16678,3.02387 0.26075,4.53543 0.31601,5.08305 0.11259,10.1818 0.0547,15.27434 -0.0713,6.27132 0.0784,12.5429 0.0952,18.8146 0.0174,6.4591 -0.10615,12.91791 -0.2915,19.37438 -0.0893,3.11204 -0.19297,6.22936 0.005,9.33638 0.0677,1.06193 0.17028,2.13203 0.0252,3.18618 -0.10694,0.77706 -0.34769,1.53729 -0.37009,2.32135 -0.0171,0.59818 0.0936,1.19163 0.19345,1.78167 0.0623,0.36797 0.11958,0.75203 0.0104,1.1089 -0.10424,0.34073 -0.35129,0.62087 -0.62748,0.846 -0.52171,0.42525 -1.1585,0.68675 -1.80511,0.87361 -0.84881,0.2453 -1.72684,0.37128 -2.6021,0.49197 -2.65658,0.36632 -5.32011,0.69059 -7.99434,0.89084 -2.87365,0.21519 -5.78286,0.28517 -8.61816,-0.22989 -2.08525,-0.3788 -4.13175,-1.07329 -6.25098,-1.0989 -1.03186,-0.0125 -2.06442,0.13479 -3.09356,0.059 -0.51458,-0.0379 -1.02835,-0.13262 -1.50701,-0.32525 -0.47866,-0.19263 -0.9221,-0.48645 -1.25193,-0.88323 -0.15758,-0.18957 -0.2886,-0.40183 -0.38136,-0.63022 -0.23121,-0.56929 -0.21535,-1.2033 -0.23552,-1.81742 -0.0762,-2.31927 -0.71317,-4.58606 -0.89444,-6.89949 -0.29006,-3.70199 0.5921,-7.39552 0.64234,-11.10852 0.0382,-2.82465 -0.40515,-5.63162 -0.58287,-8.45093 -0.36726,-5.82598 0.40089,-11.65638 0.64359,-17.48887 0.2811,-6.75522 -0.14316,-13.5168 -0.42198,-20.27212 -0.1869,-4.52827 -0.3084,-9.06616 -0.0418,-13.59044 0.12547,-2.12935 0.33687,-4.25364 0.63349,-6.36596 z"
         id="path1066"
         inkscape:path-effect="#path-effect1068"
         inkscape:original-d="m 355.1151,280.67308 c 0.2109,-2.12226 0.72192,-2.3232 1.08248,-3.48521 0.36055,-1.162 1.53873,-1.69175 2.30769,-2.53804 0.76896,-0.84628 1.77663,-1.50171 2.66455,-2.25297 0.88791,-0.75125 1.15015,-2.13928 1.72482,-3.20933 0.57467,-1.07004 0.79329,-2.88108 1.18953,-4.32202 0.39624,-1.44094 0.46634,-2.13538 0.69911,-3.20347 0.23277,-1.0681 1.12457,-1.79874 1.68646,-2.6985 0.56188,-0.89977 2.21803,0.0176 3.32665,0.026 1.10861,0.008 2.45635,-0.0236 3.68413,-0.0358 1.22777,-0.0122 2.67505,0.0566 4.01217,0.0845 1.33712,0.0279 0.53017,0.0371 0.79486,0.0553 0.26469,0.0182 0.26102,1.07317 0.39112,1.60935 0.13011,0.53618 0.43464,2.37762 0.65155,3.56602 0.21691,1.18841 0.81896,2.66843 1.22804,4.00224 0.40908,1.3338 1.55635,3.02388 2.33413,4.53542 0.77777,1.51154 1.37411,1.10135 2.06076,1.65161 0.68665,0.55027 2.26204,2.65127 3.39267,3.9765 1.13062,1.32523 0.83859,3.72615 1.25748,5.58882 0.41889,1.86267 -0.0546,4.61101 -0.0823,6.91612 -0.0277,2.3051 0.1741,3.02388 0.26075,4.53543 0.0867,1.51154 0.0367,10.18316 0.0547,15.27434 0.0179,5.0912 0.0637,12.54335 0.0952,18.8146 0.0315,6.27127 -0.19406,12.91653 -0.2915,19.37438 -0.0974,6.45787 0.004,6.22452 0.005,9.33638 0.002,3.11185 0.0171,2.12438 0.0252,3.18618 0.008,1.06178 -0.24646,1.54784 -0.37009,2.32135 -0.12364,0.77352 0.12924,1.18805 0.19345,1.78167 0.0642,0.59361 0.007,0.73953 0.0104,1.1089 0.003,0.36936 -0.41805,0.56428 -0.62748,0.846 -0.20943,0.28175 -1.20314,0.58267 -1.80511,0.87361 -0.60198,0.29093 -1.73447,0.32825 -2.6021,0.49197 -0.86764,0.16372 -5.32929,0.59417 -7.99434,0.89084 -2.66505,0.29668 -5.74517,-0.15299 -8.61816,-0.22989 -2.87298,-0.0769 -4.16705,-0.73234 -6.25098,-1.0989 -2.08393,-0.36657 -3.9014,-0.76605 -5.8525,-1.14948 -1.9511,-0.38342 -0.25397,-0.41987 -0.38136,-0.63022 -0.12739,-0.21034 -0.15674,-1.21134 -0.23552,-1.81742 -0.0788,-0.60608 -0.59603,-4.5994 -0.89444,-6.89949 -0.29842,-2.3001 0.4285,-7.40541 0.64234,-11.10852 0.21385,-3.70311 -0.38831,-5.63368 -0.58287,-8.45093 -0.19455,-2.81724 0.42933,-11.65898 0.64359,-17.48887 0.21426,-5.82989 -0.28105,-13.51448 -0.42198,-20.27212 -0.14093,-6.75765 -0.0276,-9.06003 -0.0418,-13.59044 -0.0142,-4.53042 0.42259,-4.2437 0.63349,-6.36596 z" />
      <path
         style="fill:#007c3b;fill-opacity:1;stroke:none;stroke-width:0.26821px;stroke-linecap:butt;stroke-linejoin:miter;stroke-opacity:1"
         d="m 367.9372,234.53128 c -0.87368,-0.0191 -1.7445,0.42213 -2.24581,1.13793 -0.29474,0.42085 -0.46274,0.92062 -0.54563,1.42768 -0.0829,0.50706 -0.084,1.02386 -0.0684,1.53741 0.0491,1.61721 0.26139,3.22668 0.2944,4.8443 0.0345,1.69328 -0.12752,3.38476 -0.13458,5.07838 -0.005,1.31361 0.0817,2.63688 -0.12617,3.93395 -0.13409,0.83673 -0.39077,1.66278 -0.3701,2.50993 0.0176,0.72305 0.2445,1.44193 0.65795,2.03536 0.41346,0.59344 1.01363,1.05756 1.6972,1.29387 1.01228,0.34995 2.11773,0.19399 3.18787,0.14956 1.54689,-0.0642 3.09557,0.1143 4.64301,0.065 0.73262,-0.0233 1.47242,-0.0997 2.16163,-0.34925 0.68922,-0.2495 1.32926,-0.68618 1.71596,-1.30886 0.37964,-0.6113 0.49053,-1.35732 0.45845,-2.0762 -0.0321,-0.71888 -0.19728,-1.42404 -0.33228,-2.13086 -0.52845,-2.76678 -0.5978,-5.62377 -0.16822,-8.40761 0.29796,-1.93088 0.83553,-3.86367 0.63084,-5.80665 -0.071,-0.67409 -0.23393,-1.3447 -0.54556,-1.94663 -0.31162,-0.60194 -0.77861,-1.1334 -1.37221,-1.46063 -0.52632,-0.29014 -1.13173,-0.41105 -1.73187,-0.44284 -0.60015,-0.0318 -1.20104,0.0215 -1.80085,0.0592 -2.001,0.12576 -4.01289,0.0778 -6.00564,-0.14305 z"
         id="path977"
         inkscape:path-effect="#path-effect979"
         inkscape:original-d="m 367.9372,234.53128 c -2.00215,-0.048 -1.49694,0.75889 -2.24581,1.13793 -0.74887,0.37903 -0.40908,1.97699 -0.61402,2.96509 -0.20494,0.9881 0.19653,3.2298 0.2944,4.8443 0.0979,1.61449 -0.0894,3.38585 -0.13458,5.07838 -0.0451,1.69252 -0.0838,2.6229 -0.12617,3.93395 -0.0423,1.31105 -0.24647,1.67356 -0.3701,2.50993 -0.12363,0.83638 1.57037,2.21976 2.35515,3.32923 0.78479,1.10948 2.12551,0.1 3.18787,0.14956 1.06235,0.0496 3.09561,0.0436 4.64301,0.065 1.54741,0.0214 2.58533,-1.10514 3.87759,-1.65811 1.29227,-0.55297 0.0844,-2.80444 0.12617,-4.20706 0.0418,-1.40262 -0.11188,-5.6048 -0.16822,-8.40761 -0.0564,-2.8028 0.42083,-3.87083 0.63084,-5.80665 0.21001,-1.93581 -1.27824,-2.27124 -1.91777,-3.40726 -0.63952,-1.13602 -2.35488,-0.25549 -3.53272,-0.38364 -1.17785,-0.12815 -4.00349,-0.0951 -6.00564,-0.14305 z" />
      <path
         style="fill:#007c3b;fill-opacity:1;stroke:none;stroke-width:0.26821px;stroke-linecap:butt;stroke-linejoin:miter;stroke-opacity:1"
         d="m 355.92421,310.09358 c 0.92769,-1.61716 2.1546,-3.06203 3.60002,-4.23956 1.10908,-0.90352 2.35628,-1.65475 3.71777,-2.09378 1.51204,-0.48757 3.11761,-0.57884 4.69349,-0.78028 1.57144,-0.20087 3.12988,-0.51452 4.7103,-0.62424 1.1947,-0.0829 2.39899,-0.0484 3.5832,0.13005 1.73208,0.26102 3.4028,0.82582 5.04675,1.43053 1.25615,0.46206 2.50948,0.95208 3.66336,1.63029 1.15388,0.67822 2.2121,1.55626 2.94789,2.67431 0.63947,0.9717 1.01764,2.09685 1.23502,3.23959 0.21738,1.14274 0.2797,2.30872 0.32947,3.47089 0.19515,4.55732 0.20488,9.12217 0.0505,13.68106 -0.11838,3.49591 -0.33257,7.00886 0.0841,10.48187 0.0579,0.48256 0.12803,0.96533 0.12979,1.45135 0.002,0.48602 -0.0678,0.98024 -0.27664,1.41909 -0.12276,0.25793 -0.29314,0.49409 -0.50555,0.68509 -0.30106,0.27072 -0.67942,0.44496 -1.07058,0.54945 -0.9615,0.25684 -1.97822,0.10697 -2.96491,-0.023 -1.44428,-0.19025 -2.89699,-0.33457 -4.35369,-0.34714 -3.01291,-0.026 -6.00301,0.51106 -9.01384,0.62588 -2.07511,0.0791 -4.15309,-0.0426 -6.22125,-0.22989 -2.14099,-0.19385 -4.31879,-0.45615 -6.42347,-0.0183 -0.76773,0.15972 -1.52825,0.41272 -2.31227,0.39736 -0.39201,-0.008 -0.78727,-0.0852 -1.13504,-0.26626 -0.34777,-0.18108 -0.64549,-0.47106 -0.79753,-0.83247 -0.12976,-0.30845 -0.14937,-0.65332 -0.1199,-0.98665 0.0295,-0.33333 0.10582,-0.66047 0.1615,-0.99043 0.14807,-0.87745 0.14968,-1.77239 0.13977,-2.66219 -0.0348,-3.12697 -0.20702,-6.2507 -0.29292,-9.37668 -0.0939,-3.41797 -0.0847,-6.83915 -0.25234,-10.2543 -0.0899,-1.8319 -0.22639,-3.70501 0.27757,-5.46852 0.27683,-0.96873 0.74492,-1.88241 1.36942,-2.67303 z"
         id="path981"
         inkscape:path-effect="#path-effect983"
         inkscape:original-d="m 355.92421,310.09358 c 0.45621,-0.89127 2.40028,-2.82611 3.60002,-4.23956 1.19974,-1.41346 2.47879,-1.39559 3.71777,-2.09378 1.23899,-0.69819 3.12926,-0.51992 4.69349,-0.78028 1.56422,-0.26037 3.14047,-0.4159 4.7103,-0.62424 1.56983,-0.20834 2.38907,0.087 3.5832,0.13005 1.19413,0.0431 3.36477,0.95396 5.04675,1.43053 1.68198,0.47658 4.40777,2.86999 6.61125,4.3046 2.20348,1.43459 1.04326,4.47392 1.56449,6.71048 0.52123,2.23656 0.0339,9.12097 0.0505,13.68106 0.0165,4.56009 0.0563,6.98819 0.0841,10.48187 0.0278,3.4937 -0.0976,1.9139 -0.14685,2.87044 -0.0492,0.95655 -0.33677,0.45699 -0.50555,0.68509 -0.16879,0.22809 -0.71346,0.36656 -1.07058,0.54945 -0.35713,0.18288 -1.97634,-0.015 -2.96491,-0.023 -0.98857,-0.008 -2.90219,-0.23117 -4.35369,-0.34714 -1.45149,-0.11598 -6.00896,0.41753 -9.01384,0.62588 -3.00488,0.20837 -4.14723,-0.15299 -6.22125,-0.22989 -2.07402,-0.0769 -4.28204,-0.0119 -6.42347,-0.0183 -2.14142,-0.006 -2.82962,-0.46731 -4.24484,-0.70137 -1.41521,-0.23406 0.028,-1.31779 0.0416,-1.97708 0.0136,-0.65932 0.0935,-1.77454 0.13977,-2.66219 0.0463,-0.88767 -0.19501,-6.25086 -0.29292,-9.37668 -0.0979,-3.12582 -0.16796,-6.83592 -0.25234,-10.2543 -0.0844,-3.41837 0.18531,-3.64541 0.27757,-5.46852 0.0923,-1.82311 0.91321,-1.78175 1.36942,-2.67303 z" />
      <path
         style="fill:#feb811;fill-opacity:1;stroke:none;stroke-width:0.30126px;stroke-linecap:butt;stroke-linejoin:miter;stroke-opacity:1"
         d="m 366.51779,312.24812 c -0.15612,-0.0243 -0.31562,-0.0266 -0.47239,-0.007 -0.54546,0.0684 -1.02902,0.39961 -1.39901,0.80619 -0.37,0.40657 -0.6442,0.8889 -0.93457,1.35568 -0.46172,0.74223 -0.9715,1.45498 -1.40032,2.21669 -0.42881,0.76172 -0.77839,1.58289 -0.88603,2.45036 -0.1502,1.21045 0.17641,2.42242 0.46294,3.60802 0.39907,1.65127 0.74458,3.36593 1.69114,4.77659 0.74596,1.1117 1.83278,1.96987 3.03272,2.56357 1.23009,0.60861 2.58288,0.95119 3.94915,1.08095 1.50381,0.14282 3.05297,0.0255 4.45932,-0.52588 1.39162,-0.54561 2.58695,-1.4892 3.72241,-2.46132 0.71749,-0.61427 1.42362,-1.24873 2.02299,-1.97871 0.59938,-0.72998 1.0918,-1.56278 1.33095,-2.47652 0.23182,-0.88572 0.21917,-1.82097 0.0849,-2.72663 -0.13425,-0.90566 -0.38714,-1.78883 -0.6329,-2.67078 -0.2017,-0.72383 -0.39974,-1.45095 -0.68404,-2.1465 -0.2843,-0.69554 -0.65901,-1.36284 -1.17716,-1.90703 -0.5221,-0.54834 -1.17696,-0.95773 -1.86885,-1.26524 -0.69189,-0.3075 -1.42287,-0.51713 -2.15588,-0.70675 -1.73283,-0.44826 -3.51113,-0.79191 -5.30017,-0.73767 -1.31123,0.0398 -2.61569,0.29496 -3.84523,0.75228 z"
         id="path989"
         inkscape:path-effect="#path-effect991"
         inkscape:original-d="m 366.51779,312.24812 c -1.28204,0.25047 -0.31462,-0.004 -0.47239,-0.007 -0.15776,-0.002 -1.55542,1.44155 -2.33358,2.16187 -0.77817,0.72034 -1.52394,3.11167 -2.28635,4.66705 -0.76242,1.55539 0.30892,2.40563 0.46294,3.60802 0.15401,1.20236 1.12773,3.18469 1.69114,4.77659 0.56341,1.59189 2.02211,1.70935 3.03272,2.56357 1.0106,0.85423 2.63307,0.72093 3.94915,1.08095 1.31608,0.36001 2.97318,-0.35027 4.45932,-0.52588 1.48614,-0.17558 2.48191,-1.64058 3.72241,-2.46132 1.2405,-0.82074 2.23626,-2.96986 3.35394,-4.45523 1.11768,-1.48539 -0.36501,-3.59797 -0.54797,-5.39741 -0.18296,-1.79943 -1.2405,-2.70206 -1.8612,-4.05353 -0.6207,-1.35148 -2.68285,-1.31436 -4.02473,-1.97199 -1.34188,-0.65763 -3.53315,-0.49148 -5.30017,-0.73767 -1.76703,-0.24618 -2.56319,0.50183 -3.84523,0.75228 z" />
      <path
         style="fill:none;stroke:#000000;stroke-width:3;stroke-linecap:round;stroke-linejoin:round;stroke-miterlimit:4;stroke-dasharray:none;stroke-opacity:1;paint-order:stroke fill markers"
         id="path864"
         transform="scale(-1,1)"
         sodipodi:type="arc"
         sodipodi:cx="-372.2644"
         sodipodi:cy="365.9545"
         sodipodi:rx="18.246767"
         sodipodi:ry="4.1633039"
         sodipodi:start="0.2443461"
         sodipodi:end="2.8274334"
         sodipodi:arc-type="arc"
         sodipodi:open="true"
         d="m -354.55964,366.96169 a 18.246767,4.1633039 0 0 1 -17.06796,3.15358 18.246767,4.1633039 0 0 1 -17.99051,-2.87424" />
      <path
         style="fill:none;stroke:#000000;stroke-width:3;stroke-linecap:round;stroke-linejoin:miter;stroke-miterlimit:4;stroke-dasharray:none;stroke-opacity:1"
         d="M 354.55965,366.96171 V 284.4928"
         id="path881"
         inkscape:path-effect="#path-effect883"
         inkscape:original-d="m 354.55965,366.96171 c 2.7e-4,-27.48937 2.7e-4,-54.97901 0,-82.46891" />
      <path
         style="fill:none;stroke:#000000;stroke-width:3;stroke-linecap:round;stroke-linejoin:miter;stroke-miterlimit:4;stroke-dasharray:none;stroke-opacity:1"
         d="M 389.61811,367.24105 V 284.77213"
         id="path881-8"
         inkscape:path-effect="#path-effect906"
         inkscape:original-d="m 389.61811,367.24105 c 2.8e-4,-27.48937 2.8e-4,-54.97901 0,-82.46892" />
      <path
         style="fill:none;stroke:#000000;stroke-width:3;stroke-linecap:round;stroke-linejoin:miter;stroke-miterlimit:4;stroke-dasharray:none;stroke-opacity:1"
         d="m 354.55965,284.4928 c -0.0363,-1.59367 0.19381,-3.19309 0.67789,-4.71189 0.76974,-2.41506 2.2294,-4.66027 4.33063,-6.07795 0.47751,-0.32217 0.98539,-0.60087 1.43747,-0.95785 1.06681,-0.84238 1.75995,-2.06983 2.2889,-3.32199 0.73017,-1.72851 1.19823,-3.56386 1.43332,-5.42548 0.21856,-1.7307 0.23682,-3.48662 0.0543,-5.22149"
         id="path913"
         inkscape:path-effect="#path-effect915"
         inkscape:original-d="m 354.55965,284.4928 c 0.22621,-1.57035 0.45218,-3.14098 0.67789,-4.71189 0.22571,-1.57091 2.88734,-4.05168 4.33063,-6.07795 1.44329,-2.02627 0.95857,-0.63828 1.43747,-0.95785 0.4789,-0.31957 1.52618,-2.21438 2.2889,-3.32199 0.76271,-1.10761 0.9558,-3.6167 1.43332,-5.42548 0.47752,-1.80877 -0.23316,-3.88379 0.0543,-5.22149"
         sodipodi:nodetypes="csssssc" />
      <path
         style="fill:none;stroke:#000000;stroke-width:3;stroke-linecap:round;stroke-linejoin:miter;stroke-miterlimit:4;stroke-dasharray:none;stroke-opacity:1"
         d="m 389.61811,284.77213 c 0.0364,-1.59367 -0.19371,-3.19311 -0.67789,-4.71188 -0.76988,-2.41497 -2.22976,-4.65982 -4.33063,-6.07796 -0.47743,-0.32228 -0.98519,-0.60112 -1.43747,-0.95784 -1.06744,-0.84191 -1.76381,-2.068 -2.2889,-3.322 -0.72447,-1.73015 -1.17211,-3.56804 -1.43332,-5.42547 -0.25599,-1.82026 -0.33499,-3.66536 -0.23555,-5.50083"
         id="path913-8"
         inkscape:path-effect="#path-effect938"
         inkscape:original-d="m 389.61811,284.77213 c -0.22621,-1.57034 -0.45218,-3.14097 -0.67789,-4.71188 -0.22571,-1.57091 -2.88734,-4.05169 -4.33063,-6.07796 -1.44329,-2.02627 -0.95857,-0.63828 -1.43747,-0.95784 -0.4789,-0.31957 -1.52618,-2.21438 -2.2889,-3.322 -0.76271,-1.10761 -0.9558,-3.6167 -1.43332,-5.42547 -0.47752,-1.80878 0.0519,-4.16313 -0.23555,-5.50083"
         sodipodi:nodetypes="csssssc" />
      <rect
         style="fill:none;stroke:#000000;stroke-width:3;stroke-linecap:round;stroke-linejoin:round;stroke-miterlimit:4;stroke-dasharray:none;stroke-opacity:1;paint-order:stroke fill markers"
         id="rect941"
         width="14.432179"
         height="24.404037"
         x="364.78217"
         y="234.37212"
         rx="10.137093"
         ry="1.0137093" />
      <path
         style="fill:none;stroke:#000000;stroke-width:3;stroke-linecap:round;stroke-linejoin:round;stroke-miterlimit:4;stroke-dasharray:none;stroke-opacity:1;paint-order:stroke fill markers"
         id="path943"
         sodipodi:type="arc"
         sodipodi:cx="372.05011"
         sodipodi:cy="-313.85651"
         sodipodi:rx="17.515882"
         sodipodi:ry="11.925413"
         sodipodi:start="0"
         sodipodi:end="3.1415927"
         sodipodi:arc-type="arc"
         sodipodi:open="true"
         transform="scale(1,-1)"
         d="m 389.56599,-313.85651 a 17.515882,11.925413 0 0 1 -8.75794,10.32771 17.515882,11.925413 0 0 1 -17.51588,0 17.515882,11.925413 0 0 1 -8.75794,-10.32771" />
      <path
         style="fill:none;stroke:#000000;stroke-width:3;stroke-linecap:butt;stroke-linejoin:miter;stroke-miterlimit:4;stroke-dasharray:none;stroke-opacity:1"
         d="m 354.526,343.33197 35.05847,0.27933"
         id="path947"
         inkscape:path-effect="#path-effect949"
         inkscape:original-d="m 354.526,343.33197 c 11.68643,0.0934 23.37258,0.18648 35.05847,0.27933" />
      <circle
         style="fill:none;stroke:#000000;stroke-width:3;stroke-linecap:butt;stroke-linejoin:round;stroke-miterlimit:4;stroke-dasharray:none;stroke-opacity:1;paint-order:stroke fill markers"
         id="path951"
         cx="371.6152"
         cy="321.12845"
         r="10.247603" />
      <path
         style="fill:#007c3b;fill-opacity:1;stroke:none;stroke-width:0.335953px;stroke-linecap:butt;stroke-linejoin:miter;stroke-opacity:1"
         d="m 359.56597,321.55563 c 2.39443,-1.08769 4.752,-2.31289 7.30309,-2.95187 1.84875,-0.46307 3.76182,-0.60808 5.63085,-0.98095 1.55035,-0.3093 3.06456,-0.77416 4.58214,-1.21708 1.79597,-0.52417 3.60111,-1.01874 5.423,-1.44416 0.96903,-0.22627 1.98953,-0.43211 2.94769,-0.1635 0.35788,0.10033 0.69938,0.26713 0.98447,0.50558 0.2851,0.23846 0.51227,0.5501 0.63109,0.90227 0.16968,0.5029 0.10984,1.06584 -0.0982,1.55414 -0.208,0.4883 -0.55524,0.9073 -0.95053,1.26149 -0.68008,0.60936 -1.50465,1.03934 -2.35948,1.36044 -0.85482,0.3211 -1.74434,0.53833 -2.62892,0.76493 -2.92413,0.74906 -5.81879,1.60804 -8.7297,2.40692 -2.29543,0.62997 -4.61193,1.22633 -6.79291,2.17984 -0.73959,0.32335 -1.46209,0.68717 -2.21652,0.97418 -0.75444,0.28701 -1.54899,0.49738 -2.35618,0.49724 -0.77917,-1.4e-4 -1.55486,-0.19924 -2.24856,-0.55404 -0.50832,-0.25998 -0.98086,-0.60983 -1.3135,-1.07387 -0.33263,-0.46404 -0.51503,-1.05084 -0.42488,-1.61463 0.0489,-0.30566 0.17541,-0.59644 0.35004,-0.85202 0.17464,-0.25558 0.39658,-0.47683 0.64109,-0.66665 0.48903,-0.37963 1.06223,-0.63221 1.62589,-0.88826 z"
         id="path993"
         inkscape:path-effect="#path-effect995"
         inkscape:original-d="m 359.56597,321.55563 c 0.87204,-0.80267 4.86903,-1.96755 7.30309,-2.95187 2.43407,-0.98434 3.7542,-0.65359 5.63085,-0.98095 1.87664,-0.32735 3.05506,-0.81103 4.58214,-1.21708 1.52708,-0.40607 3.61563,-0.96239 5.423,-1.44416 1.80736,-0.48175 1.96543,-0.10867 2.94769,-0.1635 0.98226,-0.0548 1.07734,0.93893 1.61556,1.40785 0.53822,0.46888 -0.69883,1.87746 -1.0487,2.81563 -0.34986,0.93817 -3.3253,1.41728 -4.9884,2.12537 -1.6631,0.70806 -5.81949,1.60499 -8.7297,2.40692 -2.91019,0.80193 -4.5283,1.45361 -6.79291,2.17984 -2.26461,0.72625 -3.04816,0.98133 -4.5727,1.47142 -1.52453,0.49007 -1.49873,-0.369 -2.24856,-0.55404 -0.74982,-0.18507 -1.15862,-1.79197 -1.73838,-2.6885 -0.57976,-0.89653 1.74498,-1.60425 2.61702,-2.40693 z" />
      <path
         style="fill:none;stroke:#000000;stroke-width:3;stroke-linecap:round;stroke-linejoin:miter;stroke-miterlimit:4;stroke-dasharray:none;stroke-opacity:1"
         d="m 361.39542,320.85987 18.93457,-5.13815"
         id="path997"
         inkscape:path-effect="#path-effect999"
         inkscape:original-d="m 361.39542,320.85987 c 6.39641,-1.47017 12.53247,-3.67468 18.93457,-5.13815"
         sodipodi:nodetypes="cc" />
      <path
         style="fill:none;stroke:#000000;stroke-width:3;stroke-linecap:round;stroke-linejoin:miter;stroke-miterlimit:4;stroke-dasharray:none;stroke-opacity:1"
         d="m 363.03353,326.38422 18.65141,-5.63282"
         id="path997-1"
         inkscape:path-effect="#path-effect1022"
         inkscape:original-d="m 363.03353,326.38422 c 6.39641,-1.47018 12.2493,-4.16935 18.65141,-5.63282"
         sodipodi:nodetypes="cc" />
      <path
         style="fill:#feb811;fill-opacity:1;stroke:none;stroke-width:0.26821px;stroke-linecap:butt;stroke-linejoin:miter;stroke-opacity:1"
         d="m 365.23455,246.93191 c 1.76664,-0.14102 3.54323,-0.15734 5.31217,-0.0488 1.63345,0.10023 3.28719,0.30561 4.89493,0 0.4425,-0.0841 0.88094,-0.2069 1.3311,-0.2223 0.22508,-0.008 0.45245,0.012 0.66841,0.0759 0.21596,0.0639 0.4205,0.17314 0.58177,0.33034 0.27821,0.27118 0.40702,0.66 0.48304,1.041 0.076,0.381 0.10991,0.77324 0.24257,1.1384 0.17619,0.48499 0.5171,0.89566 0.70206,1.37737 0.0925,0.24086 0.14472,0.50232 0.1096,0.75792 -0.0176,0.1278 -0.0571,0.25305 -0.12073,0.36524 -0.0637,0.11219 -0.15183,0.21108 -0.25905,0.28281 -0.15593,0.10431 -0.34754,0.14792 -0.53509,0.14355 -0.18755,-0.004 -0.37172,-0.0545 -0.54557,-0.125 -0.3477,-0.141 -0.65898,-0.36285 -1.01061,-0.49375 -0.64645,-0.24065 -1.36912,-0.15273 -2.03615,0.023 -0.66702,0.17575 -1.31414,0.4361 -1.99637,0.53793 -0.71102,0.10613 -1.43496,0.0364 -2.15127,-0.0245 -0.71631,-0.0609 -1.44409,-0.11221 -2.14888,0.0295 -0.61743,0.12412 -1.20139,0.39364 -1.82481,0.48294 -0.31171,0.0446 -0.63409,0.0427 -0.93641,-0.0454 -0.30232,-0.0881 -0.58385,-0.2674 -0.76071,-0.52793 -0.10854,-0.15989 -0.17537,-0.34603 -0.20732,-0.53662 -0.0319,-0.1906 -0.0298,-0.38581 -0.008,-0.5778 0.044,-0.38399 0.16593,-0.7541 0.25171,-1.13096 0.21303,-0.93591 0.20038,-1.92237 -0.0366,-2.8525"
         id="path1072"
         inkscape:path-effect="#path-effect1074"
         inkscape:original-d="m 365.23455,246.93191 c 1.75712,-0.004 3.54172,-0.0322 5.31217,-0.0488 1.77046,-0.0165 3.26355,2.7e-4 4.89493,0 1.63137,-2.6e-4 1.72112,0.12288 2.58128,0.18392 0.86016,0.061 0.48401,1.4532 0.72561,2.1794 0.2416,0.7262 0.28819,1.85583 0.43188,2.78334 0.14369,0.92751 -1.39392,-0.31653 -2.09127,-0.4752 -0.69736,-0.15866 -2.68808,0.37424 -4.03252,0.56095 -1.34443,0.18671 -2.8665,0.003 -4.30015,0.005 -1.43365,0.001 -2.34768,-0.06 -3.52193,-0.0904 -1.17424,-0.0304 0.0247,-1.49665 0.0366,-2.24538 0.0119,-0.74873 -0.0241,-1.9014 -0.0366,-2.8525" />
      <rect
         style="fill:none;fill-opacity:1;stroke:#000000;stroke-width:3;stroke-linecap:round;stroke-linejoin:round;stroke-miterlimit:4;stroke-dasharray:none;stroke-opacity:1;paint-order:stroke fill markers"
         id="rect1070"
         width="13.945864"
         height="5.097887"
         x="365.23456"
         y="246.93192" />
      <path
         style="fill:#cdeae0;fill-opacity:1;stroke:none;stroke-width:0.275422px;stroke-linecap:butt;stroke-linejoin:miter;stroke-opacity:1"
         d="m 363.57951,336.11412 c 1.53611,-0.24829 3.08134,-0.44021 4.63152,-0.57525 1.48274,-0.12916 2.97436,-0.20627 4.45929,-0.10523 1.31347,0.0894 2.61347,0.31752 3.9234,0.44898 1.20813,0.12124 2.42542,0.16032 3.6253,0.34628 0.39414,0.0611 0.78678,0.13819 1.16722,0.25794 0.18934,0.0596 0.37773,0.1309 0.53993,0.24533 0.16219,0.11442 0.2975,0.27663 0.34648,0.46899 0.0285,0.11185 0.0269,0.23052 0.001,0.34302 -0.0258,0.11251 -0.0754,0.21894 -0.14017,0.31447 -0.12955,0.19107 -0.31671,0.33618 -0.51393,0.45616 -0.48764,0.29665 -1.04875,0.45567 -1.61383,0.53615 -0.56508,0.0805 -1.1378,0.0855 -1.70852,0.0938 -1.66417,0.0243 -3.32788,0.0784 -4.99029,0.15875 -1.71592,0.0829 -3.4362,0.19368 -5.14991,0.0734 -1.19582,-0.0839 -2.38234,-0.28006 -3.57948,-0.34228 -0.38207,-0.0199 -0.76806,-0.0265 -1.14005,-0.11588 -0.37199,-0.0894 -0.73586,-0.27172 -0.96433,-0.57859 -0.16962,-0.22782 -0.25495,-0.51624 -0.24031,-0.79989 0.0146,-0.28365 0.12847,-0.56064 0.31471,-0.77509 0.25438,-0.29292 0.64403,-0.46325 1.0318,-0.45105 z"
         id="path1078"
         inkscape:path-effect="#path-effect1080"
         inkscape:original-d="m 363.57951,336.11412 c 0.34365,-0.15061 3.08796,-0.38323 4.63152,-0.57525 1.54357,-0.19201 2.97314,-0.0698 4.45929,-0.10523 1.48614,-0.0354 2.61588,0.29959 3.9234,0.44898 1.30752,0.14939 2.41715,0.23111 3.6253,0.34628 1.20815,0.11515 0.77843,0.17222 1.16722,0.25794 0.38879,0.0858 0.59123,0.47648 0.88641,0.71432 0.29519,0.23784 -0.43503,0.7427 -0.65297,1.11365 -0.21793,0.37094 -2.21461,0.42024 -3.32235,0.62997 -1.10773,0.20974 -3.32658,0.1061 -4.99029,0.15875 -1.66371,0.0526 -3.43299,0.0491 -5.14991,0.0734 -1.71692,0.0242 -2.38603,-0.22792 -3.57948,-0.34228 -1.19344,-0.11436 -1.40263,-0.46272 -2.10438,-0.69447 -0.70174,-0.23176 0.0499,-1.04972 0.0744,-1.57498 0.0245,-0.52525 0.68815,-0.30042 1.0318,-0.45105 z" />
      <rect
         style="fill:none;fill-opacity:1;stroke:#000000;stroke-width:3;stroke-linecap:round;stroke-linejoin:round;stroke-miterlimit:4;stroke-dasharray:none;stroke-opacity:1;paint-order:stroke fill markers"
         id="rect1076"
         width="21.460373"
         height="3.7778556"
         x="361.33554"
         y="335.4393"
         rx="2.1334147" />
      <path
         style="fill:none;stroke:#000000;stroke-width:4.26683;stroke-linecap:round;stroke-linejoin:miter;stroke-miterlimit:4;stroke-dasharray:none;stroke-opacity:0.25098"
         d="m 376.36165,236.10917 c -0.33547,8.96276 -0.1087,17.94653 0.67853,26.88095 0.28286,3.21027 0.67614,6.53159 2.34518,9.28843 0.8301,1.37113 1.9472,2.54806 3.1434,3.61491 1.12761,1.00567 2.35828,1.95298 3.12314,3.25601 0.50424,0.85902 0.78061,1.83617 0.92727,2.8214 0.14665,0.98522 0.16817,1.9842 0.19316,2.97997 0.10726,4.27362 0.2833,8.54553 0.35384,12.81991 0.10498,6.36129 -0.0238,12.72405 0.004,19.08614 0.0305,7.003 0.25066,14.00375 0.34234,21.00622 0.0378,2.88361 0.0537,5.76746 0.0648,8.6513 0.0108,2.81562 0.017,5.63164 0.0982,8.4461 0.0546,1.89206 0.14314,3.78327 0.16877,5.67595 0.0127,0.93879 0.009,1.88796 -0.20832,2.80139 -0.21713,0.91342 -0.66821,1.79968 -1.4084,2.37726 -0.79161,0.6177 -1.82133,0.82335 -2.81393,0.9748 -3.32817,0.50779 -6.70273,0.61217 -10.06682,0.74447 -2.4505,0.0964 -4.90039,0.208 -7.3495,0.33488 l -5.69803,0.32377"
         id="path1312"
         inkscape:path-effect="#path-effect1314"
         inkscape:original-d="m 376.36165,236.10917 c 0.0124,9.9292 13.10829,11.30268 0.67853,26.88095 -6.20117,7.77196 1.75862,6.64629 2.34518,9.28843 0.58656,2.64215 1.90984,2.2702 3.1434,3.61491 1.23357,1.34471 2.25224,2.45654 3.12314,3.25601 0.8709,0.79948 0.59436,3.65029 1.12043,5.80137 0.52606,2.15108 5.61584,6.90673 0.35384,12.81991 -2.73064,3.06855 -0.16511,12.82411 0.004,19.08614 0.16913,6.26202 0.36076,13.87273 0.34234,21.00622 -0.0184,7.13347 -3.99193,5.98299 0.0648,8.6513 10.19267,6.70415 0.0501,6.28098 0.0982,8.4461 0.0481,2.16511 0.82554,7.0585 0.16877,5.67595 -16.17267,-34.04493 20.02705,-14.77303 -1.61672,5.17865 -1.03547,0.95452 -0.8358,0.53825 -2.81393,0.9748 -1.96119,0.43282 -8.8992,3.02402 -10.06682,0.74447 -303.701116,-592.91858 -4.88697,0.39591 -7.3495,0.33488 -0.87492,-5.19343 -4.48781,0.43158 -5.69803,0.32377"
         sodipodi:nodetypes="csssssssssssssscc" />
    </g>
    <g
       id="g2055"
       transform="translate(-323.92514,-189.23747)">
      <path
         style="fill:#e0f6eb;fill-opacity:1;stroke:none;stroke-width:0.237519px;stroke-linecap:butt;stroke-linejoin:miter;stroke-opacity:1"
         d="m 402.84942,332.17483 c 2.888,0.0679 5.77715,0.0869 8.6658,0.0571 1.96259,-0.0203 3.92662,-0.063 5.88707,0.0308 1.57022,0.0752 3.14364,0.23788 4.71079,0.11421 0.64067,-0.0506 1.27856,-0.14893 1.9212,-0.15326 0.64265,-0.004 1.30166,0.0913 1.86334,0.40366 0.54849,0.30498 0.96866,0.79517 1.34107,1.3003 0.49452,0.67075 0.93643,1.41069 1.06823,2.23355 0.0659,0.41142 0.0511,0.83886 -0.0718,1.237 -0.12286,0.39815 -0.35684,0.76565 -0.68427,1.02334 -0.26655,0.20977 -0.58867,0.34299 -0.92117,0.41004 -0.3325,0.0671 -0.67565,0.0697 -1.01314,0.0358 -0.67498,-0.068 -1.32624,-0.27986 -1.99191,-0.41059 -1.98639,-0.39011 -4.0334,-0.05 -6.05754,-0.022 -3.12043,0.0432 -6.26296,-0.65765 -9.34202,-0.14937 -0.94707,0.15634 -1.87244,0.4254 -2.81805,0.59031 -0.94561,0.1649 -1.9317,0.22262 -2.85456,-0.0414 -0.23608,-0.0675 -0.46765,-0.15639 -0.67662,-0.28532 -0.20898,-0.12893 -0.39524,-0.29951 -0.52235,-0.5096 -0.11669,-0.19287 -0.18092,-0.41449 -0.20673,-0.63843 -0.0258,-0.22394 -0.0143,-0.45078 0.0127,-0.67458 0.0539,-0.44762 0.16927,-0.88947 0.17137,-1.34031 0.002,-0.45851 -0.11297,-0.90871 -0.16305,-1.36448 -0.025,-0.22789 -0.0338,-0.45883 -0.003,-0.68607 0.0304,-0.22723 0.10101,-0.45135 0.22564,-0.64377 0.15086,-0.23292 0.38024,-0.41398 0.64183,-0.50663 0.26158,-0.0926 0.55379,-0.0963 0.81762,-0.0103 z"
         id="path1249"
         inkscape:path-effect="#path-effect1251"
         inkscape:original-d="m 402.84942,332.17483 c 0.48624,-0.17254 5.77744,0.0383 8.6658,0.0571 2.88837,0.0189 3.92495,0.0207 5.88707,0.0308 1.96212,0.01 3.14076,0.0764 4.71079,0.11421 1.57002,0.0378 2.52327,0.16716 3.78454,0.2504 1.26128,0.0832 0.89429,0.8671 1.34107,1.3003 0.44678,0.43319 0.20834,2.99617 0.31215,4.49389 0.10381,1.49772 -2.61724,0.0237 -3.92622,0.0352 -1.30897,0.0115 -4.03812,-0.0145 -6.05754,-0.022 -2.01942,-0.007 -6.22777,-0.0993 -9.34202,-0.14937 -3.11425,-0.05 -3.78151,0.36619 -5.67261,0.54892 -1.89111,0.18274 -0.79908,-0.52971 -1.19897,-0.79492 -0.3999,-0.26521 -0.0149,-1.76864 -0.0227,-2.65332 -0.008,-0.88467 0.0397,-1.79598 0.0592,-2.69432 0.0195,-0.89834 0.9732,-0.34436 1.45945,-0.51689 z" />
      <path
         style="fill:#8aceb6;fill-opacity:1;stroke:none;stroke-width:0.237519px;stroke-linecap:butt;stroke-linejoin:miter;stroke-opacity:1"
         d="m 405.27405,368.07406 c 1.96386,-0.0519 3.92824,-0.0841 5.89275,-0.0966 2.08435,-0.0133 4.17025,-0.004 6.25075,0.123 1.29116,0.079 2.58746,0.20352 3.87546,0.0835 0.69904,-0.0651 1.39716,-0.20417 2.03963,-0.48725 0.64246,-0.28308 1.22893,-0.717 1.62558,-1.29628 0.33436,-0.48831 0.52688,-1.07771 0.51529,-1.66941 -0.0116,-0.59171 -0.23268,-1.1821 -0.63462,-1.61648 -0.40532,-0.43803 -0.97199,-0.70169 -1.55427,-0.83249 -0.58228,-0.1308 -1.18463,-0.13815 -1.78136,-0.12955 -3.50673,0.0506 -7.011,0.63108 -10.50693,0.35142 -0.92368,-0.0739 -1.84258,-0.20769 -2.7682,-0.25104 -0.92561,-0.0434 -1.86754,0.006 -2.74951,0.29054 -0.41269,0.13298 -0.81214,0.31842 -1.15516,0.58362 -0.34302,0.2652 -0.6282,0.61359 -0.78145,1.01919 -0.15504,0.41033 -0.16999,0.86607 -0.0834,1.29608 0.0866,0.43 0.27132,0.83588 0.50277,1.20849 0.34258,0.55152 0.79059,1.0373 1.31265,1.4233 z"
         id="path1245"
         inkscape:path-effect="#path-effect1247"
         inkscape:original-d="m 405.27405,368.07406 c 0.43732,0.4742 3.92874,-0.0642 5.89275,-0.0966 1.96402,-0.0324 4.16741,0.0822 6.25075,0.123 2.08334,0.0408 2.58388,0.0559 3.87546,0.0835 1.29158,0.0276 2.44371,-1.18877 3.66521,-1.78353 1.2215,-0.59474 -0.0794,-2.19035 -0.11933,-3.28589 -0.04,-1.09554 -2.22352,-0.64113 -3.33563,-0.96204 -1.11211,-0.32093 -7.00438,0.23452 -10.50693,0.35142 -3.50255,0.11691 -3.67823,0.0266 -5.51771,0.0395 -1.83947,0.0129 -1.29083,1.06877 -1.93661,1.60281 -0.64578,0.53402 0.27982,1.66995 0.41939,2.50457 0.13956,0.83462 0.87534,0.9491 1.31265,1.4233 z" />
      <path
         style="fill:#cdeae0;fill-opacity:1;stroke:none;stroke-width:0.237519px;stroke-linecap:butt;stroke-linejoin:miter;stroke-opacity:1"
         d="m 402.55245,338.83449 c 1.56492,-0.26215 3.15252,-0.38871 4.73921,-0.3778 1.56576,0.0108 3.12808,0.15503 4.69374,0.17572 1.31833,0.0174 2.63729,-0.0528 3.95501,-0.009 1.23297,0.041 2.46087,0.18165 3.69363,0.22843 1.20155,0.0456 2.4059,0.002 3.6027,-0.11421 0.66636,-0.0646 1.3442,-0.1511 2.00024,-0.0176 0.43105,0.0877 0.84431,0.27174 1.18699,0.54755 0.34268,0.27581 0.61296,0.64442 0.75642,1.06026 0.12552,0.36384 0.15299,0.75675 0.11687,1.13993 -0.0361,0.38319 -0.13428,0.75814 -0.25447,1.12378 -0.24038,0.73128 -0.57173,1.43917 -0.69205,2.19948 -0.1819,1.14941 0.13194,2.31159 0.23867,3.4704 0.16784,1.82233 -0.17913,3.65194 -0.6137,5.42964 -0.36148,1.47873 -0.78842,2.98486 -0.62508,4.49834 0.0481,0.44605 0.14735,0.88602 0.18053,1.33343 0.0332,0.44741 -0.004,0.91403 -0.21353,1.31092 -0.16926,0.32117 -0.44317,0.57939 -0.75292,0.76876 -0.68455,0.4185 -1.51674,0.50638 -2.31846,0.53813 -1.43667,0.0569 -2.87453,-0.0335 -4.31018,-0.11202 -1.09043,-0.0597 -2.18137,-0.1125 -3.27027,-0.19548 -1.9678,-0.14995 -3.97315,-0.39568 -5.89434,0.0557 -0.50543,0.11875 -0.99885,0.28472 -1.50447,0.40264 -0.50562,0.11792 -1.03093,0.18738 -1.54419,0.10914 -0.48638,-0.0741 -0.95028,-0.28174 -1.33694,-0.58596 -0.38667,-0.30422 -0.69615,-0.70367 -0.9048,-1.14923 -0.37163,-0.79359 -0.41693,-1.69493 -0.46597,-2.56986 -0.14907,-2.65938 -0.38968,-5.31265 -0.61844,-7.96636 -0.13689,-1.58795 -0.26972,-3.17773 -0.51143,-4.75313 -0.17844,-1.16298 -0.41691,-2.33178 -0.33527,-3.50554 0.0747,-1.07436 0.42283,-2.12861 1.00254,-3.03623 z"
         id="path1241"
         inkscape:path-effect="#path-effect1243"
         inkscape:original-d="m 402.55245,338.83449 c 0.33395,-1.01233 3.15971,-0.25163 4.73921,-0.3778 1.5795,-0.12616 3.1294,0.11738 4.69374,0.17572 1.56434,0.0584 2.63691,-0.005 3.95501,-0.009 1.31811,-0.004 2.46266,0.15252 3.69363,0.22843 1.23097,0.076 2.40204,-0.0759 3.6027,-0.11421 1.20067,-0.0383 1.33373,-0.0115 2.00024,-0.0176 0.66651,-0.006 1.29585,1.07211 1.94341,1.60781 0.64757,0.5357 -0.55286,2.9757 -0.82965,4.46319 -0.27678,1.48749 0.15936,2.31384 0.23867,3.4704 0.0794,1.15656 -0.4089,3.62 -0.6137,5.42964 -0.20482,1.80964 -0.41649,2.99913 -0.62508,4.49834 -0.2086,1.49921 -0.0218,1.76314 -0.033,2.64435 -0.0112,0.88121 -0.50171,0.51275 -0.75292,0.76876 -0.25122,0.25601 -1.54541,0.35899 -2.31846,0.53813 -0.77306,0.17914 -2.87322,-0.0744 -4.31018,-0.11202 -1.43696,-0.0376 -2.17994,-0.13009 -3.27027,-0.19548 -1.09033,-0.0654 -3.92932,0.0373 -5.89434,0.0557 -1.96502,0.0183 -2.0322,0.34143 -3.04866,0.51178 -1.01646,0.17035 -1.49425,-1.15656 -2.24174,-1.73519 -0.74749,-0.57864 -0.31041,-1.71301 -0.46597,-2.56986 -0.15555,-0.85685 -0.41206,-5.31067 -0.61844,-7.96636 -0.20638,-2.65569 -0.34072,-3.16851 -0.51143,-4.75313 -0.17071,-1.58462 -0.22327,-2.33679 -0.33527,-3.50554 -0.11198,-1.16875 0.6686,-2.02392 1.00254,-3.03623 z" />
      <path
         style="fill:none;stroke:#000000;stroke-width:3;stroke-linecap:round;stroke-linejoin:miter;stroke-miterlimit:4;stroke-dasharray:none;stroke-opacity:1"
         d="m 401.00703,331.99752 2.53498,32.14866"
         id="path1082"
         inkscape:path-effect="#path-effect1084"
         inkscape:original-d="m 401.00703,331.99752 c 0.99138,11.72946 1.53873,20.39897 2.53498,32.14866"
         sodipodi:nodetypes="cc" />
      <rect
         style="fill:none;fill-opacity:1;stroke:#000000;stroke-width:3;stroke-linecap:round;stroke-linejoin:round;stroke-miterlimit:4;stroke-dasharray:none;stroke-opacity:1;paint-order:stroke fill markers"
         id="rect1110"
         width="21.736935"
         height="5.9810066"
         x="403.55527"
         y="362.10373"
         rx="1.7954233"
         ry="1.7954233" />
      <path
         style="fill:none;stroke:#000000;stroke-width:3;stroke-linecap:round;stroke-linejoin:miter;stroke-miterlimit:4;stroke-dasharray:none;stroke-opacity:1"
         d="m 427.80744,332.09692 -2.53497,32.14866"
         id="path1082-4"
         inkscape:path-effect="#path-effect1203"
         inkscape:original-d="m 427.80744,332.09692 c -0.99138,11.72947 -1.53872,20.39897 -2.53497,32.14866"
         sodipodi:nodetypes="cc" />
      <path
         style="fill:none;stroke:#000000;stroke-width:3;stroke-linecap:round;stroke-linejoin:miter;stroke-miterlimit:4;stroke-dasharray:none;stroke-opacity:1"
         d="m 401.00703,331.99752 26.80041,0.0994"
         id="path1206"
         inkscape:path-effect="#path-effect1208"
         inkscape:original-d="m 401.00703,331.99752 c 8.93371,0.0334 17.86718,0.0665 26.80041,0.0994" />
      <path
         style="fill:none;stroke:#000000;stroke-width:3;stroke-linecap:butt;stroke-linejoin:miter;stroke-miterlimit:4;stroke-dasharray:none;stroke-opacity:1"
         d="m 400.75043,338.32208 26.80041,0.0994"
         id="path1206-2"
         inkscape:path-effect="#path-effect1231"
         inkscape:original-d="m 400.75043,338.32208 c 8.9337,0.0334 17.86717,0.0665 26.80041,0.0994" />
      <path
         style="fill:none;stroke:#000000;stroke-width:3.77858;stroke-linecap:round;stroke-linejoin:miter;stroke-miterlimit:4;stroke-dasharray:none;stroke-opacity:0.25098"
         d="m 424.94436,333.89907 c -0.0477,3.16419 -0.15823,6.32744 -0.33141,9.48725 -0.1284,2.34268 -0.29126,4.68353 -0.49669,7.02071 -0.34637,3.94053 -0.81429,7.88403 -0.71157,11.83842 0.0171,0.65708 0.0497,1.31821 -0.0439,1.96881 -0.0936,0.6506 -0.32437,1.29972 -0.77025,1.78267 -0.48981,0.53053 -1.19858,0.81585 -1.91131,0.93153 -0.71274,0.11568 -1.44012,0.0775 -2.16181,0.0545 -1.29509,-0.0413 -2.59129,-0.0325 -3.88683,-0.009 -1.72063,0.0312 -3.4408,0.0883 -5.15971,0.17132"
         id="path1316"
         inkscape:path-effect="#path-effect1318"
         inkscape:original-d="m 424.94436,333.89907 c -0.77124,9.60064 0.42959,-0.10049 -0.33141,9.48725 -0.761,9.58774 -0.4686,6.06671 -0.49669,7.02071 -0.0281,0.95398 -0.71157,11.83842 -0.71157,11.83842 0,0 -0.39912,3.47935 -0.81418,3.75148 -0.41506,0.27212 -4.20274,0.0897 -4.07312,0.98602 0.0856,0.5919 -2.22352,-0.13593 -3.88683,-0.009 -1.66332,0.12715 -4.21428,0.028 -5.15971,0.17132"
         sodipodi:nodetypes="csscsssc" />
    </g>
  </g>
</svg>
