<?xml version="1.0" encoding="UTF-8" standalone="no"?>
<svg
   xmlns:dc="http://purl.org/dc/elements/1.1/"
   xmlns:cc="http://creativecommons.org/ns#"
   xmlns:rdf="http://www.w3.org/1999/02/22-rdf-syntax-ns#"
   xmlns:svg="http://www.w3.org/2000/svg"
   xmlns="http://www.w3.org/2000/svg"
   xmlns:sodipodi="http://sodipodi.sourceforge.net/DTD/sodipodi-0.dtd"
   xmlns:inkscape="http://www.inkscape.org/namespaces/inkscape"
   width="151.71936mm"
   height="130.06149mm"
   viewBox="0 0 151.71936 130.06149"
   version="1.1"
   id="svg857"
   inkscape:version="1.0.2-2 (e86c870879, 2021-01-15)"
   sodipodi:docname="Aperitivos.svg">
  <defs
     id="defs851">
    <inkscape:path-effect
       effect="spiro"
       id="path-effect951"
       is_visible="true"
       lpeversion="1" />
    <inkscape:path-effect
       effect="spiro"
       id="path-effect947"
       is_visible="true"
       lpeversion="1" />
    <inkscape:path-effect
       effect="spiro"
       id="path-effect942"
       is_visible="true"
       lpeversion="1" />
    <inkscape:path-effect
       effect="spiro"
       id="path-effect973"
       is_visible="true"
       lpeversion="1" />
    <inkscape:path-effect
       effect="spiro"
       id="path-effect937"
       is_visible="true"
       lpeversion="1" />
    <inkscape:path-effect
       effect="spiro"
       id="path-effect1733"
       is_visible="true"
       lpeversion="1" />
    <inkscape:path-effect
       effect="spiro"
       id="path-effect1725"
       is_visible="true"
       lpeversion="1" />
    <inkscape:path-effect
       effect="spiro"
       id="path-effect1721"
       is_visible="true"
       lpeversion="1" />
    <inkscape:path-effect
       effect="spiro"
       id="path-effect1717"
       is_visible="true"
       lpeversion="1" />
    <inkscape:path-effect
       effect="spiro"
       id="path-effect1713"
       is_visible="true"
       lpeversion="1" />
    <inkscape:path-effect
       effect="spiro"
       id="path-effect1688"
       is_visible="true"
       lpeversion="1" />
    <inkscape:path-effect
       effect="spiro"
       id="path-effect1684"
       is_visible="true"
       lpeversion="1" />
    <inkscape:path-effect
       effect="spiro"
       id="path-effect1680"
       is_visible="true"
       lpeversion="1" />
    <inkscape:path-effect
       effect="spiro"
       id="path-effect1673"
       is_visible="true"
       lpeversion="1" />
    <inkscape:path-effect
       effect="spiro"
       id="path-effect1650"
       is_visible="true"
       lpeversion="1" />
    <inkscape:path-effect
       effect="skeletal"
       id="path-effect1646"
       is_visible="true"
       lpeversion="1"
       pattern="M 0,5 C 0,2.24 2.24,0 5,0 7.76,0 10,2.24 10,5 10,7.76 7.76,10 5,10 2.24,10 0,7.76 0,5 Z"
       copytype="single_stretched"
       prop_scale="1.24142"
       scale_y_rel="false"
       spacing="0"
       normal_offset="0"
       tang_offset="0"
       prop_units="false"
       vertical_pattern="false"
       hide_knot="false"
       fuse_tolerance="0" />
    <inkscape:path-effect
       effect="spiro"
       id="path-effect1644"
       is_visible="true"
       lpeversion="1" />
    <inkscape:path-effect
       effect="spiro"
       id="path-effect1640"
       is_visible="true"
       lpeversion="1" />
    <inkscape:path-effect
       effect="spiro"
       id="path-effect1636"
       is_visible="true"
       lpeversion="1" />
    <inkscape:path-effect
       effect="spiro"
       id="path-effect1631"
       is_visible="true"
       lpeversion="1" />
    <inkscape:path-effect
       effect="spiro"
       id="path-effect1608"
       is_visible="true"
       lpeversion="1" />
    <inkscape:path-effect
       effect="spiro"
       id="path-effect1603"
       is_visible="true"
       lpeversion="1" />
    <inkscape:path-effect
       effect="spiro"
       id="path-effect1580"
       is_visible="true"
       lpeversion="1" />
    <inkscape:path-effect
       effect="spiro"
       id="path-effect1504"
       is_visible="true"
       lpeversion="1" />
    <inkscape:path-effect
       effect="spiro"
       id="path-effect1512"
       is_visible="true"
       lpeversion="1" />
    <inkscape:path-effect
       effect="spiro"
       id="path-effect1516"
       is_visible="true"
       lpeversion="1" />
    <inkscape:path-effect
       effect="spiro"
       id="path-effect1520"
       is_visible="true"
       lpeversion="1" />
    <inkscape:path-effect
       effect="spiro"
       id="path-effect1524"
       is_visible="true"
       lpeversion="1" />
    <inkscape:path-effect
       effect="spiro"
       id="path-effect1528"
       is_visible="true"
       lpeversion="1" />
    <inkscape:path-effect
       effect="spiro"
       id="path-effect1532"
       is_visible="true"
       lpeversion="1" />
    <inkscape:path-effect
       effect="spiro"
       id="path-effect1536"
       is_visible="true"
       lpeversion="1" />
    <inkscape:path-effect
       effect="spiro"
       id="path-effect1364"
       is_visible="true"
       lpeversion="1" />
    <inkscape:path-effect
       effect="spiro"
       id="path-effect1368"
       is_visible="true"
       lpeversion="1" />
    <inkscape:path-effect
       effect="spiro"
       id="path-effect1391"
       is_visible="true"
       lpeversion="1" />
    <inkscape:path-effect
       effect="spiro"
       id="path-effect1396"
       is_visible="true"
       lpeversion="1" />
    <inkscape:path-effect
       effect="spiro"
       id="path-effect1419"
       is_visible="true"
       lpeversion="1" />
    <inkscape:path-effect
       effect="spiro"
       id="path-effect1433"
       is_visible="true"
       lpeversion="1" />
    <inkscape:path-effect
       effect="spiro"
       id="path-effect1437"
       is_visible="true"
       lpeversion="1" />
    <inkscape:path-effect
       effect="spiro"
       id="path-effect1441"
       is_visible="true"
       lpeversion="1" />
    <inkscape:path-effect
       effect="spiro"
       id="path-effect1445"
       is_visible="true"
       lpeversion="1" />
    <inkscape:path-effect
       effect="spiro"
       id="path-effect1457"
       is_visible="true"
       lpeversion="1" />
    <inkscape:path-effect
       effect="spiro"
       id="path-effect1461"
       is_visible="true"
       lpeversion="1" />
    <inkscape:path-effect
       effect="spiro"
       id="path-effect1568"
       is_visible="true"
       lpeversion="1" />
    <inkscape:path-effect
       effect="spiro"
       id="path-effect1572"
       is_visible="true"
       lpeversion="1" />
  </defs>
  <sodipodi:namedview
     id="base"
     pagecolor="#ffffff"
     bordercolor="#666666"
     borderopacity="1.0"
     inkscape:pageopacity="0.0"
     inkscape:pageshadow="2"
     inkscape:zoom="0.49497475"
     inkscape:cx="179.95744"
     inkscape:cy="343.73752"
     inkscape:document-units="mm"
     inkscape:current-layer="g1651"
     inkscape:document-rotation="0"
     showgrid="false"
     inkscape:window-width="1366"
     inkscape:window-height="705"
     inkscape:window-x="-8"
     inkscape:window-y="-8"
     inkscape:window-maximized="1"
     fit-margin-top="0"
     fit-margin-left="0"
     fit-margin-right="0"
     fit-margin-bottom="0" />
  <metadata
     id="metadata854">
    <rdf:RDF>
      <cc:Work
         rdf:about="">
        <dc:format>image/svg+xml</dc:format>
        <dc:type
           rdf:resource="http://purl.org/dc/dcmitype/StillImage" />
        <dc:title></dc:title>
      </cc:Work>
    </rdf:RDF>
  </metadata>
  <g
     inkscape:label="Capa 1"
     inkscape:groupmode="layer"
     id="layer1"
     transform="translate(-17.691441,-33.498785)">
    <g
       id="g1651"
       transform="translate(-74.527221,40.53757)">
      <g
         id="g974">
        <g
           id="g1010">
          <g
             id="g1751"
             transform="translate(74.527221,-40.537571)">
            <path
               style="fill:#e49542;fill-opacity:1;stroke:#000000;stroke-width:0.264583px;stroke-linecap:butt;stroke-linejoin:miter;stroke-opacity:1"
               d="m 23.713514,142.38837 c -0.592519,-3.76081 -1.080865,-7.53804 -1.464289,-11.32588 -0.611085,-6.03691 -0.955449,-12.09805 -1.196914,-18.161 -0.325967,-8.1847 -0.464628,-16.383732 -0.07041,-24.565432 0.391243,-8.119949 1.307026,-16.210024 2.581577,-24.238857 0.447421,-2.81846 0.940406,-5.644724 0.958891,-8.498417 0.0075,-1.155827 -0.05729,-2.348056 0.352034,-3.429 0.455162,-1.201977 1.474825,-2.141963 2.651983,-2.657927 1.105693,-0.48464 2.334946,-0.620533 3.542169,-0.61389 1.207223,0.0066 2.409516,0.149605 3.615842,0.196605 3.112869,0.121283 6.209633,-0.396261 9.305411,-0.743858 4.80213,-0.539188 9.643779,-0.670971 14.475013,-0.569232 5.526699,0.116384 11.041749,0.537442 16.557297,0.907142 6.379788,0.427629 12.772485,0.78756 19.103294,1.685018 1.611181,0.228402 3.220985,0.49187 4.846326,0.5715 0.705379,0.03456 1.429272,0.03758 2.088732,0.290285 0.55001,0.210769 1.02736,0.588578 1.40225,1.042884 0.37489,0.454306 0.65123,0.98358 0.8625,1.533403 0.67754,1.7633 0.69134,3.702676 0.66558,5.591492 -0.0258,1.888817 -0.077,3.817147 0.48439,5.620793 0.39811,1.279062 1.09204,2.450148 1.49528,3.727601 0.8033,2.544853 0.39941,5.287252 0.36377,7.955642 -0.0435,3.261206 0.47582,6.499579 0.82141,9.742715 0.8093,7.594637 0.66697,15.262153 0.17911,22.884193 -0.49541,7.73996 -1.34585,15.45684 -1.67925,23.20547 -0.11098,2.57923 -0.16752,5.18331 -0.77447,7.69257 -0.19595,0.8101 -0.4515,1.61313 -0.86258,2.33816 -0.41109,0.72503 -0.98727,1.37216 -1.719,1.7712 -0.82855,0.45184 -1.80421,0.56112 -2.747182,0.52297 -0.942968,-0.0382 -1.874779,-0.21415 -2.814947,-0.29619 -2.252271,-0.19652 -4.511237,0.14771 -6.759037,0.39007 -3.786366,0.40826 -7.597925,0.52849 -11.405881,0.58057 -3.406671,0.0466 -6.813931,0.0389 -10.220698,0 -6.149095,-0.0702 -12.297389,-0.24209 -18.439002,-0.55335 -4.841798,-0.24538 -9.67997,-0.57745 -14.503771,-1.06136 -2.229693,-0.22368 -4.456233,-0.47979 -6.676898,-0.78014 -1.676506,-0.22675 -3.349602,-0.4787 -5.018534,-0.75575 z"
               id="path1711"
               inkscape:path-effect="#path-effect1713"
               inkscape:original-d="m 23.713514,142.38837 c -1.67311,-0.25218 -0.975929,-7.55033 -1.464289,-11.32588 -0.488361,-3.77556 -0.797678,-12.10707 -1.196914,-18.161 -0.399235,-6.05393 -0.04667,-16.376692 -0.07041,-24.565432 -0.02373,-8.18874 1.721316,-16.158972 2.581577,-24.238857 0.860261,-8.079883 0.639525,-5.665346 0.958891,-8.498417 0.319366,-2.833068 0.234954,-2.285735 0.352034,-3.429 0.117079,-1.143264 1.768253,-1.771687 2.651983,-2.657927 0.883732,-0.88624 4.772271,-0.277926 7.158011,-0.417285 2.385737,-0.139361 6.203873,-0.495641 9.305411,-0.743858 3.101541,-0.248218 9.650272,-0.379224 14.475013,-0.569232 4.824738,-0.190008 11.038461,0.605025 16.557297,0.907142 5.518835,0.302118 12.735795,1.123609 19.103294,1.685018 6.367508,0.561409 3.231148,0.381264 4.846326,0.5715 1.615182,0.190235 1.392752,0.193789 2.088732,0.290285 0.69598,0.0965 1.5101,1.717789 2.26475,2.576287 0.75465,0.858497 0.76692,7.475122 1.14997,11.212285 0.38307,3.737163 0.99712,2.485332 1.49528,3.727601 0.49816,1.242269 0.24277,5.304028 0.36377,7.955642 0.12099,2.651617 0.54787,6.495407 0.82141,9.742715 0.27354,3.247308 0.11967,15.256393 0.17911,22.884193 0.0594,7.6278 -1.11923,15.47058 -1.67925,23.20547 -0.56001,7.73489 -0.51605,5.12864 -0.77447,7.69257 -0.25842,2.56393 -1.72079,2.73984 -2.58158,4.10936 -0.86079,1.36952 -3.707823,0.15145 -5.562129,0.22678 -1.854305,0.0753 -4.505761,0.26031 -6.759037,0.39007 -2.253279,0.12976 -7.603657,0.38731 -11.405881,0.58057 -3.802224,0.19326 -6.813534,2.7e-4 -10.220698,0 -3.407164,-2.6e-4 -12.292404,-0.36863 -18.439002,-0.55335 -6.146597,-0.18472 -9.668915,-0.70731 -14.503771,-1.06136 -4.834855,-0.35405 -4.451,-0.51983 -6.676898,-0.78014 -2.225897,-0.26031 -3.345425,-0.50357 -5.018534,-0.75575 z" />
            <ellipse
               style="fill:#ececec;fill-opacity:1;stroke:none;stroke-width:3;stroke-linecap:round;stroke-linejoin:round;stroke-miterlimit:4;stroke-dasharray:none;stroke-opacity:1;paint-order:stroke fill markers"
               id="path1701"
               cx="63.884197"
               cy="96.882858"
               rx="32"
               ry="30" />
            <path
               style="fill:#ececec;fill-opacity:1;stroke:#000000;stroke-width:0.264583px;stroke-linecap:butt;stroke-linejoin:miter;stroke-opacity:1"
               d="m 23.713514,142.38837 c -0.55911,1.14546 -1.209069,2.24656 -1.941763,3.28956 -0.561945,0.79994 -1.178347,1.57594 -1.559931,2.47598 -0.407439,0.96102 -0.527485,2.02237 -0.514445,3.06612 0.0053,0.42185 0.03204,0.84679 0.14039,1.25452 0.108349,0.40774 0.302953,0.80006 0.606385,1.09317 0.242029,0.2338 0.548903,0.39865 0.876123,0.47718 0.327219,0.0785 0.673918,0.0712 0.999113,-0.0153 0.436804,-0.11623 0.823734,-0.36832 1.192422,-0.6298 0.368688,-0.26149 0.732145,-0.53888 1.147475,-0.71723 0.631966,-0.27138 1.337898,-0.2951 2.024591,-0.33356 0.824544,-0.0462 1.647547,-0.11929 2.472656,-0.15394 0.635203,-0.0267 1.282951,-0.029 1.891832,0.15394 0.792688,0.23813 1.458008,0.76993 2.107565,1.2829 0.677619,0.53513 1.367243,1.06599 2.140757,1.44967 1.001422,0.49673 2.108343,0.73013 3.186239,1.02631 0.663114,0.18221 1.324005,0.3906 2.007997,0.46184 1.086351,0.11315 2.19745,-0.13082 3.169647,-0.62861 0.820828,-0.42029 1.539676,-1.01117 2.25692,-1.59079 0.962955,-0.77818 1.953495,-1.55492 3.103266,-2.01414 0.637178,-0.25449 1.311778,-0.40615 1.991403,-0.50033 0.792352,-0.1098 1.602479,-0.1421 2.389679,0 0.966035,0.17438 1.873624,0.60881 2.671797,1.18026 0.588598,0.4214 1.120694,0.91619 1.69269,1.35987 0.807032,0.62599 1.694498,1.14984 2.638608,1.53947 1.178393,0.48632 2.48364,0.76221 3.733877,0.51316 1.066922,-0.21253 2.020418,-0.7884 2.953911,-1.34704 0.485239,-0.29039 0.972151,-0.57901 1.476954,-0.83388 0.826055,-0.41706 1.697593,-0.7425 2.505848,-1.19309 0.789897,-0.44036 1.525735,-1.00277 2.38968,-1.27007 0.727087,-0.22496 1.530431,-0.22312 2.240327,0.0513 0.89995,0.34789 1.581895,1.08878 2.38968,1.61644 0.737326,0.48163 1.574977,0.78227 2.373087,1.15461 0.910342,0.4247 1.772456,0.94457 2.6552,1.42401 0.427275,0.23206 0.86159,0.45562 1.321527,0.61334 0.459938,0.15771 0.948724,0.24839 1.433246,0.20771 0.559284,-0.047 1.08941,-0.26561 1.593119,-0.51316 1.028946,-0.50568 1.98874,-1.14116 2.920723,-1.80888 0.621064,-0.44496 1.231339,-0.90516 1.82545,-1.38552 0.660252,-0.53384 1.326387,-1.1068 2.140757,-1.34704 0.726319,-0.21427 1.501505,-0.14269 2.25692,-0.0898 0.741582,0.0519 1.484954,0.084 2.22373,0.16677 0.801771,0.0898 1.606014,0.24217 2.339894,0.57731 0.67719,0.30925 1.28142,0.76815 1.97481,1.03914 0.54249,0.21201 1.15328,0.30182 1.70928,0.12829 0.31352,-0.0978 0.59829,-0.27583 0.84497,-0.49268 0.24668,-0.21684 0.45691,-0.4722 0.64859,-0.7389 0.28182,-0.39212 0.5263,-0.81213 0.71358,-1.25723 0.16701,-0.39692 0.28859,-0.81549 0.32776,-1.24433 0.0392,-0.42884 -0.006,-0.86872 -0.16181,-1.27015 -0.28203,-0.72645 -0.89594,-1.2707 -1.27781,-1.94999 -0.27032,-0.48086 -0.41897,-1.01975 -0.65185,-1.51981 -0.11644,-0.25003 -0.25498,-0.4917 -0.43419,-0.70135 -0.17922,-0.20966 -0.40091,-0.38691 -0.65646,-0.49067 -0.2345,-0.0952 -0.49201,-0.12637 -0.74469,-0.11205 -0.25268,0.0143 -0.50123,0.073 -0.74171,0.15188 -0.48094,0.1578 -0.93304,0.39641 -1.41771,0.54239 -0.76028,0.229 -1.572012,0.22153 -2.362292,0.14453 -0.79028,-0.077 -1.574198,-0.2214 -2.367282,-0.25999 -1.517802,-0.0738 -3.023471,0.24066 -4.530436,0.43619 -3.054191,0.39628 -6.147167,0.30487 -9.226825,0.33355 -4.239146,0.0395 -8.473148,0.30776 -12.711777,0.38487 -4.231834,0.077 -8.464647,-0.0366 -12.695179,-0.16678 -4.090138,-0.12583 -8.180664,-0.26717 -12.263712,-0.53881 -3.42005,-0.22753 -6.833778,-0.54643 -10.239119,-0.93652 -3.74501,-0.429 -7.480154,-0.94412 -11.201484,-1.54482"
               id="path1715"
               inkscape:path-effect="#path-effect1717"
               inkscape:original-d="m 23.713514,142.38837 c -0.619332,1.0754 -1.294244,2.1933 -1.941763,3.28956 -0.647518,1.09625 -1.039689,1.65092 -1.559931,2.47598 -0.520241,0.82507 -0.342699,2.04434 -0.514445,3.06612 -0.171746,1.02177 0.498115,1.56539 0.746775,2.34769 0.248661,0.7823 1.250422,0.30816 1.875236,0.46184 0.624814,0.15369 1.560196,-0.89776 2.339897,-1.34703 0.7797,-0.44928 1.349991,-0.22211 2.024591,-0.33356 0.674598,-0.11144 1.648701,-0.10236 2.472656,-0.15394 0.823955,-0.0516 1.261486,0.10289 1.891832,0.15394 0.630343,0.0511 1.405308,0.85553 2.107565,1.2829 0.702257,0.42736 1.427435,0.96671 2.140757,1.44967 0.713319,0.48296 2.124424,0.68447 3.186239,1.02631 1.061818,0.34184 1.338929,0.30816 2.007997,0.46184 0.669068,0.15369 2.113362,-0.41881 3.169647,-0.62861 1.056283,-0.20981 1.504879,-1.06026 2.25692,-1.59079 0.752044,-0.53053 2.06911,-1.3425 3.103266,-2.01414 1.034159,-0.67165 1.327867,-0.33329 1.991403,-0.50033 0.663535,-0.16704 1.593384,2.6e-4 2.389679,0 0.796298,-2.7e-4 1.781463,0.7871 2.671797,1.18026 0.890333,0.39316 1.128726,0.90684 1.69269,1.35987 0.563968,0.45302 1.759337,1.02658 2.638608,1.53947 0.879271,0.51289 2.489515,0.34237 3.733877,0.51316 1.244359,0.17078 1.969537,-0.89776 2.953911,-1.34704 0.984372,-0.44928 0.984901,-0.55566 1.476954,-0.83388 0.492054,-0.27823 1.670831,-0.79513 2.505848,-1.19309 0.835017,-0.39797 1.593384,-0.84645 2.38968,-1.27007 0.796295,-0.42362 1.493816,0.0345 2.240327,0.0513 0.746509,0.0168 1.593385,1.07789 2.38968,1.61644 0.796295,0.53855 1.582322,0.77 2.373087,1.15461 0.790763,0.3846 1.770399,0.9496 2.6552,1.42401 0.884804,0.47441 1.83678,0.54763 2.754773,0.82105 0.917993,0.27342 1.062344,-0.34184 1.593119,-0.51316 0.530776,-0.17131 1.947413,-1.20565 2.920723,-1.80888 0.973309,-0.60322 1.217231,-0.92342 1.82545,-1.38552 0.608219,-0.46211 1.427435,-0.89776 2.140757,-1.34704 0.713319,-0.44928 1.504878,-0.0596 2.25692,-0.0898 0.752043,-0.0302 1.482751,0.11145 2.22373,0.16677 0.740981,0.0553 1.560194,0.38514 2.339894,0.57731 0.7797,0.19216 1.31681,0.69302 1.97481,1.03914 0.658,0.34612 1.13979,0.0858 1.70928,0.12829 0.5695,0.0425 0.99597,-0.82079 1.49356,-1.23158 0.49758,-0.41079 0.47598,-0.83789 0.71358,-1.25723 0.2376,-0.41935 0.1109,-1.67606 0.16595,-2.51448 0.055,-0.83842 -0.85161,-1.29973 -1.27781,-1.94999 -0.42621,-0.65027 -1.1614,-1.80763 -1.7425,-2.71183 -0.5811,-0.90421 -1.93581,0.38841 -2.90411,0.58222 -0.9683,0.19381 -3.152784,-0.0767 -4.729574,-0.11546 -1.576789,-0.0388 -3.020028,0.29106 -4.530436,0.43619 -1.510411,0.14512 -6.150952,0.22263 -9.226825,0.33355 -3.075874,0.11092 -8.474253,0.25684 -12.711777,0.38487 -4.237521,0.12802 -8.46319,-0.11093 -12.695179,-0.16678 -4.231992,-0.0559 -8.175543,-0.35895 -12.263712,-0.53881 -4.088167,-0.17988 -6.825816,-0.62408 -10.239119,-0.93652 -3.413305,-0.31243 -7.467391,-1.02962 -11.201484,-1.54482" />
            <path
               style="fill:#ececec;fill-opacity:1;stroke:#000000;stroke-width:0.264583px;stroke-linecap:butt;stroke-linejoin:miter;stroke-opacity:1"
               d="m 24.974734,49.866078 c -1.208557,-0.918274 -2.216839,-2.098738 -2.934839,-3.436016 -0.69343,-1.291515 -1.114039,-2.719147 -1.3276,-4.169405 -0.07148,-0.485433 -0.120293,-0.977741 -0.07746,-1.466536 0.04284,-0.488795 0.181593,-0.976861 0.459141,-1.381487 0.380937,-0.555351 1.01108,-0.920099 1.676096,-1.026316 0.497598,-0.07948 1.009921,-0.02227 1.496653,0.108166 0.486732,0.130435 0.951065,0.332538 1.407473,0.546109 0.951024,0.445022 1.886615,0.946765 2.904126,1.205921 1.058855,0.269686 2.17638,0.265676 3.252621,0.07697 1.068035,-0.187267 2.130905,-0.570829 2.937317,-1.29572 0.539078,-0.484581 0.950841,-1.109065 1.543335,-1.526646 0.39148,-0.275909 0.845521,-0.449171 1.302612,-0.592175 0.457091,-0.143003 0.923455,-0.258904 1.369185,-0.434138 0.502201,-0.197435 0.971922,-0.467693 1.456595,-0.704923 0.484674,-0.237231 0.993899,-0.444077 1.530506,-0.500998 0.57058,-0.06052 1.147623,0.05168 1.69269,0.230921 0.964627,0.317207 1.848342,0.840709 2.688392,1.411184 1.226451,0.832878 2.376955,1.773227 3.484951,2.758221 0.518906,0.461301 1.045044,0.942864 1.692693,1.19309 0.534903,0.206665 1.126105,0.241698 1.694106,0.162915 0.568001,-0.07878 1.115707,-0.267588 1.641489,-0.496467 0.722822,-0.314653 1.409783,-0.705765 2.124162,-1.039143 0.705244,-0.329116 1.450078,-0.60988 2.041186,-1.116118 0.693171,-0.593647 1.125606,-1.457656 1.85864,-2.001314 0.415145,-0.307894 0.908952,-0.497479 1.413968,-0.607494 0.505016,-0.110014 1.023425,-0.143437 1.539943,-0.162242 0.976246,-0.03554 1.970353,-0.01762 2.904128,0.269406 0.903587,0.277745 1.713653,0.796374 2.472655,1.359869 0.651964,0.484029 1.278011,1.007094 1.974805,1.424011 0.720333,0.431001 1.505101,0.741825 2.290112,1.039146 0.774815,0.293459 1.564654,0.57821 2.389682,0.654275 1.015251,0.0936 2.044783,-0.137232 2.970506,-0.564473 0.722445,-0.333424 1.384386,-0.782084 2.057781,-1.205921 0.543702,-0.342207 1.097682,-0.669777 1.676096,-0.94934 0.667788,-0.32276 1.370121,-0.582704 1.9914,-0.98783 0.504934,-0.32926 0.954831,-0.753316 1.510146,-0.987827 0.507462,-0.214303 1.076615,-0.255737 1.622817,-0.184273 0.546202,0.07146 1.072839,0.25154 1.58002,0.466509 0.914279,0.387518 1.778281,0.891727 2.572226,1.488157 0.502639,0.377594 0.976721,0.791448 1.46036,1.193091 0.52499,0.435984 1.063072,0.858905 1.642906,1.21875 0.831972,0.516322 1.754091,0.901214 2.721581,1.051973 1.126862,0.175593 2.284892,0.02988 3.38538,-0.26941 1.04264,-0.28356 2.04926,-0.705434 2.97051,-1.270063 0.53722,-0.32926 1.06935,-0.716176 1.69269,-0.808223 0.41204,-0.06085 0.83887,0.01555 1.21807,0.187836 0.37921,0.172282 0.7121,0.437604 0.98907,0.748675 0.65509,0.735749 0.99721,1.759058 0.84634,2.732564 -0.10585,0.683049 -0.4391,1.311678 -0.836,1.877563 -0.39691,0.565886 -0.86063,1.081789 -1.27157,1.637567 -0.78075,1.055925 -1.3625,2.243783 -1.90842,3.438154 -0.20641,0.45159 -0.41006,0.908241 -0.69394,1.315611 -0.28387,0.407371 -0.65701,0.767381 -1.11756,0.952935 -0.5517,0.222276 -1.17929,0.175279 -1.75219,0.01541 -0.5729,-0.159874 -1.10955,-0.425861 -1.663738,-0.641847 -2.727816,-1.063124 -5.753006,-0.881945 -8.67919,-0.975 -3.278463,-0.104257 -6.532751,-0.571655 -9.791054,-0.949341 -4.359375,-0.505316 -8.739189,-0.850988 -13.126651,-0.949341 -4.236708,-0.09497 -8.474664,0.04067 -12.711777,0.115459 -4.830549,0.08526 -9.665052,0.09153 -14.48744,0.384868 -3.836345,0.233356 -7.658972,0.648036 -11.483747,1.026316 -1.427508,0.141184 -2.855517,0.277314 -4.283989,0.408387 z"
               id="path1719"
               inkscape:path-effect="#path-effect1721"
               inkscape:original-d="m 24.974734,49.866078 c -1.428261,0.135864 -1.956295,-2.290413 -2.934839,-3.436016 -0.978544,-1.145604 -0.884802,-2.77934 -1.3276,-4.169405 -0.442798,-1.390065 0.254721,-1.898417 0.381685,-2.848023 0.126964,-0.949608 1.117662,-0.683947 1.676096,-1.026316 0.558434,-0.34237 1.936349,0.436449 2.904126,0.654275 0.967778,0.217829 1.936349,0.804212 2.904126,1.205921 0.967777,0.401709 2.168679,0.05158 3.252621,0.07697 1.083945,0.0254 1.958477,-0.863549 2.937317,-1.29572 0.978842,-0.432173 1.029155,-1.0175 1.543335,-1.526646 0.514181,-0.509145 1.781464,-0.683945 2.671797,-1.026313 0.890334,-0.342371 1.991665,-0.803682 2.987101,-1.205921 0.995437,-0.402238 1.128726,0.154213 1.69269,0.230921 0.563968,0.07671 1.792526,0.941054 2.688392,1.411184 0.895866,0.47013 2.323566,1.839079 3.484951,2.758221 1.161386,0.919143 1.128726,0.79566 1.692693,1.19309 0.563965,0.397434 2.223995,-0.222101 3.335595,-0.333552 1.111601,-0.111448 1.416372,-0.692496 2.124162,-1.039143 0.707789,-0.346646 1.361056,-0.743815 2.041186,-1.116118 0.68013,-0.372303 1.239359,-1.333945 1.85864,-2.001314 0.619284,-0.667369 1.96954,-0.512892 2.953911,-0.769736 0.984375,-0.256845 1.936351,0.179869 2.904128,0.269406 0.967777,0.08954 1.648701,0.906844 2.472655,1.359869 0.823955,0.453025 1.316802,0.949605 1.974805,1.424011 0.658006,0.474406 1.527006,0.693028 2.290112,1.039146 0.763106,0.346114 1.593387,0.436449 2.389682,0.654275 0.796295,0.217826 1.980602,-0.376053 2.970506,-0.564473 0.989904,-0.188423 1.372119,-0.803682 2.057781,-1.205921 0.685663,-0.402238 1.117661,-0.632629 1.676096,-0.94934 0.558435,-0.316712 1.327864,-0.658289 1.9914,-0.98783 0.663535,-0.329539 1.007028,-0.658286 1.510146,-0.987827 0.503118,-0.329542 2.135489,0.188423 3.202837,0.282236 1.067348,0.09381 1.715082,0.99237 2.572226,1.488157 0.857144,0.495787 0.973839,0.795657 1.46036,1.193091 0.486524,0.397433 1.095536,0.812763 1.642906,1.21875 0.54737,0.405985 1.814653,0.70158 2.721581,1.051973 0.906931,0.350393 2.257187,-0.179343 3.38538,-0.26941 1.1282,-0.09007 1.98061,-0.846444 2.97051,-1.270063 0.9899,-0.423619 1.12872,-0.538552 1.69269,-0.808223 0.56396,-0.269674 1.47169,0.624605 2.20714,0.936511 0.73544,0.311907 0.56449,1.821974 0.84634,2.732564 0.28185,0.91059 -1.40478,2.343685 -2.10757,3.51513 -0.70278,1.171445 -1.27201,2.292368 -1.90842,3.438154 -0.63641,1.145786 -1.2074,1.512629 -1.8115,2.268546 -0.6041,0.755917 -2.27702,-0.417362 -3.415928,-0.626441 -1.138907,-0.209079 -5.785863,-0.649735 -8.67919,-0.975 -2.893327,-0.325263 -6.527104,-0.632629 -9.791054,-0.949341 -3.263951,-0.316711 -8.750837,-0.632629 -13.126651,-0.949341 -4.375814,-0.316711 -8.474253,0.07724 -12.711777,0.115459 -4.237522,0.03822 -9.65803,0.256844 -14.48744,0.384868 -4.829413,0.128027 -7.655565,0.684475 -11.483747,1.026316 -3.828179,0.341839 -2.855728,0.272521 -4.283989,0.408387 z" />
            <path
               style="fill:#f7c96f;fill-opacity:1;stroke:#000000;stroke-width:0.264583px;stroke-linecap:butt;stroke-linejoin:miter;stroke-opacity:1"
               d="m 49.733842,90.623077 c 1.132175,1.973899 2.272737,3.942987 3.421645,5.907193 1.292548,2.209778 2.596252,4.41433 3.999396,6.55559 1.345352,2.05306 2.838501,4.10128 4.928717,5.38815 2.111806,1.30016 4.636416,1.70465 7.086068,2.09112 2.011474,0.31734 4.062701,0.6406 6.073772,0.32072 2.506817,-0.39874 4.74176,-1.76046 6.88693,-3.11743 2.045534,-1.29395 4.126593,-2.6555 5.542732,-4.61842 1.419602,-1.96772 2.060103,-4.400129 2.323301,-6.812164 0.254301,-2.330505 0.171018,-4.749903 -0.696989,-6.927628 -0.83295,-2.089773 -2.360792,-3.862146 -4.181943,-5.182891 -1.396217,-1.012572 -3.011332,-1.787657 -4.729578,-1.937168 -2.061069,-0.179342 -4.097976,0.548272 -5.941013,1.488157 -1.594896,0.813342 -3.106791,1.795985 -4.464055,2.963484 -0.980708,0.843591 -1.880977,1.783308 -2.920722,2.552959 -1.1786,0.872436 -2.527687,1.514735 -3.949613,1.873023 -1.756608,0.442619 -3.588322,0.450123 -5.393377,0.602961 -1.58141,0.133902 -3.17729,0.380685 -4.746173,0.141118 -1.158647,-0.176924 -2.275614,-0.621344 -3.239098,-1.288774"
               id="path1723"
               inkscape:path-effect="#path-effect1725"
               inkscape:original-d="m 49.733842,90.623077 c 1.107623,1.947947 2.281359,3.938391 3.421645,5.907193 1.140283,1.968799 2.666529,4.37065 3.999396,6.55559 1.332868,2.18493 3.286075,3.59236 4.928717,5.38815 1.642642,1.79579 4.72431,1.39434 7.086068,2.09112 2.361758,0.69677 4.049448,0.21408 6.073772,0.32072 2.024327,0.10664 4.59155,-2.07802 6.88693,-3.11743 2.295379,-1.03941 3.695419,-3.07868 5.542732,-4.61842 1.847313,-1.53974 1.549133,-4.541179 2.323301,-6.812164 0.774171,-2.270988 -0.464394,-4.618154 -0.696989,-6.927628 -0.232595,-2.309474 -2.787698,-3.454995 -4.181943,-5.182891 -1.394246,-1.727893 -3.152786,-1.29118 -4.729578,-1.937168 -1.57679,-0.645988 -3.960411,0.992367 -5.941013,1.488157 -1.980602,0.495787 -2.975774,1.975919 -4.464055,2.963484 -1.488284,0.987563 -1.946883,1.702237 -2.920722,2.552959 -0.973839,0.85072 -2.63281,1.248947 -3.949613,1.873023 -1.316802,0.624078 -3.595319,0.402238 -5.393377,0.602961 -1.798056,0.200721 -3.163851,0.09434 -4.746173,0.141118 -1.582322,0.04678 -2.159135,-0.858919 -3.239098,-1.288774" />
            <path
               style="fill:#e5a55a;fill-opacity:1;stroke:#000000;stroke-width:0.264583px;stroke-linecap:butt;stroke-linejoin:miter;stroke-opacity:1"
               d="m 51.883563,107.13285 c 0.771895,0.0995 1.55891,0.0566 2.323301,-0.0898 0.464386,-0.0889 0.920981,-0.21565 1.38599,-0.30126 0.465009,-0.0856 0.943939,-0.12963 1.41027,-0.0515 0.436876,0.0732 0.856096,0.25222 1.298645,0.27127 0.221275,0.01 0.448143,-0.0231 0.64512,-0.12436 0.196977,-0.10126 0.361357,-0.27632 0.421253,-0.48955 0.04384,-0.15607 0.03028,-0.32525 -0.02352,-0.47818 -0.0538,-0.15292 -0.146301,-0.2903 -0.25662,-0.40907 -0.22064,-0.23756 -0.507693,-0.40029 -0.773872,-0.5854 -1.314838,-0.91437 -2.130254,-2.38916 -2.696689,-3.88717 -0.505594,-1.337104 -0.856386,-2.74699 -1.584822,-3.976971 -0.73864,-1.247211 -1.828828,-2.24612 -2.671797,-3.425327 -0.518828,-0.725775 -0.942106,-1.517328 -1.47859,-2.230151 -0.536485,-0.712822 -1.212652,-1.360004 -2.056148,-1.650601 -0.925482,-0.318842 -1.935856,-0.176113 -2.912422,-0.109046 -0.857203,0.05887 -1.723842,0.05701 -2.563929,0.237334 -0.62478,0.13411 -1.242773,0.377948 -1.709288,0.814639 -0.556473,0.520898 -0.849314,1.273191 -0.962509,2.02697 -0.122767,0.817522 -0.05415,1.651046 -0.107868,2.475987 -0.06124,0.940397 -0.281476,1.880671 -0.165949,2.815952 0.08555,0.692615 0.353967,1.353282 0.707815,1.954803 0.353848,0.601521 0.792393,1.148531 1.242098,1.682201 0.838959,0.9956 1.734776,1.96372 2.821151,2.68125 1.389297,0.91761 3.019099,1.38123 4.588521,1.93717 1.023364,0.36251 2.043093,0.77208 3.11986,0.91085 z"
               id="path1731"
               inkscape:path-effect="#path-effect1733"
               inkscape:original-d="m 51.883563,107.13285 c 1.039688,0.30335 1.549133,-0.0596 2.323301,-0.0898 0.774168,-0.0302 1.864437,-0.23493 2.79626,-0.3528 0.93182,-0.11786 1.576943,-0.22816 2.365018,-0.34264 0.788074,-0.11448 -0.702411,-0.9815 -1.054013,-1.47265 -0.351602,-0.49115 -1.797529,-2.59118 -2.696689,-3.88717 -0.89916,-1.295987 -1.056285,-2.651048 -1.584822,-3.976971 -0.52854,-1.325922 -1.780935,-2.283285 -2.671797,-3.425327 -0.890866,-1.14204 -2.356229,-2.586903 -3.534738,-3.880752 -1.17851,-1.29385 -1.941351,-0.07243 -2.912422,-0.109046 -0.971074,-0.03661 -1.709024,0.158488 -2.563929,0.237334 -0.854909,0.07885 -1.139259,0.543356 -1.709288,0.814639 -0.570026,0.27128 -0.641408,1.351579 -0.962509,2.02697 -0.321101,0.675394 -0.07165,1.650924 -0.107868,2.475987 -0.03622,0.825063 -0.110368,1.877565 -0.165949,2.815952 -0.05558,0.938385 1.300207,2.424934 1.949913,3.637004 0.649705,1.21207 1.881031,1.78776 2.821151,2.68125 0.94012,0.89348 3.059277,1.29171 4.588521,1.93717 1.529241,0.64546 2.08017,0.6075 3.11986,0.91085 z" />
            <g
               id="g1699"
               style="stroke:#000000;stroke-opacity:1">
              <path
                 style="fill:none;stroke:#000000;stroke-width:3;stroke-linecap:round;stroke-linejoin:miter;stroke-miterlimit:4;stroke-dasharray:none;stroke-opacity:1"
                 d="M 23.713514,142.38837 C 21.250521,126.37402 20.183088,110.14529 20.527272,93.946306 20.84131,79.166141 22.330017,64.41109 24.974734,49.866078"
                 id="path1578"
                 inkscape:path-effect="#path-effect1580"
                 inkscape:original-d="m 23.713514,142.38837 c -1.061816,-16.1813 -2.123897,-32.29444 -3.186242,-48.442064 -1.062345,-16.14762 2.965239,-29.38655 4.447462,-44.080228" />
              <path
                 style="fill:none;stroke:#000000;stroke-width:3;stroke-linecap:round;stroke-linejoin:miter;stroke-miterlimit:4;stroke-dasharray:none;stroke-opacity:1"
                 d="m 104.21573,143.9535 c 2.46299,-16.01434 3.53042,-32.24307 3.18624,-48.442057 -0.31404,-14.780166 -1.80274,-29.535218 -4.44746,-44.080231"
                 id="path1578-7"
                 inkscape:path-effect="#path-effect1603"
                 inkscape:original-d="m 104.21573,143.9535 c 1.06182,-16.1813 2.1239,-32.29444 3.18624,-48.442057 1.06235,-16.14762 -2.96524,-29.38655 -4.44746,-44.080231" />
              <path
                 style="fill:none;stroke:#000000;stroke-width:3;stroke-linecap:round;stroke-linejoin:miter;stroke-miterlimit:4;stroke-dasharray:none;stroke-opacity:1"
                 d="m 24.974734,49.866078 c 12.771322,-1.497486 25.643724,-2.1323 38.500417,-1.898681 13.218751,0.240198 26.420738,1.398505 39.479359,3.463814"
                 id="path1606"
                 inkscape:path-effect="#path-effect1608"
                 inkscape:original-d="m 24.974734,49.866078 c 12.435457,-1.094472 26.021235,-0.803682 38.500417,-1.898681 12.479181,-1.095002 25.96581,1.847633 39.479359,3.463814"
                 sodipodi:nodetypes="csc" />
              <path
                 style="fill:none;stroke:#000000;stroke-width:3;stroke-linecap:round;stroke-linejoin:miter;stroke-miterlimit:4;stroke-dasharray:none;stroke-opacity:1"
                 d="m 23.713514,142.38837 c 12.399837,1.83395 24.908584,2.93126 37.43834,3.28421 14.371454,0.40483 28.770421,-0.16997 43.063876,-1.71908"
                 id="path1606-8"
                 inkscape:path-effect="#path-effect1631"
                 inkscape:original-d="m 23.713514,142.38837 c 12.435457,1.09447 24.95915,2.18921 37.43834,3.28421 12.47918,1.095 29.55033,-0.1029 43.063876,-1.71908"
                 sodipodi:nodetypes="csc" />
              <path
                 style="fill:none;stroke:#000000;stroke-width:3;stroke-linecap:round;stroke-linejoin:miter;stroke-miterlimit:4;stroke-dasharray:none;stroke-opacity:1"
                 d="m 24.974734,49.866078 c -1.873906,-1.777282 -3.29918,-4.023932 -4.108674,-6.476476 -0.261285,-0.791621 -0.460987,-1.620354 -0.402748,-2.451944 0.02912,-0.415795 0.123719,-0.82899 0.299922,-1.206727 0.176204,-0.377738 0.435564,-0.719332 0.766626,-0.972574 0.326278,-0.249583 0.716881,-0.409472 1.120627,-0.485224 0.403746,-0.07575 0.820543,-0.06907 1.226396,-0.0056 0.811705,0.127012 1.570264,0.475333 2.307877,0.837167 1.314729,0.644937 2.653547,1.359755 4.115561,1.443254 1.034987,0.05911 2.07039,-0.208395 3.009282,-0.647911 0.938892,-0.439516 1.789576,-1.046701 2.599832,-1.693368 1.387283,-1.107193 2.726041,-2.370581 4.414271,-2.918584 1.666066,-0.540808 3.557735,-0.295379 5.061476,0.602961 0.901225,0.538395 1.655122,1.286395 2.406147,2.019905 0.751025,0.73351 1.520606,1.468873 2.441091,1.973634 1.663231,0.912056 3.74989,0.972789 5.492949,0.224507 1.688335,-0.72479 2.98784,-2.110447 4.48065,-3.181575 1.089197,-0.781526 2.326739,-1.411475 3.6592,-1.558716 1.725981,-0.190726 3.461378,0.451343 4.895528,1.430425 1.588192,1.084245 2.90903,2.592127 4.678238,3.34568 1.266291,0.539347 2.71735,0.647095 4.040883,0.269409 1.710606,-0.488141 3.093071,-1.714513 4.464058,-2.848025 0.737759,-0.609969 1.49406,-1.205696 2.331668,-1.669122 0.837608,-0.463426 1.765089,-0.79244 2.721511,-0.832521 0.88349,-0.03702 1.767403,0.174569 2.572285,0.540751 0.804883,0.366183 1.534267,0.883584 2.198779,1.466978 1.289513,1.1321 2.388321,2.546253 3.943284,3.271915 0.990873,0.462415 2.11519,0.609434 3.202413,0.492803 1.087224,-0.116631 2.138274,-0.49003 3.095394,-1.01879 0.63504,-0.350828 1.23133,-0.769606 1.87443,-1.105425 0.64311,-0.33582 1.34983,-0.590064 2.07518,-0.575166 0.76741,0.01576 1.51933,0.343495 2.07195,0.876192 0.55263,0.532697 0.90539,1.262257 1.00642,2.023147 0.10381,0.781805 -0.0509,1.581538 -0.33609,2.316842 -0.28517,0.735304 -0.69716,1.414067 -1.12427,2.077069 -1.36891,2.124956 -2.91697,4.134462 -4.62237,6.000203"
                 id="path1648"
                 inkscape:path-effect="#path-effect1650"
                 inkscape:original-d="m 24.974734,49.866078 c -1.39142,-2.145731 -2.738852,-4.317386 -4.108674,-6.476476 -1.369823,-2.159087 0.442798,-3.087232 0.6638,-4.631245 0.221002,-1.544013 3.103531,0.231185 4.6549,0.346382 1.551368,0.115197 2.743972,0.962435 4.115561,1.443254 1.371589,0.480822 3.739674,-1.560589 5.609114,-2.341279 1.86944,-0.780693 2.943111,-1.945457 4.414271,-2.918584 1.47116,-0.973125 3.374583,0.402238 5.061476,0.602961 1.686896,0.200721 3.231756,2.662624 4.847238,3.993539 1.61548,1.330918 3.662231,0.149937 5.492949,0.224507 1.830718,0.07457 2.987365,-2.120786 4.48065,-3.181575 1.493287,-1.060791 2.439731,-1.038881 3.6592,-1.558716 1.219468,-0.519837 3.263951,0.953881 4.895528,1.430425 1.631577,0.476546 3.119088,2.230718 4.678238,3.34568 1.559147,1.114962 2.694186,0.179872 4.040883,0.269409 1.346697,0.08954 2.976303,-1.89842 4.464058,-2.848025 1.487755,-0.949606 3.369051,-1.667497 5.053179,-2.501643 1.684128,-0.834144 3.180974,1.338752 4.771064,2.007729 1.590091,0.668978 2.62912,2.18154 3.943284,3.271915 1.314162,1.090371 4.1988,-0.350393 6.297807,-0.525987 2.099,-0.175593 2.63334,-1.120129 3.94961,-1.680591 1.31627,-0.560461 2.05251,1.933157 3.07837,2.899339 1.02586,0.966181 -0.97331,2.929538 -1.46036,4.393911 -0.48705,1.464374 -3.08132,4.0004 -4.62237,6.000203" />
              <path
                 style="fill:none;stroke:#000000;stroke-width:3;stroke-linecap:round;stroke-linejoin:miter;stroke-miterlimit:4;stroke-dasharray:none;stroke-opacity:1"
                 d="m 23.713514,142.38837 c -1.873906,1.77728 -3.299181,4.02393 -4.108674,6.47648 -0.261284,0.79162 -0.460986,1.62035 -0.402747,2.45194 0.02912,0.4158 0.123719,0.82899 0.299922,1.20673 0.176203,0.37773 0.435564,0.71933 0.766625,0.97257 0.326278,0.24958 0.716881,0.40947 1.120627,0.48522 0.403746,0.0758 0.820543,0.0691 1.226396,0.006 0.811705,-0.12702 1.570263,-0.47534 2.307877,-0.83717 1.314729,-0.64494 2.653548,-1.35975 4.115561,-1.44325 1.034987,-0.0591 2.070389,0.20839 3.009281,0.64791 0.938893,0.43951 1.789577,1.04669 2.599833,1.69336 1.387284,1.10719 2.72604,2.37059 4.414271,2.91859 1.666066,0.54081 3.557735,0.29538 5.061476,-0.60296 0.901225,-0.53839 1.655123,-1.28639 2.406147,-2.0199 0.751025,-0.73352 1.520607,-1.46888 2.441091,-1.97364 1.66323,-0.91206 3.74989,-0.97279 5.492949,-0.22451 1.688336,0.72479 2.987839,2.11045 4.48065,3.18158 1.089197,0.78152 2.326739,1.41147 3.6592,1.55871 1.725981,0.19072 3.461378,-0.45134 4.895528,-1.43042 1.588193,-1.08424 2.90903,-2.59213 4.678238,-3.34568 1.26629,-0.53935 2.717349,-0.64709 4.040883,-0.26941 1.710605,0.48814 3.093074,1.71451 4.464058,2.84802 0.737759,0.60997 1.494059,1.2057 2.331666,1.66913 0.837608,0.46343 1.76509,0.79244 2.721513,0.83252 0.883489,0.037 1.7674,-0.17458 2.57228,-0.54076 0.804881,-0.36619 1.534264,-0.88359 2.198784,-1.46697 1.289527,-1.13208 2.388365,-2.54617 3.943284,-3.27192 0.990868,-0.46248 2.115195,-0.60963 3.202447,-0.49304 1.087251,0.11659 2.138345,0.49004 3.09536,1.01903 0.63499,0.35099 1.23117,0.77001 1.87427,1.10593 0.64309,0.33591 1.34996,0.59009 2.07534,0.57466 0.76709,-0.0163 1.5183,-0.34479 2.07049,-0.8775 0.5522,-0.53271 0.90498,-1.2615 1.00789,-2.02184 0.10584,-0.78202 -0.0456,-1.58291 -0.32976,-2.31911 -0.28421,-0.73619 -0.69746,-1.41515 -1.13061,-2.0748 -0.65091,-0.99129 -1.35209,-1.94957 -2.09993,-2.86994"
                 id="path1648-6"
                 inkscape:path-effect="#path-effect1673"
                 inkscape:original-d="m 23.713514,142.38837 c -1.39142,2.14573 -2.738852,4.31739 -4.108674,6.47648 -1.369823,2.15908 0.442798,3.08723 0.6638,4.63124 0.221002,1.54401 3.103531,-0.23118 4.6549,-0.34638 1.551368,-0.1152 2.743972,-0.96244 4.115561,-1.44325 1.371589,-0.48083 3.739674,1.56058 5.609114,2.34127 1.86944,0.7807 2.943111,1.94546 4.414271,2.91859 1.47116,0.97312 3.374583,-0.40224 5.061476,-0.60296 1.686896,-0.20072 3.231756,-2.66263 4.847238,-3.99354 1.61548,-1.33092 3.662231,-0.14994 5.492949,-0.22451 1.830718,-0.0746 2.987365,2.12079 4.48065,3.18158 1.493287,1.06079 2.439731,1.03888 3.6592,1.55871 1.219468,0.51984 3.263951,-0.95388 4.895528,-1.43042 1.631577,-0.47655 3.119088,-2.23072 4.678238,-3.34568 1.559147,-1.11496 2.694186,-0.17987 4.040883,-0.26941 1.346697,-0.0895 2.976303,1.89842 4.464058,2.84802 1.487755,0.94961 3.369051,1.6675 5.053179,2.50165 1.684128,0.83414 3.180974,-1.33876 4.771064,-2.00773 1.590091,-0.66898 2.62912,-2.18154 3.943284,-3.27192 1.314162,-1.09037 4.1988,0.3504 6.297807,0.52599 2.099,0.17559 2.63334,1.12013 3.94961,1.68059 1.31627,0.56046 2.05251,-1.93316 3.07838,-2.89934 1.02586,-0.96618 -0.97332,-2.92954 -1.46037,-4.39391 -0.48705,-1.46437 -0.55888,-0.87014 -2.09993,-2.86994"
                 sodipodi:nodetypes="cssssssssssssscssssssssc" />
              <ellipse
                 style="fill:none;stroke:#000000;stroke-width:3;stroke-linecap:round;stroke-linejoin:round;stroke-miterlimit:4;stroke-dasharray:none;stroke-opacity:1;paint-order:stroke fill markers"
                 id="path1676"
                 cx="64.12767"
                 cy="96.760124"
                 rx="33"
                 ry="30" />
              <path
                 style="fill:none;stroke:#000000;stroke-width:3;stroke-linecap:round;stroke-linejoin:miter;stroke-miterlimit:4;stroke-dasharray:none;stroke-opacity:1"
                 d="m 49.225361,90.5894 c 1.746813,2.73385 3.461785,5.488045 5.144452,8.261837 1.712005,2.822153 3.423941,5.706453 5.841442,7.953943 2.516211,2.33926 5.756263,3.89818 9.160446,4.36184 3.861243,0.52592 7.854102,-0.35795 11.284604,-2.20658 2.601447,-1.40187 4.925439,-3.37391 6.538433,-5.85 1.753235,-2.69137 2.620041,-5.922141 2.622013,-9.134198 0.0018,-2.875859 -0.703716,-5.80572 -2.356493,-8.159205 -1.509919,-2.150061 -3.862544,-3.774504 -6.472052,-4.079603 -2.42867,-0.283956 -4.870107,0.568743 -6.969903,1.82171 -1.636162,0.976312 -3.116368,2.194371 -4.513842,3.48947 -1.430219,1.325445 -2.805352,2.754845 -4.513842,3.694734 -1.489397,0.81936 -3.182134,1.231603 -4.878932,1.334209 -1.517711,0.09178 -3.039647,-0.05745 -4.547034,-0.256577 -0.978809,-0.129303 -1.955491,-0.279846 -2.920719,-0.4875 -0.538521,-0.115854 -1.073056,-0.249394 -1.607384,-0.383265 -0.434295,-0.108809 -0.868532,-0.217855 -1.302708,-0.327138"
                 id="path1682"
                 inkscape:path-effect="#path-effect1684"
                 inkscape:original-d="m 49.225361,90.5894 c -0.16976,-0.01148 3.429899,5.508157 5.144452,8.261837 1.714553,2.753683 3.894561,5.302893 5.841442,7.953943 1.946883,2.65105 6.107229,2.90816 9.160446,4.36184 3.053215,1.45368 7.523335,-1.47079 11.284604,-2.20658 3.761271,-0.73579 4.359222,-3.89973 6.538433,-5.85 2.179214,-1.95026 1.748272,-6.089199 2.622013,-9.134198 0.873739,-3.045 -1.570731,-5.439206 -2.356493,-8.159205 -0.785762,-2.719999 -4.314436,-2.71947 -6.472052,-4.079603 -2.157616,-1.36013 -4.646337,1.21474 -6.969903,1.82171 -2.323565,0.606972 -3.008963,2.326579 -4.513842,3.48947 -1.504878,1.162894 -3.008963,2.463422 -4.513842,3.694734 -1.504878,1.231316 -3.252358,0.889738 -4.878932,1.334209 -1.626576,0.444474 -3.031091,-0.170786 -4.547034,-0.256577 -1.515941,-0.08579 -1.946884,-0.324736 -2.920719,-0.4875 -0.973839,-0.162763 -1.071325,-0.255246 -1.607384,-0.383265 -0.536059,-0.128018 -0.868209,-0.217826 -1.302708,-0.327138" />
              <path
                 style="fill:none;stroke:#000000;stroke-width:3;stroke-linecap:butt;stroke-linejoin:miter;stroke-miterlimit:4;stroke-dasharray:none;stroke-opacity:1"
                 d="M 49.733842,90.623077 C 48.3085,89.43811 46.41348,88.834658 44.565395,88.977231 c -1.648332,0.127163 -3.277842,0.867592 -4.314701,2.155261 -0.610663,0.758379 -1.001731,1.680513 -1.195926,2.634629 -0.194196,0.954116 -0.196567,1.940573 -0.08189,2.907474 0.290096,2.445945 1.360104,4.819375 3.119861,6.542755 1.742539,1.70652 4.067774,2.71272 6.438863,3.28421 3.54904,0.85541 7.313232,0.80193 10.83654,-0.15395"
                 id="path1686"
                 inkscape:path-effect="#path-effect1688"
                 inkscape:original-d="m 49.733842,90.623077 c -1.722551,-0.548352 -3.445367,-1.096965 -5.168447,-1.645846 -1.723081,-0.548878 -2.876204,1.437105 -4.314701,2.155261 -1.4385,0.718156 -1.117134,3.647962 -1.277816,5.542103 -0.160684,1.894141 2.345693,4.409145 3.119861,6.542755 0.774168,2.13362 4.292841,2.18974 6.438863,3.28421 2.146022,1.09447 7.224625,-0.10237 10.83654,-0.15395"
                 sodipodi:nodetypes="csssssc" />
            </g>
          </g>
          <path
             style="fill:none;stroke:#000000;stroke-width:5;stroke-linecap:round;stroke-linejoin:miter;stroke-miterlimit:4;stroke-dasharray:none;stroke-opacity:0.25098"
             d="m 181.1345,-1.3495256 c -1.59357,2.2356261 -2.97837,4.62 -4.13052,7.1119999 -0.98085,2.1214978 -1.79863,4.3422917 -2.1122,6.6584287 -0.41267,3.048147 0.0598,6.138388 0.51631,9.180286 0.79682,5.310122 1.54732,10.628801 2.09619,15.970249 0.93895,9.137519 1.28639,18.33164 1.18084,27.516667 -0.0923,8.030517 -0.53231,16.073773 -1.80711,24.002999 -0.68665,4.270987 -1.61824,8.576164 -1.19688,12.881426 0.31434,3.21179 1.39286,6.34623 3.12137,9.07143"
             id="path971"
             inkscape:path-effect="#path-effect973"
             inkscape:original-d="m 181.1345,-1.3495256 c -1.66602,1.91131243 -2.4405,5.2072645 -4.13052,7.1119999 -1.69003,1.9047354 -1.32182,4.1670746 -2.1122,6.6584287 -0.79039,2.491355 -0.45347,5.636645 0.51631,9.180286 0.96978,3.543639 1.85928,11.306288 2.09619,15.970249 0.23691,4.663961 0.86572,21.828138 1.18084,27.516667 0.31511,5.688528 -1.23577,12.428121 -1.80711,24.002999 -0.57134,11.574876 -0.29699,9.138219 -1.19688,12.881426 -0.8999,3.74321 1.90125,6.07813 3.12137,9.07143"
             sodipodi:nodetypes="csssssssc" />
          <path
             style="fill:none;stroke:#000000;stroke-width:5;stroke-linecap:round;stroke-linejoin:miter;stroke-miterlimit:4;stroke-dasharray:none;stroke-opacity:0.25098"
             d="m 126.65476,52.082302 c 1.05869,0.836495 2.29409,1.448246 3.60112,1.783223 2.55185,0.654007 5.26686,0.241183 7.78306,-0.538816 1.90701,-0.591156 3.75656,-1.394623 5.42656,-2.488814 1.84822,-1.210965 3.4497,-2.757983 5.21084,-4.092429 1.54949,-1.174076 3.25151,-2.19536 5.13021,-2.69521 1.105,-0.293997 2.26021,-0.402667 3.39962,-0.306763 0.86242,0.07259 1.71493,0.261972 2.52696,0.561359"
             id="path945"
             inkscape:path-effect="#path-effect947"
             inkscape:original-d="m 126.65476,52.082302 c 1.16745,0.577567 2.40101,1.18908 3.60112,1.783223 1.20011,0.594143 5.18897,-0.358947 7.78306,-0.538816 2.59408,-0.179869 3.61797,-1.658943 5.42656,-2.488814 1.80859,-0.829868 3.47416,-2.728023 5.21084,-4.092429 1.73668,-1.364409 3.49863,-1.578829 5.13021,-2.69521 1.63158,-1.116383 2.18845,-0.421958 3.39962,-0.306763 1.21117,0.115197 1.61449,0.356363 2.52696,0.561359"
             sodipodi:nodetypes="cssssssc" />
          <path
             style="fill:none;stroke:#000000;stroke-width:5;stroke-linecap:round;stroke-linejoin:miter;stroke-miterlimit:4;stroke-dasharray:none;stroke-opacity:0.25098"
             d="m 119.26037,79.237702 c 4.32678,1.975271 8.97929,3.234825 13.71162,3.712082 4.89273,0.493434 9.88839,0.146231 14.61188,-1.221575 3.85208,-1.115466 7.51499,-2.910983 10.69994,-5.347963 3.15826,-2.416561 5.82714,-5.446671 7.96567,-8.79944 2.02125,-3.168893 3.57798,-6.633545 4.60511,-10.249114"
             id="path949"
             inkscape:path-effect="#path-effect951"
             inkscape:original-d="m 119.26037,79.237702 c 3.94304,1.596835 9.95174,1.631888 13.71162,3.712082 8.79841,4.867817 11.34983,-4.792825 14.61188,-1.221575 5.33864,5.844687 7.30504,-3.78741 10.69994,-5.347963 3.3949,-1.560552 5.32178,-5.6907 7.96567,-8.79944 2.6439,-3.10874 3.00949,-7.140371 4.60511,-10.249114"
             sodipodi:nodetypes="cssssc" />
        </g>
      </g>
      <g
         id="g969"
         transform="translate(6.334245,0.20156142)">
        <g
           id="g1564"
           transform="translate(-13.998163,-3.5485761)">
          <path
             style="fill:#eaac98;fill-opacity:1;stroke:none;stroke-width:0.264583px;stroke-linecap:butt;stroke-linejoin:miter;stroke-opacity:1"
             d="m 172.80267,94.389218 c -0.36883,2.738141 -0.41474,5.51964 -0.13647,8.268462 0.20111,1.98661 0.57143,3.95714 1.12857,5.8746 0.73783,2.53929 1.80987,4.99397 3.30672,7.17384 1.77345,2.58268 4.14335,4.76045 6.89245,6.26304 3.32778,1.81888 7.12937,2.6212 10.91151,2.90031 4.15158,0.30637 8.32031,0.01 12.47935,-0.16876 4.07165,-0.17466 8.15118,-0.23576 12.22185,-0.0397 2.75132,0.13251 5.50672,0.38244 8.25573,0.20847 2.96303,-0.18751 5.89746,-0.87243 8.62123,-2.05386 2.63042,-1.14094 5.06153,-2.74503 7.12813,-4.73249 2.47432,-2.37957 4.44259,-5.36389 5.24255,-8.70225 0.58693,-2.44936 0.53406,-4.99945 0.53191,-7.51815 -0.002,-2.518696 0.0572,-5.08346 0.85191,-7.473502 0.0231,-0.06937 0.047,-0.14026 0.0457,-0.213357 -6.4e-4,-0.03655 -0.008,-0.0733 -0.0238,-0.106148 -0.016,-0.03285 -0.0412,-0.06165 -0.0733,-0.07925 -0.0313,-0.0172 -0.0681,-0.02317 -0.10367,-0.02017 -0.0356,0.003 -0.0701,0.01466 -0.10192,0.0308 -0.0637,0.03229 -0.11673,0.08178 -0.17428,0.124092 -0.14123,0.103843 -0.31048,0.164437 -0.48247,0.198309 -0.17199,0.03387 -0.34785,0.04223 -0.52297,0.05012 -1.12978,0.05088 -2.26025,0.08579 -3.39097,0.107357 -3.34077,0.06373 -6.68257,0.01107 -10.02347,-0.04556 -3.28488,-0.05568 -6.56975,-0.115181 -9.85496,-0.146058 -5.05444,-0.04751 -10.10938,-0.02724 -15.16365,0.03628 -5.82954,0.07327 -11.65937,0.204078 -17.48895,0.134144 -3.1307,-0.03756 -6.26049,-0.133005 -9.39119,-0.170157 -3.56201,-0.04227 -7.12492,-0.0091 -10.68553,0.0996"
             id="path1502"
             inkscape:path-effect="#path-effect1504"
             inkscape:original-d="m 172.80267,94.389218 c -0.0452,2.756422 -0.0907,5.512576 -0.13647,8.268462 -0.0457,2.75589 0.75265,3.91667 1.12857,5.8746 0.37593,1.95794 2.20474,4.78283 3.30672,7.17384 1.10198,2.39102 4.59523,4.17563 6.89245,6.26304 2.29722,2.08742 7.27461,1.93381 10.91151,2.90031 3.63691,0.96651 8.31983,-0.11224 12.47935,-0.16876 4.15952,-0.0565 8.14817,-0.0262 12.22185,-0.0397 4.07369,-0.0135 5.50408,0.13925 8.25573,0.20847 2.75165,0.0692 5.74775,-1.36897 8.62123,-2.05386 2.87348,-0.68488 4.75236,-3.15473 7.12813,-4.73249 2.37579,-1.57776 3.4953,-5.80123 5.24255,-8.70225 1.74725,-2.90101 0.92281,-9.99417 1.38382,-14.991652 0.46101,-4.997479 -0.034,-0.265572 -0.0514,-0.398756 -0.0174,-0.133183 -0.25298,0.09008 -0.37987,0.134718 -0.12688,0.04464 -0.67003,0.165883 -1.00544,0.248428 -0.33541,0.08254 -2.26039,0.07183 -3.39097,0.107357 -1.13059,0.03552 -6.68205,-0.03011 -10.02347,-0.04556 -3.34142,-0.01545 -6.56971,-0.09711 -9.85496,-0.146058 -3.28525,-0.04895 -10.10883,0.02445 -15.16365,0.03628 -5.05481,0.01183 -11.65903,0.08969 -17.48895,0.134144 -5.82991,0.04445 -6.26052,-0.113173 -9.39119,-0.170157 -3.13065,-0.05698 -7.12342,0.06667 -10.68553,0.0996" />
          <path
             style="fill:#c95757;fill-opacity:1;stroke:#000000;stroke-width:0.264583px;stroke-linecap:butt;stroke-linejoin:miter;stroke-opacity:1"
             d="m 172.6662,86.968992 c 3.50931,0.05054 7.01901,0.07331 10.52868,0.06831 8.60223,-0.01226 17.20447,-0.191373 25.80618,-0.09591 7.85208,0.08714 15.70382,0.403073 23.55492,0.25137 4.56145,-0.08814 9.11924,-0.334095 13.68128,-0.382648 0.65594,-0.007 1.31825,-0.0093 1.95922,0.130265 0.26921,0.0586 0.54158,0.142542 0.81483,0.107299 0.18728,-0.02415 0.36275,-0.103213 0.54651,-0.14667 0.0919,-0.02173 0.18672,-0.03455 0.28079,-0.02658 0.0941,0.008 0.1877,0.03766 0.26303,0.09457 0.0933,0.07046 0.15342,0.179515 0.17662,0.294077 0.0232,0.114561 0.0115,0.234274 -0.0203,0.346769 -0.0635,0.224992 -0.20274,0.419512 -0.31009,0.62718 -0.28903,0.559114 -0.34395,1.218684 -0.24511,1.840279 0.0988,0.621594 0.34293,1.211195 0.62636,1.77317 0.21671,0.429685 0.46214,0.861613 0.51302,1.340155 0.0255,0.239271 -7.4e-4,0.487303 -0.10098,0.706049 -0.10024,0.218745 -0.2786,0.40581 -0.50304,0.492547 -0.18988,0.07338 -0.40134,0.07268 -0.60212,0.03907 -0.20077,-0.03361 -0.39471,-0.09861 -0.59129,-0.151481 -0.8272,-0.222484 -1.69864,-0.2291 -2.55179,-0.15223 -0.85314,0.07687 -1.69675,0.235324 -2.5471,0.338605 -3.0028,0.364712 -6.03977,0.03789 -9.06234,-0.08 -4.30281,-0.167824 -8.61061,0.08916 -12.91658,0.05815 -1.19276,-0.0086 -2.38524,-0.03928 -3.57774,-0.0656 -6.70587,-0.148015 -13.41391,-0.157948 -20.1212,-0.211066 -7.25801,-0.05748 -14.51938,-0.165485 -21.77225,0.113588 -0.5831,0.02244 -1.17202,0.04827 -1.73464,0.203071 -0.33918,0.09332 -0.66894,0.233463 -1.01918,0.266395 -0.17511,0.01647 -0.35471,0.0051 -0.52117,-0.05169 -0.16647,-0.0568 -0.31931,-0.161215 -0.41803,-0.306791 -0.12846,-0.189434 -0.15596,-0.431692 -0.13302,-0.659421 0.0229,-0.227729 0.0917,-0.447933 0.14102,-0.671447 0.19154,-0.868788 0.0862,-1.771383 0.009,-2.657678 -0.0994,-1.141058 -0.15069,-2.286309 -0.15365,-3.431686 z"
             id="path1510"
             inkscape:path-effect="#path-effect1512"
             inkscape:original-d="m 172.6662,86.968992 c -0.0515,-1.144159 7.01938,0.04581 10.52868,0.06831 3.50929,0.02252 17.20439,-0.06368 25.80618,-0.09591 8.6018,-0.03224 15.70355,0.167844 23.55492,0.25137 7.85137,0.08352 9.12112,-0.254836 13.68128,-0.382648 4.56016,-0.127815 1.30641,0.08711 1.95922,0.130265 0.6528,0.04316 0.54348,0.0718 0.81483,0.107299 0.27134,0.0355 0.72715,-0.05219 1.09033,-0.07868 0.36318,-0.02649 -0.10223,0.845616 -0.15375,1.268026 -0.0515,0.422413 0.25443,2.40923 0.38125,3.613449 0.12681,1.204217 -0.0604,1.692767 -0.091,2.538751 -0.0306,0.845987 -0.79535,-0.07468 -1.19341,-0.11241 -0.39807,-0.03773 -3.399,0.124515 -5.09889,0.186375 -1.69989,0.06186 -6.04129,-0.05307 -9.06234,-0.08 -3.02104,-0.02693 -8.61079,0.03903 -12.91658,0.05815 -4.30579,0.01913 -2.3849,-0.04347 -3.57774,-0.0656 -1.19285,-0.02212 -13.41387,-0.140446 -20.1212,-0.211066 -6.70734,-0.07062 -14.51457,0.07599 -21.77225,0.113588 -7.25768,0.0376 -1.15616,0.135644 -1.73464,0.203071 -0.57848,0.06743 -1.30532,-0.06113 -1.95838,-0.09209 -0.65306,-0.03096 0.005,-0.886979 0.008,-1.330868 0.002,-0.443886 0.007,-1.77152 0.009,-2.657678 0.003,-0.886159 -0.10217,-2.287527 -0.15365,-3.431686 z" />
          <path
             style="fill:#f7c96f;fill-opacity:1;stroke:#000000;stroke-width:0.264583px;stroke-linecap:butt;stroke-linejoin:miter;stroke-opacity:1"
             d="m 177.30641,85.92434 c -1.34415,-1.187304 -2.30691,-2.799912 -2.71433,-4.546465 -0.29979,-1.285184 -0.30341,-2.626666 -0.13599,-3.93569 0.13804,-1.079336 0.39031,-2.140357 0.58431,-3.211052 0.0999,-0.551181 0.18457,-1.106251 0.33093,-1.646945 0.14637,-0.540695 0.35734,-1.070604 0.68805,-1.522716 0.533,-0.728663 1.34331,-1.209785 2.1833,-1.540637 0.94723,-0.373093 1.95091,-0.578104 2.95041,-0.771607 0.9714,-0.188063 1.95986,-0.367709 2.94489,-0.274407 0.93096,0.08818 1.82085,0.41684 2.68736,0.768429 0.82634,0.33529 1.65076,0.698563 2.37013,1.225601 0.80148,0.587198 1.45429,1.368703 1.92367,2.244405 0.47698,0.889883 0.7652,1.869046 0.98042,2.855494 0.19315,0.885271 0.3302,1.783663 0.38635,2.688018 0.0461,0.741724 0.0378,1.487918 0.13609,2.224543 0.12881,0.965428 0.43886,1.898817 0.81825,2.795871 0.29125,0.688664 0.63989,1.380287 1.21103,1.862865 0.24382,0.20601 0.52514,0.371031 0.73411,0.61231 0.10449,0.120639 0.18972,0.260637 0.23041,0.414963 0.0407,0.154326 0.0343,0.32383 -0.0352,0.467509 -0.0667,0.137929 -0.18832,0.245387 -0.32747,0.309502 -0.13915,0.06412 -0.29494,0.08693 -0.44807,0.082 -0.30626,-0.0099 -0.59732,-0.126085 -0.89128,-0.212579 -0.97108,-0.285729 -2.00347,-0.251333 -3.01511,-0.216316 -1.73078,0.05991 -3.46252,0.114454 -5.19414,0.08854 -2.81322,-0.0421 -5.62323,-0.296944 -8.39812,-0.761638"
             id="path1514"
             inkscape:path-effect="#path-effect1516"
             inkscape:original-d="m 177.30641,85.92434 c -0.90451,-1.515223 -1.80929,-3.030712 -2.71433,-4.546465 -0.90503,-1.515752 -0.0904,-2.623528 -0.13599,-3.93569 -0.0456,-1.312161 0.3898,-2.140437 0.58431,-3.211052 0.19451,-1.070615 0.67959,-2.112843 1.01898,-3.169661 0.3394,-1.056817 1.4558,-1.026826 2.1833,-1.540637 0.7275,-0.513812 1.96721,-0.514141 2.95041,-0.771607 0.98321,-0.257466 1.96353,-0.182673 2.94489,-0.274407 0.98137,-0.09174 1.79184,0.512551 2.68736,0.768429 0.89553,0.255879 1.58035,0.817333 2.37013,1.225601 0.78977,0.40827 1.28271,1.496533 1.92367,2.244405 0.64097,0.747871 0.65388,1.903928 0.98042,2.855494 0.32654,0.951569 0.25783,1.792277 0.38635,2.688018 0.12851,0.895739 0.091,1.483292 0.13609,2.224543 0.0451,0.741249 0.54576,1.864177 0.81825,2.795871 0.27248,0.931693 0.80762,1.242173 1.21103,1.862865 0.40341,0.620688 0.61981,0.996786 0.92932,1.494782 0.30951,0.497996 -1.11095,0.119546 -1.66682,0.178922 -0.55587,0.05938 -2.00981,-0.143947 -3.01511,-0.216316 -1.00531,-0.07237 -3.4625,0.05929 -5.19414,0.08854 -1.73164,0.02925 -5.59848,-0.507495 -8.39812,-0.761638" />
          <path
             style="fill:#e5a55a;fill-opacity:1;stroke:#000000;stroke-width:0.264583px;stroke-linecap:butt;stroke-linejoin:miter;stroke-opacity:1"
             d="m 197.5126,86.988518 c -0.99104,-0.482764 -1.90379,-1.125821 -2.69195,-1.896559 -0.54586,-0.533793 -1.0355,-1.133647 -1.3804,-1.814777 -0.77006,-1.520753 -0.75746,-3.352948 -0.25621,-4.982189 0.25526,-0.829673 0.643,-1.639148 1.26412,-2.245548 0.75437,-0.736493 1.78111,-1.111258 2.77826,-1.453589 0.95434,-0.327634 1.92462,-0.646826 2.93093,-0.720635 1.14228,-0.08378 2.30589,0.159259 3.32203,0.687731 1.20617,0.627303 2.19649,1.654843 2.79665,2.874748 0.47362,0.962694 0.71547,2.045741 1.33891,2.918908 0.74167,1.03875 1.93038,1.652943 3.09745,2.169694 1.94482,0.861122 3.97923,1.564753 6.09046,1.822693 1.49119,0.182186 2.99946,0.139861 4.50141,0.108514 2.12541,-0.04436 4.28558,-0.07133 6.3171,-0.697635 1.96557,-0.605975 3.74486,-1.765538 5.16311,-3.255243 1.52631,-1.603209 2.62569,-3.554315 3.76983,-5.449268 0.74213,-1.229127 1.5548,-2.488587 2.78847,-3.223128 1.19417,-0.71102 2.67324,-0.842418 4.03598,-0.569415 1.15314,0.231013 2.24773,0.738482 3.18109,1.453989 0.9475,0.726348 1.73138,1.669541 2.24919,2.745277 0.50506,1.049241 0.75426,2.22299 0.7002,3.386203 -0.0669,1.440121 -0.58546,2.816553 -0.86052,4.231746 -0.0908,0.467355 -0.15539,0.940595 -0.27946,1.400246 -0.12407,0.459652 -0.31198,0.910867 -0.6205,1.27348 -0.25283,0.297156 -0.58044,0.526266 -0.93612,0.686631 -0.35568,0.160365 -0.73921,0.253565 -1.12641,0.301484 -0.77441,0.09584 -1.55801,0.013 -2.33725,-0.02786 -1.91947,-0.100648 -3.84171,0.05443 -5.76219,0.133419 -3.02179,0.124286 -6.04766,0.06014 -9.07197,0.04545 -7.03501,-0.03417 -14.06878,0.199432 -21.10386,0.215855 -3.2998,0.0077 -6.59971,-0.03238 -9.89835,-0.120227 z"
             id="path1518"
             inkscape:path-effect="#path-effect1520"
             inkscape:original-d="m 197.5126,86.988518 c -3.29972,-0.04034 -1.79436,-1.26411 -2.69195,-1.896559 -0.89757,-0.632452 -0.92,-1.209588 -1.3804,-1.814777 -0.4604,-0.60519 -0.17054,-3.321196 -0.25621,-4.982189 -0.0857,-1.660993 0.84301,-1.496767 1.26412,-2.245548 0.42111,-0.748781 1.85244,-0.968796 2.77826,-1.453589 0.92583,-0.484796 1.95422,-0.480158 2.93093,-0.720635 0.97671,-0.240475 2.21495,0.458753 3.32203,0.687731 1.10708,0.228981 1.8647,1.916764 2.79665,2.874748 0.93195,0.957985 0.89287,1.946204 1.33891,2.918908 0.44603,0.972703 2.06523,1.446725 3.09745,2.169694 1.03223,0.722966 4.06057,1.215393 6.09046,1.822693 2.02988,0.607299 3.00121,0.07261 4.50141,0.108514 1.50021,0.03591 4.21167,-0.464825 6.3171,-0.697635 2.10544,-0.232809 3.44234,-2.169898 5.16311,-3.255243 1.72077,-1.085347 2.51349,-3.632581 3.76983,-5.449268 1.25635,-1.816687 1.85924,-2.148485 2.78847,-3.223128 0.92922,-1.074639 2.69092,-0.379343 4.03598,-0.569415 1.34507,-0.190068 2.12099,0.969592 3.18109,1.453989 1.0601,0.484399 1.49972,1.830451 2.24919,2.745277 0.74946,0.914828 0.46706,2.257734 0.7002,3.386203 0.23313,1.12847 -0.57342,2.82143 -0.86052,4.231746 -0.2871,1.410319 -0.59971,1.782749 -0.89996,2.673726 -0.30025,0.890976 -2.93292,0.640434 -4.39978,0.960255 -1.46686,0.31982 -3.8412,0.08921 -5.76219,0.133419 -1.921,0.04421 -6.04772,0.03057 -9.07197,0.04545 -3.02425,0.0149 -14.06898,0.144169 -21.10386,0.215855 -7.03489,0.07169 -6.59864,-0.07989 -9.89835,-0.120227 z" />
          <path
             style="fill:#f7c96f;fill-opacity:1;stroke:#000000;stroke-width:0.264583px;stroke-linecap:butt;stroke-linejoin:miter;stroke-opacity:1"
             d="m 207.68663,77.832962 c 0.0186,0.81973 0.30802,1.631061 0.81239,2.277528 0.65178,0.835408 1.61346,1.362452 2.562,1.834676 1.33398,0.664113 2.69989,1.266892 4.10465,1.764067 1.16013,0.410593 2.35232,0.750084 3.57521,0.887984 1.90485,0.214802 3.83089,-0.06438 5.70894,-0.44845 1.47848,-0.302353 2.94647,-0.670979 4.36446,-1.187339 1.44709,-0.526959 2.85527,-1.218112 4.01659,-2.229591 1.52961,-1.33225 2.5489,-3.14128 3.52622,-4.918765 0.39558,-0.71946 0.79093,-1.44369 1.06709,-2.216898 0.27615,-0.773209 0.43029,-1.603821 0.32763,-2.41842 -0.13817,-1.096391 -0.72256,-2.075892 -1.20506,-3.070055 -0.31099,-0.640785 -0.58396,-1.300553 -0.92633,-1.925137 -0.34236,-0.624584 -0.76043,-1.219394 -1.31343,-1.668299 -0.53734,-0.436194 -1.18749,-0.72101 -1.86078,-0.881223 -0.6733,-0.160214 -1.37072,-0.199438 -2.06251,-0.178817 -1.42076,0.04235 -2.85818,0.346237 -4.07943,1.073502 -1.27134,0.757096 -2.24365,1.930092 -3.05272,3.169002 -0.65093,0.996749 -1.21799,2.056715 -2.00035,2.954001 -1.1314,1.297589 -2.64853,2.184055 -4.1206,3.076699 -1.56287,0.947706 -3.11193,1.930994 -4.77836,2.681822 -1.48647,0.669748 -3.05846,1.149439 -4.66561,1.423713"
             id="path1522"
             inkscape:path-effect="#path-effect1524"
             inkscape:original-d="m 207.68663,77.832962 c 0.26484,0.752059 0.54186,1.518615 0.81239,2.277528 0.27053,0.758909 1.70826,1.223383 2.562,1.834676 0.85374,0.611296 2.7367,1.176311 4.10465,1.764067 1.36795,0.587759 2.38374,0.592254 3.57521,0.887984 1.19147,0.295733 3.80622,-0.298701 5.70894,-0.44845 1.90271,-0.149749 2.9099,-0.791295 4.36446,-1.187339 1.45456,-0.396042 2.67799,-1.48613 4.01659,-2.229591 1.3386,-0.743461 2.35108,-3.278912 3.52622,-4.918765 1.17514,-1.639854 0.93008,-3.089947 1.39472,-4.635318 0.46464,-1.54537 -0.80311,-2.046438 -1.20506,-3.070055 -0.40195,-1.023618 -1.49291,-2.395361 -2.23976,-3.593436 -0.74686,-1.198076 -2.61526,-0.70643 -3.92329,-1.06004 -1.30803,-0.353613 -2.71935,0.715931 -4.07943,1.073502 -1.36007,0.357568 -2.03488,2.11293 -3.05272,3.169002 -1.01784,1.056068 -1.33331,1.969598 -2.00035,2.954001 -0.66705,0.984403 -2.74681,2.051397 -4.1206,3.076699 -1.3738,1.0253 -3.18531,1.788147 -4.77836,2.681822 -1.59306,0.893675 -3.11015,0.949407 -4.66561,1.423713" />
          <path
             style="fill:#e5a55a;fill-opacity:1;stroke:#000000;stroke-width:0.264583px;stroke-linecap:butt;stroke-linejoin:miter;stroke-opacity:1"
             d="m 205.18051,75.239378 c -0.0801,-0.503311 -0.0278,-1.023635 0.12193,-1.510804 0.14969,-0.48717 0.39492,-0.942044 0.69502,-1.353969 0.67217,-0.922645 1.6464,-1.642346 2.755,-1.914544 1.06824,-0.262289 2.19169,-0.105951 3.27179,0.102166 1.27391,0.245461 2.54627,0.562627 3.8436,0.569212 0.63669,0.0032 1.28893,-0.06683 1.89839,0.117376 0.30474,0.0921 0.59453,0.250226 0.80913,0.485375 0.21459,0.23515 0.3483,0.551747 0.32918,0.86952 -0.012,0.199256 -0.0828,0.39279 -0.18997,0.56116 -0.10723,0.168371 -0.25008,0.312335 -0.40897,0.433167 -0.31778,0.241663 -0.69462,0.390125 -1.0618,0.546858 -1.6976,0.724632 -3.28433,1.68077 -4.9094,2.556049 -0.71837,0.386923 -1.45019,0.760546 -2.23177,0.994849 -0.78158,0.234303 -1.62181,0.32428 -2.41601,0.137169 -0.62057,-0.146205 -1.20242,-0.463083 -1.64961,-0.917514 -0.44718,-0.454432 -0.75629,-1.046436 -0.85651,-1.67607 z"
             id="path1526"
             inkscape:path-effect="#path-effect1528"
             inkscape:original-d="m 205.18051,75.239378 c -0.83564,-0.86479 0.5449,-1.909585 0.81695,-2.864773 0.27205,-0.955191 1.83693,-1.276099 2.755,-1.914544 0.91808,-0.638445 2.18146,0.06838 3.27179,0.102166 1.09032,0.03379 2.56267,0.379738 3.8436,0.569212 1.28094,0.189473 2.02473,0.981779 3.0367,1.472271 1.01196,0.490495 -1.1069,1.027721 -1.66074,1.541185 -0.55385,0.513461 -3.27267,1.704297 -4.9094,2.556049 -1.63673,0.851755 -3.09826,0.754944 -4.64778,1.132018 -1.54953,0.377073 -1.67048,-1.728791 -2.50612,-2.593584 z" />
          <path
             style="fill:#f7c96f;fill-opacity:1;stroke:#000000;stroke-width:0.264583px;stroke-linecap:butt;stroke-linejoin:miter;stroke-opacity:1"
             d="m 188.94091,68.90325 c -0.0238,0.275012 0.0393,0.55348 0.15543,0.803882 0.11617,0.250401 0.28399,0.474205 0.47272,0.675641 0.37747,0.402873 0.83811,0.719322 1.22761,1.110571 0.64488,0.647767 1.084,1.509343 1.17445,2.418895 0.0364,0.366108 0.0179,0.73927 0.1,1.097911 0.041,0.179321 0.10786,0.354481 0.21299,0.505435 0.10514,0.150953 0.25032,0.276915 0.42213,0.342659 0.15948,0.06103 0.3367,0.0683 0.50442,0.03622 0.16771,-0.03208 0.3265,-0.102211 0.47244,-0.190859 0.29189,-0.177296 0.53245,-0.426111 0.80083,-0.637305 0.54972,-0.432592 1.21589,-0.704218 1.90246,-0.838206 0.68658,-0.133988 1.39424,-0.134229 2.08989,-0.06076 1.04459,0.110317 2.07496,0.385363 3.12532,0.376237 0.52518,-0.0046 1.05454,-0.08219 1.5408,-0.280649 0.48626,-0.198459 0.9284,-0.52304 1.22056,-0.959474 0.32722,-0.488796 0.45039,-1.087144 0.49041,-1.673993 0.04,-0.586849 0.004,-1.177001 0.0463,-1.763688 0.0935,-1.296789 0.56803,-2.554823 0.55363,-3.854902 -0.017,-1.530726 -0.70705,-2.969317 -0.96239,-4.478692 -0.0786,-0.464678 -0.11909,-0.946939 -0.32892,-1.368929 -0.10492,-0.210994 -0.25306,-0.403868 -0.44636,-0.538623 -0.19331,-0.134755 -0.434,-0.207921 -0.66773,-0.177947 -0.1845,0.02366 -0.35769,0.109933 -0.501,0.228507 -0.14332,0.118574 -0.25825,0.268479 -0.35345,0.428283 -0.19039,0.319608 -0.30457,0.679386 -0.48829,1.002878 -0.26489,0.466427 -0.6665,0.842554 -1.10379,1.153196 -0.43729,0.310643 -0.9133,0.561707 -1.37767,0.830197 -1.03221,0.596808 -2.01485,1.285486 -2.88945,2.095863 -0.37531,0.347754 -0.73052,0.717634 -1.12162,1.047537 -0.39109,0.329903 -0.8233,0.621771 -1.30781,0.786226 -0.45549,0.154605 -0.94208,0.191829 -1.42299,0.201908 -0.4809,0.01008 -0.96356,-0.0057 -1.44157,0.04796 -0.47801,0.05364 -0.95788,0.181279 -1.35498,0.452721 -0.19855,0.13572 -0.37425,0.3067 -0.50573,0.508088 -0.13147,0.201389 -0.21789,0.433606 -0.23861,0.673216 z"
             id="path1530"
             inkscape:path-effect="#path-effect1532"
             inkscape:original-d="m 188.94091,68.90325 c -1.65489,0.6277 1.23743,1.726994 1.85576,2.590094 0.61832,0.8631 0.78323,1.61286 1.17445,2.418895 0.39122,0.806032 0.49035,1.297601 0.73512,1.946005 0.24478,0.648406 1.18539,-0.527698 1.77769,-0.791946 0.5923,-0.264247 2.66183,-0.599048 3.99235,-0.898969 1.33052,-0.299919 3.92472,-0.575659 5.88668,-0.863886 1.96196,-0.288226 0.35805,-2.291522 0.53668,-3.437681 0.17862,-1.146159 0.36935,-2.56967 0.55363,-3.854902 0.18428,-1.285232 -0.64133,-2.985529 -0.96239,-4.478692 -0.32105,-1.49316 -0.96174,-1.390068 -1.44301,-2.085499 -0.48127,-0.695431 -0.8949,1.10671 -1.34274,1.659668 -0.44785,0.552958 -1.65404,1.322527 -2.48146,1.983393 -0.82741,0.660868 -1.92603,1.397508 -2.88945,2.095863 -0.96341,0.698357 -1.61936,1.222774 -2.42943,1.833763 -0.81008,0.610992 -3.30899,1.256194 -4.96388,1.883894 z" />
          <path
             style="fill:#e5a55a;fill-opacity:1;stroke:#000000;stroke-width:0.264583px;stroke-linecap:butt;stroke-linejoin:miter;stroke-opacity:1"
             d="m 193.90479,67.019356 c 1.55971,-0.494028 3.00376,-1.349332 4.18658,-2.479685 1.43194,-1.368422 2.45653,-3.100481 3.73096,-4.616675 0.28323,-0.336965 0.5815,-0.667022 0.79191,-1.053668 0.10521,-0.193322 0.18763,-0.400258 0.22963,-0.616309 0.042,-0.216052 0.0428,-0.441607 -0.0121,-0.654761 -0.10393,-0.403976 -0.39819,-0.734457 -0.72936,-0.988085 -0.33116,-0.253627 -0.70495,-0.445591 -1.04924,-0.681089 -0.29991,-0.20514 -0.57654,-0.442692 -0.87568,-0.648957 -0.29914,-0.206264 -0.62732,-0.383213 -0.98509,-0.446669 -0.31401,-0.05569 -0.63925,-0.02131 -0.94675,0.06326 -0.30749,0.08457 -0.59924,0.218131 -0.88362,0.362468 -0.69042,0.350423 -1.35846,0.778254 -1.85039,1.376148 -0.62382,0.758187 -0.91877,1.731787 -1.11775,2.693244 -0.22842,1.103706 -0.34973,2.227185 -0.42506,3.35176 -0.0967,1.443916 -0.11813,2.892873 -0.0641,4.339016 z"
             id="path1534"
             inkscape:path-effect="#path-effect1536"
             inkscape:original-d="m 193.90479,67.019356 c -0.0216,1.446075 2.79131,-1.65286 4.18658,-2.479685 1.39526,-0.826829 2.48757,-3.077517 3.73096,-4.616675 1.24338,-1.539156 0.67324,-1.549562 1.00947,-2.324738 0.33622,-0.775179 -1.18547,-1.112517 -1.7786,-1.669174 -0.59313,-0.556657 -1.24025,-0.730152 -1.86077,-1.095626 -0.62052,-0.365475 -1.21998,0.284085 -1.83037,0.42573 -0.61039,0.141647 -1.23333,0.917697 -1.85039,1.376148 -0.61706,0.458452 -0.7449,1.795762 -1.11775,2.693244 -0.37284,0.897483 -0.28311,2.234772 -0.42506,3.35176 -0.14196,1.116989 -0.0425,2.892944 -0.0641,4.339016 z" />
          <g
             id="g1500"
             style="stroke:#000000;stroke-opacity:1"
             transform="translate(-30.66271,4.7196358)">
            <g
               id="g1429"
               transform="translate(24.952992,-6.3827323)"
               style="stroke:#000000;stroke-opacity:1">
              <path
                 style="fill:none;fill-opacity:1;stroke:#000000;stroke-width:3;stroke-linecap:round;stroke-linejoin:round;stroke-miterlimit:4;stroke-dasharray:none;stroke-opacity:1;paint-order:stroke fill markers"
                 id="path1334"
                 sodipodi:type="arc"
                 sodipodi:cx="208.84052"
                 sodipodi:cy="-86.828133"
                 sodipodi:rx="22.223845"
                 sodipodi:ry="22.444101"
                 sodipodi:start="0.6981317"
                 sodipodi:end="2.268928"
                 sodipodi:arc-type="arc"
                 transform="rotate(50.013894)"
                 sodipodi:open="true"
                 d="m 225.86497,-72.401342 a 22.223845,22.444101 0 0 1 -31.30967,2.766389" />
              <path
                 style="fill:none;fill-opacity:1;stroke:#000000;stroke-width:3;stroke-linecap:round;stroke-linejoin:round;stroke-miterlimit:4;stroke-dasharray:none;stroke-opacity:1;paint-order:stroke fill markers"
                 id="path1334-1"
                 sodipodi:type="arc"
                 sodipodi:cx="-70.169022"
                 sodipodi:cy="245.84628"
                 sodipodi:rx="22.223845"
                 sodipodi:ry="22.444101"
                 sodipodi:start="0.6981317"
                 sodipodi:end="2.268928"
                 sodipodi:arc-type="arc"
                 transform="matrix(-0.64260183,0.76620029,0.76620029,0.64260183,0,0)"
                 sodipodi:open="true"
                 d="m -53.144569,260.27307 a 22.223845,22.444101 0 0 1 -31.309664,2.76639" />
              <path
                 style="fill:none;stroke:#000000;stroke-width:3;stroke-linecap:round;stroke-linejoin:miter;stroke-miterlimit:4;stroke-dasharray:none;stroke-opacity:1"
                 d="m 200.61517,126.53257 h 32.95692"
                 id="path1362"
                 inkscape:path-effect="#path-effect1364"
                 inkscape:original-d="m 200.61517,126.53257 c 10.9859,2.6e-4 21.97155,2.6e-4 32.95692,0" />
              <path
                 style="fill:none;stroke:#000000;stroke-width:3;stroke-linecap:round;stroke-linejoin:miter;stroke-miterlimit:4;stroke-dasharray:none;stroke-opacity:1"
                 d="M 178.37592,104.32078 V 88.632089"
                 id="path1366"
                 inkscape:path-effect="#path-effect1368"
                 inkscape:original-d="m 178.37592,104.32078 c 2.7e-4,-5.229296 2.7e-4,-10.45886 0,-15.688691" />
              <path
                 style="fill:none;stroke:#000000;stroke-width:3;stroke-linecap:round;stroke-linejoin:miter;stroke-miterlimit:4;stroke-dasharray:none;stroke-opacity:1"
                 d="M 255.81136,104.32078 V 88.63209"
                 id="path1366-4"
                 inkscape:path-effect="#path-effect1391"
                 inkscape:original-d="m 255.81136,104.32078 c 2.7e-4,-5.229295 2.7e-4,-10.458859 0,-15.68869" />
              <path
                 style="fill:none;stroke:#000000;stroke-width:3;stroke-linecap:butt;stroke-linejoin:miter;stroke-miterlimit:4;stroke-dasharray:none;stroke-opacity:1"
                 d="m 178.37592,88.632089 h 77.43544"
                 id="path1394"
                 inkscape:path-effect="#path-effect1396"
                 inkscape:original-d="m 178.37592,88.632089 c 25.81207,2.64e-4 51.62389,2.64e-4 77.43544,0" />
              <path
                 style="fill:none;stroke:#000000;stroke-width:2;stroke-linecap:butt;stroke-linejoin:miter;stroke-miterlimit:4;stroke-dasharray:none;stroke-opacity:1"
                 d="m 178.51239,96.052317 h 77.43544"
                 id="path1394-3"
                 inkscape:path-effect="#path-effect1419"
                 inkscape:original-d="m 178.51239,96.052317 c 25.81207,2.64e-4 51.62389,2.64e-4 77.43544,0" />
            </g>
            <g
               id="g1481"
               transform="translate(1.1980804,0.53039017)"
               style="stroke:#000000;stroke-opacity:1">
              <g
                 id="g1471"
                 transform="translate(3.4421296,-1.575042)"
                 style="stroke:#000000;stroke-opacity:1">
                <path
                   style="fill:none;stroke:#000000;stroke-width:3;stroke-linecap:round;stroke-linejoin:miter;stroke-miterlimit:4;stroke-dasharray:none;stroke-opacity:1"
                   d="m 203.32891,82.249357 c -0.75785,-0.754255 -1.39691,-1.627634 -1.88648,-2.578195 -0.91834,-1.783066 -1.2979,-3.821511 -1.20917,-5.825206 0.0623,-1.406912 0.3522,-2.807958 0.90159,-4.104667 0.43883,-1.035749 1.04701,-2.007937 1.84751,-2.798221 0.98736,-0.97476 2.25017,-1.651607 3.58802,-2.019301 1.11626,-0.306793 2.28336,-0.403886 3.4404,-0.366219 0.80903,0.02634 1.61811,0.11831 2.4029,0.316612 0.62904,0.158948 1.24278,0.386872 1.80771,0.705958 0.86542,0.488812 1.60366,1.185626 2.20223,1.979103 0.56245,0.745596 1.00619,1.57854 1.33212,2.453774 0.34792,0.934279 0.56242,1.918213 0.6338,2.912611 0.084,1.170117 -0.0291,2.35033 0.0995,3.516392 0.16306,1.478982 0.72172,2.912497 1.60243,4.111805 0.8807,1.199309 2.08127,2.161444 3.44363,2.759731"
                   id="path1431"
                   inkscape:path-effect="#path-effect1433"
                   inkscape:original-d="m 203.32891,82.249357 c -0.62856,-0.859134 -1.25739,-1.718532 -1.88648,-2.578195 -0.62908,-0.85966 -0.8281,-4.188793 -1.20917,-5.825206 -0.38107,-1.636417 0.51406,-2.499226 0.90159,-4.104667 0.38754,-1.605444 1.20471,-1.722763 1.84751,-2.798221 0.6428,-1.07546 -2.6097,-0.945446 3.58802,-2.019301 1.23296,-0.21363 2.36499,-0.181627 3.4404,-0.366219 1.07541,-0.184592 1.54846,0.200828 2.4029,0.316612 0.85445,0.115782 1.25915,0.481414 1.80771,0.705958 0.54856,0.224544 -6.80175,0.901435 2.20223,1.979103 0.88759,0.106235 0.85563,1.618762 1.33212,2.453774 0.47649,0.835011 1.23702,2.352061 0.6338,2.912611 -2.04904,1.904112 0.12068,2.288744 0.0995,3.516392 -0.0212,1.227648 4.66791,5.673098 5.04606,6.871536"
                   sodipodi:nodetypes="cssssssssssssc" />
                <path
                   style="fill:none;stroke:#000000;stroke-width:3;stroke-linecap:round;stroke-linejoin:miter;stroke-miterlimit:4;stroke-dasharray:none;stroke-opacity:1"
                   d="m 219.46275,79.602198 c -0.39782,-0.871346 -0.62145,-1.821792 -0.65392,-2.779104 -0.0352,-1.039352 0.15877,-2.09541 0.63372,-3.020568 0.4822,-0.939288 1.23816,-1.717765 2.08811,-2.344163 0.68366,-0.503851 1.43711,-0.91911 2.24449,-1.182537 0.78125,-0.254899 1.60598,-0.36531 2.42776,-0.365606 0.9905,-3.57e-4 2.00688,0.167972 2.85473,0.680066 0.86741,0.523912 1.49039,1.360791 2.10727,2.16475 0.54766,0.713751 1.10844,1.418187 1.708,2.088932 1.57651,1.763679 3.43469,3.298293 5.55614,4.344898 1.32331,0.652843 2.73734,1.110864 4.17748,1.432332 1.77569,0.39637 3.60197,0.58742 5.41898,0.494424 1.82687,-0.0935 3.63764,-0.474752 5.3522,-1.112318 1.66471,-0.619028 3.24479,-1.483274 4.61484,-2.613499 1.48121,-1.221924 2.70664,-2.749366 3.59652,-4.450892 0.70871,-1.355119 1.23195,-2.854677 2.31355,-3.935765 1.17617,-1.175611 2.8921,-1.698468 4.55506,-1.696659 1.09553,0.0012 2.19805,0.215139 3.18547,0.68969 1.07603,0.517137 1.99666,1.336846 2.68269,2.313897 0.64433,0.917659 1.08725,1.977741 1.27376,3.083396 0.24615,1.459204 0.0452,2.965789 -0.37188,4.385604 -0.32226,1.096919 -0.77326,2.156705 -1.35067,3.143461 -0.46218,0.789843 -1.005,1.532468 -1.61729,2.212589"
                   id="path1435"
                   inkscape:path-effect="#path-effect1437"
                   inkscape:original-d="m 219.46275,79.602198 c -0.22545,-0.922224 -0.43568,-1.852472 -0.65392,-2.779104 -0.21823,-0.926634 0.42275,-2.013447 0.63372,-3.020568 0.21097,-1.007121 1.39234,-1.562516 2.08811,-2.344163 0.69578,-0.781654 -1.17879,-0.412612 2.24449,-1.182537 0.95261,-0.214249 1.54723,-0.268059 2.42776,-0.365606 0.88053,-0.09754 1.96378,0.561379 2.85473,0.680066 0.89095,0.118687 1.58441,1.695247 2.10727,2.16475 0.52285,0.469503 1.12448,1.077473 1.708,2.088932 0.58352,1.01146 3.70436,2.896862 5.55614,4.344898 1.85179,1.448033 2.78525,0.955154 4.17748,1.432332 1.39223,0.477182 3.61292,0.329883 5.41898,0.494424 1.80607,0.164545 3.5684,-0.74128 5.3522,-1.112318 1.7838,-0.371039 3.07682,-1.742067 4.61484,-2.613499 1.53801,-0.871429 2.39794,-2.966998 3.59652,-4.450892 1.19858,-1.483897 1.54263,-2.623579 2.31355,-3.935765 0.77091,-1.312185 3.03697,-1.130842 4.55506,-1.696659 1.51808,-0.565816 2.12391,0.460058 3.18547,0.68969 1.06156,0.229632 1.78871,1.542862 2.68269,2.313897 0.89395,0.771033 0.84944,2.055863 1.27376,3.083396 0.42433,1.027536 -0.24765,2.924001 -0.37188,4.385604 -0.12424,1.461603 -0.90019,2.095907 -1.35067,3.143461 -0.45048,1.047557 -1.07794,1.475325 -1.61729,2.212589"
                   sodipodi:nodetypes="csssssssssssssssssssssc" />
                <path
                   style="fill:none;stroke:#000000;stroke-width:3;stroke-linecap:round;stroke-linejoin:miter;stroke-miterlimit:4;stroke-dasharray:none;stroke-opacity:1"
                   d="m 233.70913,74.157978 c 1.29156,-0.07304 2.57371,-0.311041 3.80545,-0.706382 1.3428,-0.430988 2.61852,-1.045366 3.88147,-1.672916 0.9106,-0.45247 1.81864,-0.913646 2.68206,-1.450702 1.1934,-0.742302 2.30952,-1.640533 3.14251,-2.772493 1.03966,-1.412815 1.59859,-3.130663 2.61864,-4.557704 0.699,-0.977888 1.61251,-1.806321 2.67094,-2.376045 0.84781,-0.456351 1.78329,-0.744881 2.73832,-0.867123 0.96481,-0.123493 1.95112,-0.07799 2.90018,0.135081 0.996,0.223608 1.96522,0.641453 2.72406,1.324224 0.65309,0.587624 1.12911,1.351459 1.47629,2.158487 0.4156,0.966079 0.65596,2.001337 0.78226,3.045407 0.1144,0.945657 0.1366,1.902445 0.0662,2.852391"
                   id="path1439"
                   inkscape:path-effect="#path-effect1441"
                   inkscape:original-d="m 233.70913,74.157978 c 1.25408,-0.22134 2.53723,-0.470657 3.80545,-0.706382 1.26822,-0.235728 2.58791,-1.115013 3.88147,-1.672916 1.29356,-0.5579 1.7883,-0.966872 2.68206,-1.450702 0.89375,-0.483833 1.97076,-1.425317 3.14251,-2.772493 1.17175,-1.347174 1.74948,-3.35017 2.61864,-4.557704 0.86915,-1.207535 1.90194,-1.694547 2.67094,-2.376045 0.769,-0.681498 2.02409,-0.543926 2.73832,-0.867123 0.71424,-0.323196 1.77401,-0.009 2.90018,0.135081 1.12617,0.144036 1.84759,0.905365 2.72406,1.324224 0.87646,0.41886 0.91461,1.482355 1.47629,2.158487 0.56167,0.676132 0.52177,2.030537 0.78226,3.045407 0.26049,1.014873 0.0444,1.901857 0.0662,2.852391"
                   sodipodi:nodetypes="csssssssssssc" />
                <path
                   style="fill:none;stroke:#000000;stroke-width:3;stroke-linecap:round;stroke-linejoin:miter;stroke-miterlimit:4;stroke-dasharray:none;stroke-opacity:1"
                   d="m 232.29853,73.762718 c -0.85926,-0.792654 -1.29523,-2.019977 -1.12854,-3.177063 0.12609,-0.875295 0.57749,-1.688286 1.20292,-2.313488 0.60537,-0.605153 1.36891,-1.041376 2.1817,-1.309825 0.94585,-0.312396 1.95156,-0.401741 2.94761,-0.41194 1.17713,-0.01205 2.3612,0.08459 3.50068,0.380166 1.43207,0.371477 2.78138,1.058539 3.92415,1.99816"
                   id="path1443"
                   inkscape:path-effect="#path-effect1445"
                   inkscape:original-d="m 232.29853,73.762718 c -0.38499,-1.045067 -0.7521,-2.117777 -1.12854,-3.177063 -0.37645,-1.059283 0.80221,-1.542061 1.20292,-2.313488 0.40071,-0.77143 1.45473,-0.872953 2.1817,-1.309825 0.72697,-0.436872 2.06465,-0.38357 2.94761,-0.41194 0.88296,-0.02837 2.38333,0.233574 3.50068,0.380166 1.11735,0.146595 2.46777,1.461714 3.92415,1.99816"
                   sodipodi:nodetypes="csssssc" />
              </g>
              <g
                 id="g1465"
                 style="stroke:#000000;stroke-opacity:1">
                <path
                   style="fill:none;stroke:#000000;stroke-width:3;stroke-linecap:round;stroke-linejoin:miter;stroke-miterlimit:4;stroke-dasharray:none;stroke-opacity:1"
                   d="m 218.40554,63.653225 c 0.51349,-0.187635 1.02835,-0.371517 1.54453,-0.551627 1.15577,-0.403284 2.32224,-0.78934 3.41937,-1.332266 1.51931,-0.751851 2.87615,-1.789647 4.21193,-2.833334 0.9888,-0.772582 1.98635,-1.56701 2.71098,-2.591469 0.45001,-0.636203 0.78494,-1.349194 1.0332,-2.08786 0.28502,-0.848039 0.45686,-1.772919 0.21656,-2.634697 -0.18628,-0.668052 -0.6139,-1.255411 -1.15172,-1.693302 -0.53684,-0.437095 -1.19958,-0.736969 -1.89103,-0.770776 -0.50347,-0.02462 -1.00859,0.09167 -1.4679,0.299322 -0.45932,0.207649 -0.87453,0.504698 -1.24705,0.844282 -0.83809,0.763987 -1.46628,1.748963 -1.84396,2.818276 -0.41465,1.173976 -0.52958,2.431207 -0.58263,3.675127 -0.0436,1.021237 -0.0476,2.043827 -0.0341,3.065902 0.008,0.636315 0.0237,1.27254 0.0457,1.908529"
                   id="path1455"
                   inkscape:path-effect="#path-effect1457"
                   inkscape:original-d="m 218.40554,63.653225 c 0.70821,-0.305565 0.83685,-0.245533 1.54453,-0.551627 0.70768,-0.306091 2.26872,-0.889761 3.41937,-1.332266 1.15065,-0.442507 2.89084,-1.899773 4.21193,-2.833334 1.3211,-0.933561 1.9356,-1.810416 2.71098,-2.591469 0.77539,-0.781055 0.42141,-1.18089 1.0332,-2.08786 0.6118,-0.906971 0.0528,-1.922687 0.21656,-2.634697 0.16371,-0.712012 -0.62136,-1.24246 -1.15172,-1.693302 -0.53036,-0.450842 -1.04189,-0.516329 -1.89103,-0.770776 -0.84914,-0.254447 -2.07525,0.582187 -2.71495,1.143604 -0.63971,0.561416 -1.19735,2.036315 -1.84396,2.818276 -0.64662,0.781962 -0.37554,2.71937 -0.58263,3.675127 -0.20709,0.955757 -0.0489,2.018051 -0.0341,3.065902 0.0148,1.04785 -0.14278,1.23794 0.0457,1.908529"
                   sodipodi:nodetypes="cssssssssssssc" />
                <path
                   style="fill:none;stroke:#000000;stroke-width:3;stroke-linecap:round;stroke-linejoin:miter;stroke-miterlimit:4;stroke-dasharray:none;stroke-opacity:1"
                   d="m 233.82759,68.053419 c 0.47006,-1.385207 0.80675,-2.815641 1.00388,-4.265088 0.24983,-1.836881 0.27428,-3.71368 -0.0522,-5.538497 -0.37894,-2.118074 -1.23364,-4.14965 -2.48284,-5.901602"
                   id="path1459"
                   inkscape:path-effect="#path-effect1461"
                   inkscape:original-d="m 233.82759,68.053419 c 0.33489,-1.421431 0.66952,-2.843128 1.00388,-4.265088 0.33436,-1.421961 -0.0345,-3.692068 -0.0522,-5.538497 -0.0177,-1.846429 -1.65496,-3.934137 -2.48284,-5.901602" />
              </g>
            </g>
          </g>
        </g>
        <path
           style="fill:none;stroke:#000000;stroke-width:5;stroke-linecap:round;stroke-linejoin:miter;stroke-miterlimit:4;stroke-dasharray:none;stroke-opacity:0.25098"
           d="m 216.6415,119.95505 c 1.452,-0.89783 2.89713,-1.80677 4.33522,-2.72671 2.13722,-1.36716 4.27108,-2.76809 6.12289,-4.50235 1.64849,-1.54385 3.06281,-3.34939 4.07982,-5.36599 1.0771,-2.13576 1.69595,-4.47682 2.09078,-6.836 0.38467,-2.298476 0.56305,-4.626633 0.68266,-6.954004 0.0701,-1.364815 0.11973,-2.740509 -0.0853,-4.091657 -0.20503,-1.351148 -0.68082,-2.689175 -1.55878,-3.736469 -0.59062,-0.704529 -1.34256,-1.255983 -1.96807,-1.929721 -0.31275,-0.33687 -0.59498,-0.706703 -0.79429,-1.120912 -0.19932,-0.414209 -0.31335,-0.875584 -0.2821,-1.33419 0.0417,-0.611965 0.33639,-1.180125 0.69403,-1.678453 0.35765,-0.498329 0.7825,-0.945711 1.13794,-1.445612 0.4797,-0.674653 0.82999,-1.447238 0.97353,-2.262507 0.14354,-0.815268 0.0753,-1.673335 -0.24023,-2.438659 -0.27434,-0.665469 -0.73082,-1.250726 -1.29061,-1.703218 -0.55979,-0.452492 -1.22083,-0.773901 -1.91482,-0.964933 -1.80019,-0.495534 -3.82879,-0.06928 -5.27731,1.108871"
           id="path1566"
           inkscape:path-effect="#path-effect1568"
           inkscape:original-d="m 216.6415,119.95505 c -8.78187,7.31698 1.96465,-1.36226 4.33522,-2.72671 2.37057,-1.36445 4.49369,-3.14542 6.12289,-4.50235 1.62919,-1.35692 2.82163,-3.3468 4.07982,-5.36599 1.25818,-2.01918 1.37373,-4.70842 2.09078,-6.836 0.71705,-2.127566 0.52316,-4.493606 0.68266,-6.954004 0.1595,-2.460397 -1.19392,-5.750959 -1.64408,-7.828126 -0.45015,-2.077167 -2.21474,-2.415564 -3.04446,-4.384823 -0.82973,-1.969257 0.94468,-2.134272 1.83197,-3.124065 0.88729,-0.98979 0.48913,-3.133846 0.7333,-4.701166 0.24417,-1.567321 -2.13669,-1.778503 -3.20543,-2.668151 -1.06874,-0.889649 -3.46127,1.598154 -5.27731,1.108871"
           sodipodi:nodetypes="cssssssssssc" />
        <path
           style="fill:none;stroke:#000000;stroke-width:5;stroke-linecap:round;stroke-linejoin:miter;stroke-miterlimit:4;stroke-dasharray:none;stroke-opacity:0.25098"
           d="m 210.87568,63.405821 c 1.22993,-0.818427 2.72434,-1.232338 4.20007,-1.1633 1.55982,0.07297 3.09794,0.69289 4.23444,1.763752 0.98244,0.9257 1.63611,2.136717 2.33121,3.29384 0.31091,0.517564 0.63318,1.028304 0.96649,1.531731"
           id="path1570"
           inkscape:path-effect="#path-effect1572"
           inkscape:original-d="m 210.87568,63.405821 c 1.01454,-0.58483 3.18607,-0.577938 4.20007,-1.1633 1.01401,-0.585359 2.82322,1.176099 4.23444,1.763752 1.41121,0.58765 1.5544,2.196158 2.33121,3.29384 0.77681,1.097683 0.45494,0.833162 0.96649,1.531731"
           sodipodi:nodetypes="csssc" />
      </g>
    </g>
  </g>
</svg>
