<?xml version="1.0" encoding="UTF-8" standalone="no"?>
<svg
   xmlns:dc="http://purl.org/dc/elements/1.1/"
   xmlns:cc="http://creativecommons.org/ns#"
   xmlns:rdf="http://www.w3.org/1999/02/22-rdf-syntax-ns#"
   xmlns:svg="http://www.w3.org/2000/svg"
   xmlns="http://www.w3.org/2000/svg"
   xmlns:sodipodi="http://sodipodi.sourceforge.net/DTD/sodipodi-0.dtd"
   xmlns:inkscape="http://www.inkscape.org/namespaces/inkscape"
   width="97.93544mm"
   height="144.47083mm"
   viewBox="0 0 97.93544 144.47083"
   version="1.1"
   id="svg1436"
   inkscape:version="1.0.2-2 (e86c870879, 2021-01-15)"
   sodipodi:docname="Brandy.svg">
  <defs
     id="defs1430">
    <inkscape:path-effect
       effect="spiro"
       id="path-effect1297"
       is_visible="true"
       lpeversion="1" />
    <inkscape:path-effect
       effect="spiro"
       id="path-effect1293"
       is_visible="true"
       lpeversion="1" />
    <inkscape:path-effect
       effect="spiro"
       id="path-effect1266"
       is_visible="true"
       lpeversion="1" />
    <inkscape:path-effect
       effect="spiro"
       id="path-effect1262"
       is_visible="true"
       lpeversion="1" />
    <inkscape:path-effect
       effect="spiro"
       id="path-effect1258"
       is_visible="true"
       lpeversion="1" />
    <inkscape:path-effect
       effect="spiro"
       id="path-effect1246"
       is_visible="true"
       lpeversion="1" />
    <inkscape:path-effect
       effect="spiro"
       id="path-effect1242"
       is_visible="true"
       lpeversion="1" />
    <inkscape:path-effect
       effect="spiro"
       id="path-effect1234"
       is_visible="true"
       lpeversion="1" />
    <inkscape:path-effect
       effect="spiro"
       id="path-effect1227"
       is_visible="true"
       lpeversion="1" />
    <inkscape:path-effect
       effect="spiro"
       id="path-effect1204"
       is_visible="true"
       lpeversion="1" />
    <inkscape:path-effect
       effect="spiro"
       id="path-effect1200"
       is_visible="true"
       lpeversion="1" />
    <inkscape:path-effect
       effect="spiro"
       id="path-effect1193"
       is_visible="true"
       lpeversion="1" />
    <inkscape:path-effect
       effect="spiro"
       id="path-effect1170"
       is_visible="true"
       lpeversion="1" />
    <inkscape:path-effect
       effect="spiro"
       id="path-effect1132"
       is_visible="true"
       lpeversion="1" />
    <inkscape:path-effect
       effect="spiro"
       id="path-effect1110"
       is_visible="true"
       lpeversion="1" />
    <inkscape:path-effect
       effect="spiro"
       id="path-effect1087"
       is_visible="true"
       lpeversion="1" />
    <inkscape:path-effect
       effect="powerclip"
       id="path-effect1077"
       is_visible="true"
       lpeversion="1"
       inverse="true"
       flatten="false"
       hide_clip="false"
       message="Utilice la regla de relleno parimpar en el diálogo &lt;b&gt;Relleno y borde&lt;/b&gt; si el resultado no está aplanada después de convertir el recorte en trayectos." />
    <inkscape:path-effect
       effect="spiro"
       id="path-effect1067"
       is_visible="true"
       lpeversion="1" />
    <inkscape:path-effect
       effect="spiro"
       id="path-effect1061"
       is_visible="true"
       lpeversion="1" />
    <inkscape:path-effect
       effect="spiro"
       id="path-effect1056"
       is_visible="true"
       lpeversion="1" />
    <inkscape:path-effect
       effect="spiro"
       id="path-effect1033"
       is_visible="true"
       lpeversion="1" />
    <inkscape:path-effect
       effect="spiro"
       id="path-effect1025"
       is_visible="true"
       lpeversion="1" />
    <inkscape:path-effect
       effect="spiro"
       id="path-effect1023"
       is_visible="true"
       lpeversion="1" />
    <inkscape:path-effect
       effect="spiro"
       id="path-effect995"
       is_visible="true"
       lpeversion="1" />
    <inkscape:path-effect
       effect="spiro"
       id="path-effect990"
       is_visible="true"
       lpeversion="1" />
    <inkscape:path-effect
       effect="spiro"
       id="path-effect966"
       is_visible="true"
       lpeversion="1" />
    <inkscape:path-effect
       effect="spiro"
       id="path-effect943"
       is_visible="true"
       lpeversion="1" />
    <inkscape:path-effect
       effect="spiro"
       id="path-effect4253"
       is_visible="true"
       lpeversion="1" />
    <inkscape:path-effect
       effect="spiro"
       id="path-effect4257"
       is_visible="true"
       lpeversion="1" />
    <inkscape:path-effect
       effect="spiro"
       id="path-effect4261"
       is_visible="true"
       lpeversion="1" />
    <inkscape:path-effect
       effect="spiro"
       id="path-effect4265"
       is_visible="true"
       lpeversion="1" />
    <inkscape:path-effect
       effect="spiro"
       id="path-effect4269"
       is_visible="true"
       lpeversion="1" />
    <inkscape:path-effect
       effect="spiro"
       id="path-effect3830"
       is_visible="true"
       lpeversion="1" />
    <inkscape:path-effect
       effect="spiro"
       id="path-effect3853"
       is_visible="true"
       lpeversion="1" />
    <inkscape:path-effect
       effect="spiro"
       id="path-effect3862"
       is_visible="true"
       lpeversion="1" />
    <inkscape:path-effect
       effect="spiro"
       id="path-effect3885"
       is_visible="true"
       lpeversion="1" />
    <inkscape:path-effect
       effect="spiro"
       id="path-effect3892"
       is_visible="true"
       lpeversion="1" />
    <inkscape:path-effect
       effect="spiro"
       id="path-effect3924"
       is_visible="true"
       lpeversion="1" />
    <inkscape:path-effect
       effect="spiro"
       id="path-effect3947"
       is_visible="true"
       lpeversion="1" />
    <inkscape:path-effect
       effect="spiro"
       id="path-effect4068"
       is_visible="true"
       lpeversion="1" />
    <inkscape:path-effect
       effect="spiro"
       id="path-effect4281"
       is_visible="true"
       lpeversion="1" />
    <inkscape:path-effect
       effect="spiro"
       id="path-effect4285"
       is_visible="true"
       lpeversion="1" />
    <inkscape:path-effect
       effect="spiro"
       id="path-effect4289"
       is_visible="true"
       lpeversion="1" />
    <inkscape:path-effect
       effect="spiro"
       id="path-effect4293"
       is_visible="true"
       lpeversion="1" />
    <inkscape:path-effect
       effect="spiro"
       id="path-effect4457"
       is_visible="true"
       lpeversion="1" />
    <inkscape:path-effect
       effect="spiro"
       id="path-effect4469"
       is_visible="true"
       lpeversion="1" />
    <inkscape:path-effect
       effect="spiro"
       id="path-effect4473"
       is_visible="true"
       lpeversion="1" />
    <inkscape:path-effect
       effect="spiro"
       id="path-effect4326"
       is_visible="true"
       lpeversion="1" />
    <inkscape:path-effect
       effect="spiro"
       id="path-effect4330"
       is_visible="true"
       lpeversion="1" />
    <inkscape:path-effect
       effect="spiro"
       id="path-effect4353"
       is_visible="true"
       lpeversion="1" />
    <inkscape:path-effect
       effect="spiro"
       id="path-effect4362"
       is_visible="true"
       lpeversion="1" />
    <inkscape:path-effect
       effect="spiro"
       id="path-effect4358"
       is_visible="true"
       lpeversion="1" />
    <inkscape:path-effect
       effect="spiro"
       id="path-effect4477"
       is_visible="true"
       lpeversion="1" />
    <inkscape:path-effect
       effect="spiro"
       id="path-effect4554"
       is_visible="true"
       lpeversion="1" />
    <inkscape:path-effect
       effect="spiro"
       id="path-effect1152"
       is_visible="true"
       lpeversion="1" />
    <inkscape:path-effect
       effect="spiro"
       id="path-effect4558"
       is_visible="true"
       lpeversion="1" />
    <clipPath
       clipPathUnits="userSpaceOnUse"
       id="clipPath1073">
      <rect
         style="display:none;fill:none;stroke:#373abb;stroke-width:1;stroke-linecap:round;stroke-linejoin:round;stroke-miterlimit:4;stroke-dasharray:none;stroke-opacity:1;paint-order:stroke fill markers"
         id="rect1075"
         width="51.145821"
         height="7.1328864"
         x="108.0751"
         y="114.9323"
         rx="4.99999"
         ry="2.4753411"
         d="m 113.07509,114.9323 h 41.14584 c 2.77,0 4.99999,1.104 4.99999,2.47534 v 2.1822 c 0,1.37134 -2.22999,2.47534 -4.99999,2.47534 h -41.14584 c -2.76999,0 -4.99999,-1.104 -4.99999,-2.47534 v -2.1822 c 0,-1.37134 2.23,-2.47534 4.99999,-2.47534 z" />
      <path
         id="lpe_path-effect1077"
         style="fill:none;stroke:#373abb;stroke-width:1;stroke-linecap:round;stroke-linejoin:round;stroke-miterlimit:4;stroke-dasharray:none;stroke-opacity:1;paint-order:stroke fill markers"
         class="powerclip"
         d="m 105.55454,111.95813 h 56.082 v 85.79139 h -56.082 z m 7.52055,2.97417 c -2.76999,0 -4.99999,1.104 -4.99999,2.47534 v 2.1822 c 0,1.37134 2.23,2.47534 4.99999,2.47534 h 41.14584 c 2.77,0 4.99999,-1.104 4.99999,-2.47534 v -2.1822 c 0,-1.37134 -2.22999,-2.47534 -4.99999,-2.47534 z" />
    </clipPath>
  </defs>
  <sodipodi:namedview
     id="base"
     pagecolor="#ffffff"
     bordercolor="#666666"
     borderopacity="1.0"
     inkscape:pageopacity="0.0"
     inkscape:pageshadow="2"
     inkscape:zoom="0.24748737"
     inkscape:cx="278.01585"
     inkscape:cy="517.58585"
     inkscape:document-units="mm"
     inkscape:current-layer="layer1"
     inkscape:document-rotation="0"
     showgrid="false"
     inkscape:window-width="1258"
     inkscape:window-height="728"
     inkscape:window-x="87"
     inkscape:window-y="-7"
     inkscape:window-maximized="0"
     fit-margin-top="0"
     fit-margin-left="0"
     fit-margin-right="0"
     fit-margin-bottom="0" />
  <metadata
     id="metadata1433">
    <rdf:RDF>
      <cc:Work
         rdf:about="">
        <dc:format>image/svg+xml</dc:format>
        <dc:type
           rdf:resource="http://purl.org/dc/dcmitype/StillImage" />
        <dc:title></dc:title>
      </cc:Work>
    </rdf:RDF>
  </metadata>
  <g
     inkscape:label="Capa 1"
     inkscape:groupmode="layer"
     id="layer1"
     transform="translate(-14.236085,-4.967553)">
    <g
       id="g1323"
       transform="translate(-76.934457,-35.715762)">
      <g
         id="g1166"
         transform="translate(-19.384001,-7.7881625)">
        <path
           style="fill:#fbaf2b;fill-opacity:1;stroke:none;stroke-width:0.264583px;stroke-linecap:butt;stroke-linejoin:miter;stroke-opacity:1"
           d="m 112.05456,118.45816 c 1.51394,-3.5013 3.1015,-6.97076 4.76129,-10.40532 1.75812,-3.63804 3.59822,-7.23897 5.19835,-10.94922 0.64009,-1.484191 1.27856,-3.03882 2.48148,-4.11842 0.49722,-0.446248 1.0788,-0.796572 1.70149,-1.03868 1.05671,-0.410855 2.21071,-0.506414 3.34433,-0.488309 1.13363,0.0181 2.26346,0.14534 3.39711,0.161739 1.26951,0.01836 2.53891,-0.102341 3.80782,-0.059 0.84246,0.02877 1.68055,0.129731 2.51816,0.22452 0.73664,0.08336 1.49247,0.167408 2.15327,0.50346 0.71974,0.366027 1.26836,1.005496 1.67799,1.701351 0.40962,0.695855 0.6963,1.455491 1.02093,2.194829 1.07476,2.447722 2.57064,4.68264 3.88997,7.00768 0.92317,1.62689 1.76113,3.30042 2.59331,4.97568 0.97336,1.95946 1.93958,3.92278 2.8565,5.90928 0.65631,1.42189 1.29014,2.86362 1.67999,4.38038 1.16314,4.52535 0.0766,9.27706 -0.26876,13.93672 -0.41274,5.5688 0.24705,11.15321 0.50118,16.7315 0.25439,5.58398 0.10173,11.18274 -0.34125,16.75493 -0.38017,4.78214 -0.97083,9.63186 -0.0664,14.34306 0.11951,0.6225 0.26532,1.24412 0.28655,1.87764 0.0212,0.63351 -0.0925,1.29156 -0.45083,1.81443 -0.22237,0.32448 -0.53049,0.58426 -0.86943,0.7839 -0.33893,0.19964 -0.70894,0.34146 -1.08436,0.45889 -1.65126,0.51652 -3.41509,0.57025 -5.14033,0.43982 -1.72523,-0.13044 -3.43164,-0.43984 -5.15077,-0.63486 -5.3113,-0.60251 -10.68141,-0.10829 -15.99333,0.48872 -3.79041,0.42601 -7.71573,0.8924 -11.34885,-0.26912 -0.64445,-0.20603 -1.27724,-0.46413 -1.84337,-0.83463 -0.56612,-0.3705 -1.06527,-0.85888 -1.3836,-1.4559 -0.27774,-0.52089 -0.411,-1.11126 -0.43716,-1.70099 -0.0262,-0.58973 0.052,-1.18023 0.17812,-1.7569 0.25233,-1.15333 0.69609,-2.2607 0.90443,-3.42279 0.44182,-2.4644 -0.19823,-4.97397 -0.56231,-7.45105 -0.80824,-5.49899 -0.25198,-11.09243 0.0429,-16.64267 0.3041,-5.7236 0.32821,-11.4585 0.27947,-17.18997 -0.0461,-5.42465 -0.15744,-10.84875 -0.33391,-16.27073 z"
           id="path1130"
           inkscape:path-effect="#path-effect1132"
           inkscape:original-d="m 112.05456,118.45816 c -0.11157,-5.42384 3.17446,-6.93662 4.76129,-10.40532 1.58683,-3.46871 3.46583,-7.29921 5.19835,-10.94922 1.73253,-3.65 1.65458,-2.74535 2.48148,-4.11842 0.82689,-1.37308 1.13459,-0.69219 1.70149,-1.03868 0.5669,-0.34649 4.49456,-0.21745 6.74144,-0.32657 2.24688,-0.10913 2.53881,-0.0391 3.80782,-0.059 1.26902,-0.0199 1.67904,0.14994 2.51816,0.22452 0.83912,0.0746 1.43578,0.3359 2.15327,0.50346 0.71749,0.16756 1.79954,2.59772 2.69892,3.89618 0.89938,1.29846 2.59358,4.67205 3.88997,7.00768 1.29639,2.33563 1.72914,3.31738 2.59331,4.97568 0.86417,1.65829 1.9046,3.93978 2.8565,5.90928 0.9519,1.96949 1.12026,2.92052 1.67999,4.38038 0.55974,1.45986 -0.17891,9.29141 -0.26876,13.93672 -0.0899,4.64531 0.33439,11.1546 0.50118,16.7315 0.16679,5.5769 -0.22723,11.17021 -0.34125,16.75493 -0.11401,5.58471 -0.044,9.5623 -0.0664,14.34306 -0.0224,4.78075 -0.10926,2.46164 -0.16428,3.69207 -0.055,1.23042 -1.30226,0.82879 -1.95379,1.24279 -0.65152,0.41399 -6.86047,-0.12976 -10.2911,-0.19504 -3.43063,-0.0653 -10.66195,0.32608 -15.99333,0.48872 -5.33137,0.16264 -7.56563,-0.17915 -11.34885,-0.26912 -3.78322,-0.09 -2.15105,-1.52676 -3.22697,-2.29053 -1.07592,-0.76378 0.43052,-4.58686 0.64539,-6.88068 0.21487,-2.29382 -0.37461,-4.9671 -0.56231,-7.45105 -0.18771,-2.48394 0.0289,-11.09484 0.0429,-16.64267 0.014,-5.54782 0.18658,-11.45972 0.27947,-17.18997 0.0929,-5.73026 -0.22234,-10.84689 -0.33391,-16.27073 z" />
        <rect
           style="fill:#8aceb6;fill-opacity:1;stroke:none;stroke-width:3;stroke-linecap:round;stroke-linejoin:round;stroke-miterlimit:4;stroke-dasharray:none;stroke-opacity:1;paint-order:stroke fill markers"
           id="rect1134"
           width="43.380695"
           height="6.0295916"
           x="112.05454"
           y="185.21991"
           rx="2.0000012"
           ry="2.0000012" />
        <rect
           style="fill:#ffe5b8;fill-opacity:1;stroke:none;stroke-width:3;stroke-linecap:round;stroke-linejoin:round;stroke-miterlimit:4;stroke-dasharray:none;stroke-opacity:1;paint-order:stroke fill markers"
           id="rect1136"
           width="30.413132"
           height="42.831619"
           x="118.55914"
           y="119.6269"
           rx="2.0000012"
           ry="2.0000012" />
        <rect
           style="fill:#ffe5b8;fill-opacity:1;stroke:none;stroke-width:3;stroke-linecap:round;stroke-linejoin:round;stroke-miterlimit:4;stroke-dasharray:none;stroke-opacity:1;paint-order:stroke fill markers"
           id="rect1138"
           width="17.325191"
           height="20.790998"
           x="124.93854"
           y="58.604729"
           rx="2.0000012"
           ry="2.0000012" />
        <rect
           style="fill:#fc502a;fill-opacity:1;stroke:none;stroke-width:3;stroke-linecap:round;stroke-linejoin:round;stroke-miterlimit:4;stroke-dasharray:none;stroke-opacity:1;paint-order:stroke fill markers"
           id="rect1140"
           width="17.325191"
           height="8.6332512"
           x="124.93854"
           y="49.971478"
           rx="2.0000012"
           ry="2.0000012" />
        <ellipse
           style="fill:#fc502a;fill-opacity:1;stroke:none;stroke-width:3;stroke-linecap:round;stroke-linejoin:round;stroke-miterlimit:4;stroke-dasharray:none;stroke-opacity:1;paint-order:stroke fill markers"
           id="path1142"
           cx="134.1664"
           cy="134.13467"
           rx="5.9141593"
           ry="6.3953571" />
        <g
           id="g1128"
           style="stroke:#000000;stroke-opacity:1">
          <path
             style="fill:none;stroke:#000000;stroke-width:3;stroke-linecap:round;stroke-linejoin:round;stroke-miterlimit:4;stroke-dasharray:none;stroke-opacity:1;paint-order:stroke fill markers"
             id="rect919"
             width="43.082001"
             height="72.791389"
             x="112.05454"
             y="118.45813"
             rx="4.99999"
             ry="2.4753411"
             clip-path="url(#clipPath1073)"
             inkscape:path-effect="#path-effect1077"
             d="m 117.05453,118.45813 h 33.08202 c 2.77,0 4.99999,1.104 4.99999,2.47534 v 67.84071 c 0,1.37134 -2.22999,2.47534 -4.99999,2.47534 h -33.08202 c -2.76999,0 -4.99999,-1.104 -4.99999,-2.47534 v -67.84071 c 0,-1.37134 2.23,-2.47534 4.99999,-2.47534 z"
             sodipodi:type="rect" />
          <rect
             style="fill:none;stroke:#000000;stroke-width:3;stroke-linecap:round;stroke-linejoin:round;stroke-miterlimit:4;stroke-dasharray:none;stroke-opacity:1;paint-order:stroke fill markers"
             id="rect919-7"
             width="17.325188"
             height="20.791"
             x="124.93854"
             y="58.604729"
             rx="4.99999"
             ry="2.4753411" />
          <path
             style="fill:none;stroke:#000000;stroke-width:3;stroke-linecap:round;stroke-linejoin:miter;stroke-miterlimit:4;stroke-dasharray:none;stroke-opacity:1"
             d="M 114.44837,112.61613 124.93854,91.395493"
             id="path941"
             inkscape:path-effect="#path-effect943"
             inkscape:original-d="m 114.44837,112.61613 c 4.29493,-9.02061 6.19577,-12.1995 10.49017,-21.220637"
             sodipodi:nodetypes="cc" />
          <path
             style="fill:none;stroke:#000000;stroke-width:3;stroke-linecap:round;stroke-linejoin:miter;stroke-miterlimit:4;stroke-dasharray:none;stroke-opacity:1"
             d="m 112.05826,121.76777 c 0.002,-1.50264 0.18426,-3.00501 0.54282,-4.46424 0.40195,-1.63584 1.02515,-3.21716 1.84729,-4.6874"
             id="path993"
             inkscape:path-effect="#path-effect995"
             inkscape:original-d="m 112.05826,121.76777 c 0.0528,-1.5948 0.49053,-2.86891 0.54282,-4.46424 0.0523,-1.59533 1.02159,-3.26472 1.84729,-4.6874"
             sodipodi:nodetypes="csc" />
          <path
             style="fill:none;stroke:#000000;stroke-width:3;stroke-linecap:round;stroke-linejoin:miter;stroke-miterlimit:4;stroke-dasharray:none;stroke-opacity:1"
             d="M 152.7539,112.61613 142.26373,91.395493"
             id="path941-1"
             inkscape:path-effect="#path-effect1023"
             inkscape:original-d="m 152.7539,112.61613 c -4.29493,-9.02061 -6.19577,-12.1995 -10.49017,-21.220637"
             sodipodi:nodetypes="cc" />
          <path
             style="fill:none;stroke:#000000;stroke-width:3;stroke-linecap:round;stroke-linejoin:miter;stroke-miterlimit:4;stroke-dasharray:none;stroke-opacity:1"
             d="m 155.14401,121.76777 c -0.002,-1.50264 -0.18426,-3.00501 -0.54282,-4.46424 -0.40195,-1.63584 -1.02515,-3.21716 -1.84729,-4.6874"
             id="path993-3"
             inkscape:path-effect="#path-effect1025"
             inkscape:original-d="m 155.14401,121.76777 c -0.0528,-1.5948 -0.49053,-2.86891 -0.54282,-4.46424 -0.0523,-1.59533 -1.02159,-3.26472 -1.84729,-4.6874"
             sodipodi:nodetypes="csc" />
          <rect
             style="fill:none;stroke:#000000;stroke-width:3;stroke-linecap:round;stroke-linejoin:round;stroke-miterlimit:4;stroke-dasharray:none;stroke-opacity:1;paint-order:stroke fill markers"
             id="rect1029"
             width="30.413136"
             height="42.831619"
             x="118.55914"
             y="119.62691"
             rx="4.99999"
             ry="2.4753411" />
          <path
             style="fill:none;stroke:#000000;stroke-width:3;stroke-linecap:round;stroke-linejoin:miter;stroke-miterlimit:4;stroke-dasharray:none;stroke-opacity:1"
             d="M 124.93854,91.395491 V 58.604729"
             id="path1031"
             inkscape:path-effect="#path-effect1033"
             inkscape:original-d="m 124.93854,91.395491 c 2.6e-4,-3.999656 2.6e-4,-28.790577 0,-32.790762"
             sodipodi:nodetypes="cc" />
          <path
             style="fill:none;stroke:#000000;stroke-width:3;stroke-linecap:round;stroke-linejoin:miter;stroke-miterlimit:4;stroke-dasharray:none;stroke-opacity:1"
             d="M 142.26373,91.395491 V 58.604729"
             id="path1031-6"
             inkscape:path-effect="#path-effect1056"
             inkscape:original-d="m 142.26373,91.395491 c 2.6e-4,-3.999656 2.6e-4,-28.790577 0,-32.790762"
             sodipodi:nodetypes="cc" />
          <path
             style="fill:none;stroke:#000000;stroke-width:3;stroke-linecap:butt;stroke-linejoin:miter;stroke-miterlimit:4;stroke-dasharray:none;stroke-opacity:1"
             d="m 124.93854,91.395493 h 17.32519"
             id="path1059"
             inkscape:path-effect="#path-effect1061"
             inkscape:original-d="m 124.93854,91.395493 c 5.77532,2.65e-4 11.55039,2.65e-4 17.32519,0" />
          <path
             style="fill:none;stroke:#000000;stroke-width:3;stroke-linecap:butt;stroke-linejoin:miter;stroke-miterlimit:4;stroke-dasharray:none;stroke-opacity:1"
             d="m 112.35325,185.21992 h 43.08199"
             id="path1065"
             inkscape:path-effect="#path-effect1067"
             inkscape:original-d="m 112.35325,185.21992 c 14.36093,2.6e-4 28.7216,2.6e-4 43.08199,0" />
          <rect
             style="fill:none;stroke:#000000;stroke-width:3;stroke-linecap:round;stroke-linejoin:round;stroke-miterlimit:4;stroke-dasharray:none;stroke-opacity:1;paint-order:stroke fill markers"
             id="rect1069"
             width="17.325195"
             height="8.6332512"
             x="124.93854"
             y="49.971478"
             rx="4.99999"
             ry="2.4753411" />
          <ellipse
             style="fill:none;stroke:#000000;stroke-width:3;stroke-linecap:round;stroke-linejoin:round;stroke-miterlimit:4;stroke-dasharray:none;stroke-opacity:1;paint-order:stroke fill markers"
             id="path1081"
             cx="133.78334"
             cy="133.62819"
             rx="6"
             ry="7" />
          <path
             style="fill:none;stroke:#000000;stroke-width:3;stroke-linecap:round;stroke-linejoin:miter;stroke-miterlimit:4;stroke-dasharray:none;stroke-opacity:1"
             d="m 124.90315,149.29452 h 17.77118"
             id="path1085"
             inkscape:path-effect="#path-effect1087"
             inkscape:original-d="m 124.90315,149.29452 c 7.30691,2.6e-4 10.4648,2.6e-4 17.77118,0"
             sodipodi:nodetypes="cc" />
          <path
             style="fill:none;stroke:#000000;stroke-width:3;stroke-linecap:round;stroke-linejoin:miter;stroke-miterlimit:4;stroke-dasharray:none;stroke-opacity:1"
             d="m 124.903,154.295 h 17.77118"
             id="path1085-5"
             inkscape:path-effect="#path-effect1110"
             inkscape:original-d="m 124.903,154.295 c 7.30691,2.6e-4 10.4648,2.6e-4 17.77118,0"
             sodipodi:nodetypes="cc" />
        </g>
      </g>
      <path
         style="fill:none;stroke:#000000;stroke-width:6;stroke-linecap:round;stroke-linejoin:miter;stroke-miterlimit:4;stroke-dasharray:none;stroke-opacity:0.25098"
         d="m 118.62149,44.524342 c -0.10826,8.498555 -0.0158,16.999667 0.27726,25.493858 0.13745,3.983708 0.31905,7.968077 0.27382,11.953899 -0.0142,1.252807 -0.049,2.522695 0.24892,3.739634 0.37074,1.514145 1.23217,2.852619 2.02459,4.195062 1.95032,3.304044 3.55321,6.799844 5.38469,10.171215 1.70253,3.134 3.62249,6.20718 4.56363,9.64736 1.10496,4.03897 0.78833,8.30677 0.73244,12.49378 -0.0785,5.87978 0.37463,11.75177 0.63236,17.62642 0.46357,10.56645 0.29475,21.15935 -0.46199,31.70886 -0.13089,1.82467 -0.27578,3.69035 0.19869,5.45711 0.14241,0.5303 0.33948,1.04584 0.45592,1.58244 0.11644,0.5366 0.14844,1.10847 -0.0372,1.62522 -0.1899,0.5286 -0.60015,0.96303 -1.09005,1.23777 -0.48989,0.27474 -1.05494,0.39778 -1.61635,0.41525 -1.12281,0.0349 -2.21233,-0.33492 -3.30748,-0.58508 -2.60986,-0.59616 -5.37196,-0.51252 -7.94096,0.24047"
         id="path1295"
         inkscape:path-effect="#path-effect1297"
         inkscape:original-d="m 118.62149,44.524342 c 0.15412,9.067472 0.12643,16.414086 0.27726,25.493858 0.15083,9.079772 0.18281,7.96953 0.27382,11.953899 0.091,3.984365 0.16621,2.493354 0.24892,3.739634 0.0827,1.24628 1.36105,2.873947 2.02459,4.195062 0.66354,1.321117 3.72005,6.530906 5.38469,10.171215 1.66464,3.6403 2.90163,6.60502 4.56363,9.64736 1.662,3.04233 0.48856,8.32945 0.73244,12.49378 0.24388,4.16432 0.42184,11.75121 0.63236,17.62642 0.21052,5.87521 -0.43499,24.69312 -0.46199,31.70886 -0.0271,7.01574 0.25996,0.0847 0.19869,5.45711 -0.0613,5.37239 1.20446,2.00415 0.41871,3.20766 -0.39288,0.60176 -3.04279,0.90381 -6.01388,1.06794 -2.97108,0.16413 -6.26335,0.19036 -7.94096,0.24047"
         sodipodi:nodetypes="csssssssscsssc" />
    </g>
    <g
       id="g1337"
       transform="translate(-79.492991,-26.979187)">
      <g
         id="g1278">
        <path
           style="fill:#fbaf2b;fill-opacity:1;stroke:none;stroke-width:0.264583px;stroke-linecap:butt;stroke-linejoin:miter;stroke-opacity:1"
           d="m 151.94554,168.21035 c 3.81352,-0.18496 7.63311,-0.24487 11.45056,-0.1796 4.63961,0.0793 9.28734,0.34328 13.91491,0 2.13517,-0.15839 4.28936,-0.44526 6.40632,-0.12509 0.49046,0.0742 0.97674,0.18078 1.47113,0.22121 0.4944,0.0404 1.0046,0.0117 1.46383,-0.17581 0.54577,-0.22287 0.98479,-0.65768 1.30522,-1.1525 0.32043,-0.49483 0.53285,-1.05068 0.73002,-1.60625 0.98048,-2.76276 1.64623,-5.69321 1.40228,-8.61463 -0.13639,-1.63335 -0.55346,-3.22798 -0.87332,-4.8355 -0.31985,-1.60752 -0.54334,-3.26335 -0.28833,-4.88242 0.0946,-0.60091 0.25509,-1.19766 0.23991,-1.80579 -0.008,-0.30406 -0.0603,-0.60965 -0.18281,-0.88807 -0.12247,-0.27842 -0.31742,-0.52889 -0.57386,-0.69245 -0.23312,-0.14868 -0.50992,-0.2214 -0.78618,-0.23284 -0.27626,-0.0114 -0.55255,0.0363 -0.8178,0.11442 -0.5305,0.15614 -1.01813,0.43096 -1.53846,0.61822 -1.15917,0.41718 -2.43343,0.38362 -3.65246,0.20564 -1.21904,-0.17797 -2.41646,-0.49436 -3.64104,-0.62899 -2.51504,-0.2765 -5.0459,0.22105 -7.57563,0.26941 -4.30332,0.0823 -8.61032,-1.13499 -12.87449,-0.55005 -1.4728,0.20203 -2.96218,0.61785 -4.42257,0.33997 -0.56959,-0.10838 -1.11627,-0.32035 -1.68806,-0.41646 -0.2859,-0.048 -0.57869,-0.0667 -0.86596,-0.0277 -0.28727,0.039 -0.56949,0.13752 -0.80371,0.30836 -0.34452,0.2513 -0.56503,0.64387 -0.68575,1.05286 -0.12072,0.40899 -0.15081,0.8384 -0.17995,1.26384 -0.25906,3.78197 -0.49871,7.56934 -0.46466,11.36002 0.0189,2.10071 0.12638,4.22777 0.74678,6.23487 0.55298,1.78899 1.51203,3.45118 2.78408,4.82528 z"
           id="path1256"
           inkscape:path-effect="#path-effect1258"
           inkscape:original-d="m 151.94554,168.21035 c 0.92777,1.60817 7.63397,-0.11947 11.45056,-0.1796 3.81659,-0.0601 9.27687,2.6e-4 13.91491,0 4.63804,-2.7e-4 4.27115,-0.0831 6.40632,-0.12509 2.13517,-0.042 1.9569,0.0305 2.93496,0.0454 0.97805,0.0149 1.35709,-1.8389 2.03524,-2.75875 0.67815,-0.91984 0.93512,-5.74282 1.40228,-8.61463 0.46716,-2.87181 -0.77417,-6.47835 -1.16165,-9.71792 -0.38748,-3.23957 -0.34424,-2.25727 -0.51676,-3.38631 -0.17252,-1.12903 -2.0947,0.33347 -3.14244,0.4998 -1.04774,0.16634 -4.86207,-0.28197 -7.2935,-0.42335 -2.43144,-0.14139 -5.05015,0.17987 -7.57563,0.26941 -2.52547,0.0895 -8.58273,-0.36643 -12.87449,-0.55005 -4.29176,-0.18361 -2.94811,0.22691 -4.42257,0.33997 -1.47445,0.11306 -2.23822,-0.0902 -3.35773,-0.13578 -1.11951,-0.0455 -0.57687,1.54473 -0.8657,2.3167 -0.28883,0.77197 -0.30951,7.57361 -0.46466,11.36002 -0.15515,3.78642 0.49812,4.15685 0.74678,6.23487 0.24866,2.07802 1.85632,3.21712 2.78408,4.82528 z" />
        <path
           style="fill:#8aceb6;fill-opacity:1;stroke:none;stroke-width:0.264583px;stroke-linecap:butt;stroke-linejoin:miter;stroke-opacity:1"
           d="m 151.94554,168.21035 c 0.057,1.10013 0.40648,2.18378 1.00304,3.10988 0.59655,0.92609 1.43871,1.6924 2.41683,2.19916 1.35486,0.70194 2.9103,0.89246 4.43087,1.0199 4.6442,0.38924 9.31324,0.29669 13.973,0.37846 2.92026,0.0512 5.95992,0.1484 8.62038,-1.05679 0.67209,-0.30446 1.31202,-0.6914 1.8529,-1.19325 0.54088,-0.50184 0.98074,-1.12262 1.21717,-1.82155 0.13096,-0.38715 0.1989,-0.79834 0.17099,-1.20609 -0.0279,-0.40775 -0.15414,-0.81195 -0.38672,-1.14802 -0.27376,-0.39557 -0.68643,-0.68415 -1.13744,-0.85153 -0.451,-0.16737 -0.93926,-0.2186 -1.41988,-0.19798 -0.96124,0.0412 -1.88556,0.36083 -2.82776,0.5556 -2.50813,0.51848 -5.10067,0.14792 -7.6586,0.0192 -3.4592,-0.17407 -6.92507,0.0991 -10.38847,0.0641 -2.21346,-0.0224 -4.42626,-0.17068 -6.63899,-0.10958 -1.07868,0.0298 -2.15597,0.10935 -3.22732,0.23837"
           id="path1260"
           inkscape:path-effect="#path-effect1262"
           inkscape:original-d="m 151.94554,168.21035 c -2.7e-4,-2.6e-4 2.28018,3.53963 3.41987,5.30904 1.1397,1.76942 2.95418,0.6802 4.43087,1.0199 1.47669,0.33971 9.3156,0.25257 13.973,0.37846 4.6574,0.12588 5.74718,-0.70426 8.62038,-1.05679 2.87319,-0.35252 2.04698,-2.0096 3.07007,-3.0148 1.0231,-1.00519 -0.14356,-1.56914 -0.21573,-2.35411 -0.0722,-0.78496 -3.58979,-0.32901 -5.38508,-0.49391 -1.79529,-0.1649 -5.10547,0.0131 -7.6586,0.0192 -2.55313,0.006 -6.92538,0.043 -10.38847,0.0641 -3.46309,0.0211 -4.42573,-0.0728 -6.63899,-0.10958 -2.21326,-0.0368 -2.15128,0.15918 -3.22732,0.23837" />
        <path
           style="fill:#cdeae0;fill-opacity:1;stroke:none;stroke-width:0.264583px;stroke-linecap:butt;stroke-linejoin:miter;stroke-opacity:1"
           d="m 149.74504,143.47348 c 5.09942,-0.20629 10.21166,-0.095 15.29728,0.33285 4.13372,0.34781 8.28662,0.90487 12.41504,0.49893 2.74976,-0.27038 5.45042,-0.96567 8.20874,-1.12684 0.3975,-0.0232 0.80717,-0.0379 1.16995,-0.20205 0.28822,-0.13038 0.53131,-0.35078 0.71018,-0.6117 0.17887,-0.26091 0.29546,-0.5613 0.36435,-0.87005 0.14795,-0.66307 0.0789,-1.35673 -0.0617,-2.02139 -0.1406,-0.66467 -0.3515,-1.31296 -0.49014,-1.97803 -0.2394,-1.14842 -0.26888,-2.36298 -0.77996,-3.41891 -0.43378,-0.89623 -1.21072,-1.62226 -2.13661,-1.98848 -1.00089,-0.39589 -2.11004,-0.37049 -3.18624,-0.38808 -3.99201,-0.0652 -7.9435,-0.79898 -11.9291,-1.03433 -1.73803,-0.10263 -3.48314,-0.11026 -5.21913,0.0225 -2.33277,0.1784 -4.6464,0.6098 -6.98549,0.65775 -0.85649,0.0176 -1.71949,-0.016 -2.56393,0.12829 -0.66069,0.11287 -1.32064,0.34514 -1.81715,0.79539 -0.43425,0.39379 -0.71728,0.93133 -0.89658,1.48944 -0.17931,0.55812 -0.2623,1.14173 -0.35219,1.72101 -0.4185,2.69693 -1.00241,5.36819 -1.74737,7.99376 z"
           id="path1264"
           inkscape:path-effect="#path-effect1266"
           inkscape:original-d="m 149.74504,143.47348 c -0.58272,2.66432 10.19845,0.22217 15.29728,0.33285 5.09883,0.11069 8.27696,0.33288 12.41504,0.49893 4.13809,0.16605 5.47276,-0.75096 8.20874,-1.12684 2.73598,-0.37588 0.78023,-0.13444 1.16995,-0.20205 0.38972,-0.0676 0.71661,-0.98757 1.07453,-1.48175 0.35791,-0.49417 -0.36759,-2.66601 -0.55179,-3.99942 -0.18419,-1.3334 -0.51971,-2.27901 -0.77996,-3.41891 -0.26026,-1.1399 -1.42414,-1.32539 -2.13661,-1.98848 -0.71247,-0.6631 -2.1239,-0.25846 -3.18624,-0.38808 -1.06235,-0.12962 -7.95247,-0.68929 -11.9291,-1.03433 -3.97664,-0.34504 -3.47916,0.0152 -5.21913,0.0225 -1.73998,0.007 -4.65673,0.43877 -6.98549,0.65775 -2.32876,0.21899 -1.70902,0.0858 -2.56393,0.12829 -0.8549,0.0425 -1.21117,0.53053 -1.81715,0.79539 -0.60598,0.26487 -0.83225,2.14057 -1.24877,3.21045 -0.41653,1.06988 -1.16465,5.32943 -1.74737,7.99376 z" />
        <g
           id="g1254"
           transform="translate(-125.25912,20.115774)"
           style="stroke:#000000;stroke-opacity:1">
          <path
             style="fill:none;stroke:#000000;stroke-width:3;stroke-linecap:round;stroke-linejoin:miter;stroke-miterlimit:4;stroke-dasharray:none;stroke-opacity:1"
             d="m 283.1025,154.50638 c -3.15708,-1.4218 -5.82461,-3.90556 -7.46776,-6.95329 -1.992,-3.69478 -2.44529,-8.02936 -2.35649,-12.22598 0.0873,-4.1256 0.66007,-8.22911 1.46037,-12.27729 0.80891,-4.09171 1.85111,-8.13728 3.11986,-12.11052"
             id="path1168"
             inkscape:path-effect="#path-effect1170"
             inkscape:original-d="m 283.1025,154.50638 c -2.48899,-2.3175 -4.97824,-4.63526 -7.46776,-6.95329 -2.48952,-2.31803 -1.57073,-8.15039 -2.35649,-12.22598 -0.78576,-4.07559 0.97385,-8.18459 1.46037,-12.27729 0.48652,-4.09269 2.08015,-8.07341 3.11986,-12.11052" />
          <path
             style="fill:none;stroke:#000000;stroke-width:3;stroke-linecap:round;stroke-linejoin:miter;stroke-miterlimit:4;stroke-dasharray:none;stroke-opacity:1"
             d="m 305.58871,154.50638 c 3.15708,-1.4218 5.82461,-3.90556 7.46776,-6.95329 1.992,-3.69478 2.44529,-8.02936 2.35649,-12.22598 -0.0873,-4.1256 -0.66007,-8.22911 -1.46037,-12.27729 -0.80891,-4.09171 -1.85111,-8.13728 -3.11986,-12.11052"
             id="path1168-4"
             inkscape:path-effect="#path-effect1193"
             inkscape:original-d="m 305.58871,154.50638 c 2.48899,-2.3175 4.97824,-4.63526 7.46776,-6.95329 2.48952,-2.31803 1.57073,-8.15039 2.35649,-12.22598 0.78576,-4.07559 -0.97385,-8.18459 -1.46037,-12.27729 -0.48652,-4.09269 -2.08015,-8.07341 -3.11986,-12.11052" />
          <path
             style="fill:none;stroke:#000000;stroke-width:3;stroke-linecap:round;stroke-linejoin:miter;stroke-miterlimit:4;stroke-dasharray:none;stroke-opacity:1"
             d="m 283.1025,154.50638 h 22.48622"
             id="path1198"
             inkscape:path-effect="#path-effect1200"
             inkscape:original-d="m 283.1025,154.50638 c 7.49567,2.6e-4 14.99108,2.6e-4 22.48622,0" />
          <path
             style="fill:none;stroke:#000000;stroke-width:3;stroke-linecap:butt;stroke-linejoin:miter;stroke-miterlimit:4;stroke-dasharray:none;stroke-opacity:1"
             d="m 277.85848,110.9393 h 32.97425"
             id="path1202"
             inkscape:path-effect="#path-effect1204"
             inkscape:original-d="m 277.85848,110.9393 c 10.99167,2.6e-4 21.98309,2.6e-4 32.97425,0" />
          <path
             style="fill:none;stroke:#000000;stroke-width:3;stroke-linecap:butt;stroke-linejoin:miter;stroke-miterlimit:4;stroke-dasharray:none;stroke-opacity:1"
             d="m 275.00416,123.35771 h 38.66636"
             id="path1232"
             inkscape:path-effect="#path-effect1234"
             inkscape:original-d="m 275.00416,123.35771 c 12.88904,2.6e-4 25.77785,2.6e-4 38.66636,0" />
          <path
             style="fill:none;stroke:#000000;stroke-width:3;stroke-linecap:butt;stroke-linejoin:miter;stroke-miterlimit:4;stroke-dasharray:none;stroke-opacity:1"
             d="m 275.58497,147.83532 h 36.32644"
             id="path1244"
             inkscape:path-effect="#path-effect1246"
             inkscape:original-d="m 275.58497,147.83532 c 12.10908,2.7e-4 24.21789,2.7e-4 36.32644,0" />
        </g>
      </g>
      <path
         style="fill:none;stroke:#000000;stroke-width:6;stroke-linecap:round;stroke-linejoin:miter;stroke-miterlimit:4;stroke-dasharray:none;stroke-opacity:0.227451"
         d="m 181.86051,133.328 c 1.4178,3.07996 2.46938,6.32831 3.12555,9.65483 0.84457,4.28163 1.0324,8.67558 0.81315,13.0342 -0.15498,3.08096 -0.51417,6.16248 -1.29441,9.14704 -0.53547,2.04825 -1.3204,4.12626 -2.87093,5.56776 -1.6431,1.52756 -3.93289,2.14141 -6.15675,2.43749 -2.51086,0.33429 -5.06648,0.33078 -7.57642,-0.0104"
         id="path1291"
         inkscape:path-effect="#path-effect1293"
         inkscape:original-d="m 181.86051,133.328 c 1.07894,3.51539 2.05267,6.13142 3.12555,9.65483 1.07288,3.52342 0.54237,8.68974 0.81315,13.0342 0.27079,4.34447 -0.86267,6.09829 -1.29441,9.14704 -0.43173,3.04874 -1.91369,3.7121 -2.87093,5.56776 -0.95725,1.85565 -4.10424,1.62526 -6.15675,2.43749 -2.05252,0.81224 -5.2971,-0.26672 -7.57642,-0.0104"
         sodipodi:nodetypes="csssssc" />
    </g>
  </g>
</svg>
