<?xml version="1.0" encoding="UTF-8" standalone="no"?>
<svg
   xmlns:dc="http://purl.org/dc/elements/1.1/"
   xmlns:cc="http://creativecommons.org/ns#"
   xmlns:rdf="http://www.w3.org/1999/02/22-rdf-syntax-ns#"
   xmlns:svg="http://www.w3.org/2000/svg"
   xmlns="http://www.w3.org/2000/svg"
   xmlns:xlink="http://www.w3.org/1999/xlink"
   xmlns:sodipodi="http://sodipodi.sourceforge.net/DTD/sodipodi-0.dtd"
   xmlns:inkscape="http://www.inkscape.org/namespaces/inkscape"
   width="252.29683mm"
   height="36.684334mm"
   viewBox="0 0 252.29683 36.684334"
   version="1.1"
   id="svg2953"
   inkscape:version="1.0.2-2 (e86c870879, 2021-01-15)"
   sodipodi:docname="cervezaslogos4.svg">
  <defs
     id="defs2947">
    <style
       id="style3586">.cls-1{fill:#f2940a;}.cls-2{fill:#232e66;}.cls-3{fill:#fad50a;}.cls-4{fill:none;}.cls-5{fill:url(#linear-gradient);}.cls-6{fill:url(#linear-gradient-2);}.cls-7{fill:url(#linear-gradient-3);}.cls-8{fill:url(#linear-gradient-4);}.cls-9{fill:url(#linear-gradient-5);}.cls-10{fill:#fff;}.cls-11{fill:#db0a40;}.cls-12{fill:#d2003c;}</style>
    <linearGradient
       id="linear-gradient"
       x1="1120.02"
       y1="-23599.721"
       x2="1248.11"
       y2="-23508.881"
       gradientTransform="matrix(0.07,0,0,-0.01,51.73,41.88)"
       gradientUnits="userSpaceOnUse">
      <stop
         offset="0"
         stop-color="#52bce8"
         id="stop3588" />
      <stop
         offset="0.14"
         stop-color="#50b6e3"
         id="stop3590" />
      <stop
         offset="0.32"
         stop-color="#4aa4d3"
         id="stop3592" />
      <stop
         offset="0.54"
         stop-color="#3f88ba"
         id="stop3594" />
      <stop
         offset="0.77"
         stop-color="#316097"
         id="stop3596" />
      <stop
         offset="1"
         stop-color="#21336e"
         id="stop3598" />
    </linearGradient>
    <linearGradient
       id="linear-gradient-2"
       x1="-416.47"
       y1="480.20999"
       x2="-414.04999"
       y2="480.20999"
       gradientTransform="matrix(16.96,0,0,-7.67,-319.56717,4207.1643)"
       xlink:href="#linear-gradient" />
    <linearGradient
       id="linear-gradient-3"
       x1="-419.45001"
       y1="500.51001"
       x2="-417.04001"
       y2="500.51001"
       gradientTransform="matrix(35.27,0,0,-19.73,-351.31717,10373.274)"
       xlink:href="#linear-gradient" />
    <linearGradient
       id="linear-gradient-4"
       x1="-417.54999"
       y1="427.64999"
       x2="-415.14001"
       y2="427.64999"
       gradientTransform="matrix(18.93,0,0,-2.93,-333.44717,1777.1343)"
       xlink:href="#linear-gradient" />
    <linearGradient
       id="linear-gradient-5"
       x1="2.8900001"
       y1="503.47"
       x2="4.6199999"
       y2="503.47"
       gradientTransform="matrix(42.06,0,0,-26.61,-363.03717,13905.414)"
       gradientUnits="userSpaceOnUse">
      <stop
         offset="0"
         stop-color="#1885c8"
         id="stop3604" />
      <stop
         offset="0.13"
         stop-color="#197fc1"
         id="stop3606" />
      <stop
         offset="0.33"
         stop-color="#1a70ad"
         id="stop3608" />
      <stop
         offset="0.56"
         stop-color="#1c578d"
         id="stop3610" />
      <stop
         offset="0.82"
         stop-color="#1f3461"
         id="stop3612" />
      <stop
         offset="1"
         stop-color="#22183d"
         id="stop3614" />
      <stop
         offset="1"
         stop-color="#22183d"
         id="stop3616" />
    </linearGradient>
    <linearGradient
       inkscape:collect="always"
       xlink:href="#linear-gradient"
       id="linearGradient3691"
       gradientUnits="userSpaceOnUse"
       gradientTransform="matrix(0.07,0,0,-0.01,-313.06717,273.98426)"
       x1="1120.02"
       y1="-23599.721"
       x2="1248.11"
       y2="-23508.881" />
    <style
       id="style3709">.cls-1{fill:#e61d2b;}</style>
  </defs>
  <sodipodi:namedview
     id="base"
     pagecolor="#ffffff"
     bordercolor="#666666"
     borderopacity="1.0"
     inkscape:pageopacity="0.0"
     inkscape:pageshadow="2"
     inkscape:zoom="0.35"
     inkscape:cx="373.36859"
     inkscape:cy="425.0386"
     inkscape:document-units="mm"
     inkscape:current-layer="layer1"
     inkscape:document-rotation="0"
     showgrid="false"
     fit-margin-top="0"
     fit-margin-left="0"
     fit-margin-right="0"
     fit-margin-bottom="0"
     inkscape:window-width="1258"
     inkscape:window-height="728"
     inkscape:window-x="52"
     inkscape:window-y="0"
     inkscape:window-maximized="0" />
  <metadata
     id="metadata2950">
    <rdf:RDF>
      <cc:Work
         rdf:about="">
        <dc:format>image/svg+xml</dc:format>
        <dc:type
           rdf:resource="http://purl.org/dc/dcmitype/StillImage" />
        <dc:title></dc:title>
      </cc:Work>
    </rdf:RDF>
  </metadata>
  <g
     inkscape:label="Capa 1"
     inkscape:groupmode="layer"
     id="layer1"
     transform="translate(-7.0462276,-35.708537)">
    <g
       id="g3689"
       transform="matrix(0.26458333,0,0,0.26458333,7.0409472,43.32193)">
      <path
         class="cls-1"
         d="m 127.51,231.53 -0.58,0.28 c -2,1.43 -2.51,3.26 -2.33,3.41 l 3.79,-2.16 c 5.37,-2.25 13.13,-4.93 15.7,-5.29 -0.09,0 -10.43,0.56 -16.59,3.75 m 33.34,-0.9 a 44.72,44.72 0 0 0 -13.6,-0.64 c -10.54,1.09 -15.61,2.63 -18.16,3.64 l -5.65,2 -1.35,1.44 4.13,-0.38 4.47,-1.71 a 55.34,55.34 0 0 1 5.67,-1.61 c 10.36,-2.48 26.72,-2.14 24.5,-2.76 m 34,21.2 a 49.53,49.53 0 0 0 -2,-10.3 l -0.68,-1.91 a 48.35,48.35 0 0 0 -5.22,-9.85 c -2.74,-3.62 -5.69,-7.67 -17.62,-11.15 11.35,2.76 12.2,4.17 13.68,5.16 l -1.74,-1.69 c -8.63,-6.38 -22.2,-9.4 -35.61,-6.89 8.37,-2.72 22.12,-2.38 30.71,2.95 -9.08,-5.69 -15.7,-6.42 -22.16,-6.94 -1,-0.06 -2.14,-0.11 -3.43,-0.11 -11.58,0 -25.57,5.82 -32.78,12.38 -0.64,0.56 -1.18,1.09 -1.65,1.58 -2.23,2.61 -0.75,4.39 0.32,5 0.38,0.21 -0.08,4 0.26,4.26 1.16,0.77 5.25,-4 7.11,-4.84 A 67.6,67.6 0 0 1 164,225 c 14.69,4.13 21,11.07 21.39,11.61 0.39,0.54 2.85,3 2.8,4 a 0.51,0.51 0 0 1 -0.54,0.06 12,12 0 0 1 -1.16,-1.11 0.75,0.75 0 0 1 -0.21,-0.13 A 34.41,34.41 0 0 0 178,234 c -4.5,-1.91 -9.66,-2.44 -14.09,-3.64 5.07,2 10.39,2.63 15.14,5.33 5.67,3.19 9.74,8.89 9.79,8.93 a 24.91,24.91 0 0 1 5,17.56 3.62,3.62 0 0 1 0,0.45 v 0.09 0 a 33.24,33.24 0 0 1 -0.64,3.83 c -0.17,0.71 -0.41,1.5 -0.68,2.44 l 0.06,-0.06 a 42.4,42.4 0 0 0 2.27,-17.19 m -22.7,-22.23 h 0.49 c 0.19,-0.34 -2.36,-1.31 -3.3,-1.54 a 35.45,35.45 0 0 0 -3.94,-1 c 0,0 -0.43,0.17 2.35,1.07 0.69,0.23 0.21,0.94 4.39,1.41"
         transform="translate(-34.05,-211.1)"
         id="path3623" />
      <path
         class="cls-2"
         d="m 185.77,251.42 c -0.32,-0.15 -0.64,-0.26 -0.94,-0.38 l 0.94,0.38"
         transform="translate(-34.05,-211.1)"
         id="path3625" />
      <path
         class="cls-3"
         d="m 193.82,262.23 a 24.91,24.91 0 0 0 -5,-17.56 c -0.06,0 -4.13,-5.74 -9.79,-8.93 -4.75,-2.7 -10.08,-3.32 -15.14,-5.33 4.43,1.2 9.61,1.73 14.07,3.64 a 34.35,34.35 0 0 1 8.33,5.44 l 0.19,0.13 c 0.38,0.39 0.77,0.75 1.18,1.13 a 0.52,0.52 0 0 0 0.54,-0.08 c 0.06,-1 -2.38,-3.49 -2.78,-4 -0.4,-0.51 -5.84,-8.82 -20.55,-13 -18.46,-3.56 -34.15,2.8 -40.83,5.78 -1.88,1 -2.81,4.5 -2.29,4.93 0.52,0.43 2.33,-0.6 5.16,-2.59 l 0.56,-0.28 c 6.17,-3.19 16.51,-3.75 16.61,-3.75 -2.57,0.38 -10.32,3 -15.7,5.29 l -2.25,0.94 -1.26,1.24 4.2,-1.61 c 2.55,-1 7.62,-2.55 18.16,-3.64 a 44.72,44.72 0 0 1 13.6,0.64 c 2.21,0.62 -14.15,0.28 -24.5,2.76 a 55.34,55.34 0 0 0 -5.67,1.61 l -6.51,1.88 c 0.68,0.69 4.22,5.18 5.22,6.45 l 1.76,1 c 0.19,0.21 1.69,0.75 1.84,1 l 2.06,-1 c 0.34,0.43 -1.88,1.5 -1.59,1.88 0.45,0.53 1.78,-1.88 4.05,-3.3 13.19,-6.75 23.53,-6.94 28.43,-6.83 a 13.16,13.16 0 0 1 2.55,0.41 c 0.73,0.38 -5.38,0.66 -3.9,1.11 1.31,0.38 4.71,-0.51 5.07,-0.56 A 0.84,0.84 0 0 0 170,237 a 0.9,0.9 0 0 1 0.43,-0.06 29.75,29.75 0 0 1 3.88,0.19 c 3.51,0.84 0.23,1.29 -1,1 a 9.06,9.06 0 0 0 -1.82,0 c -0.45,0.11 -1.35,0.21 -1.78,0.32 -0.66,0.15 -1.91,0.32 -2.55,0.43 -0.38,0.06 -4.5,-0.06 -3.87,0.49 a 24.21,24.21 0 0 1 3.66,0.43 10,10 0 0 0 1.5,0 5.12,5.12 0 0 1 1.07,-0.06 0.88,0.88 0 0 0 0.53,-0.17 1.42,1.42 0 0 1 0.79,-0.15 c 0.23,0 0.6,0.11 0.53,0.28 -0.66,1.58 -1.78,1.41 -3.83,1.26 A 22.62,22.62 0 0 0 164,241 c -2.38,0.19 -4.9,1.26 -5.33,0.88 -0.43,-0.38 2.78,-1.44 1.93,-1.61 -1.39,-0.23 -12.2,3.62 -12.78,5.12 h 0.06 c -0.09,0.23 0,0.28 0.24,0.36 0.56,0.11 2.83,-0.71 3.4,-0.75 0.57,-0.04 0.88,-0.32 1.54,-0.32 0.51,0 2.31,-0.9 2.81,-0.9 0.94,0 1.31,0.47 2.27,0.26 0.77,-0.19 1.74,-0.08 2.5,-0.34 0.76,-0.26 1.48,-0.51 2.21,-0.69 a 4.3,4.3 0 0 0 0.53,-0.17 l 0.75,-0.13 c 0.19,0 1.44,0.53 1.37,0.68 1.69,1 2.14,1.76 3.56,1.84 h 0.58 l 1,-0.19 1.29,-0.23 a 9,9 0 0 1 1.88,0 12.1,12.1 0 0 1 1.65,0.26 c 0.66,0.09 -0.11,0.53 -0.36,0.66 a 14.63,14.63 0 0 1 -2.46,1.22 3.69,3.69 0 0 1 -1.67,0.38 3.11,3.11 0 0 0 -0.92,0.13 2.81,2.81 0 0 1 -0.6,0.17 h -0.56 a 6.64,6.64 0 0 0 -0.81,0 l -0.32,0.09 h -0.26 a 1.44,1.44 0 0 0 -0.56,0.06 1.05,1.05 0 0 1 -0.43,0.15 h -0.23 a 1.24,1.24 0 0 0 -0.6,0.06 3.64,3.64 0 0 1 -1.61,0.23 c 0,0 -3.85,0.26 -3.88,0.3 a 8,8 0 0 1 -0.94,0.34 c -0.66,0.32 -1.35,0.6 -2,0.86 a 3.6,3.6 0 0 1 -0.41,0.06 l -1.33,0.38 -0.58,0.45 a 2.52,2.52 0 0 1 -0.86,0.38 c -0.24,0 -0.47,0.13 -0.71,0.17 a 1.13,1.13 0 0 0 -0.51,0.32 c -0.17,0.11 -0.38,0.08 -0.54,0.17 -0.34,0.19 -5,1.74 -5.37,1.93 l -0.45,0.19 a 4.62,4.62 0 0 0 -0.64,0.41 1,1 0 0 0 -0.09,0.75 v 0 0.09 a 2.59,2.59 0 0 0 1.26,0 1.39,1.39 0 0 0 0.47,-0.09 3.7,3.7 0 0 1 0.64,-0.08 4,4 0 0 0 1.31,-0.53 c 5,-1.13 13.43,-4.62 21.76,-5.18 0.09,0 8.78,-0.38 14.62,2.33 1.73,0.81 9.81,5.33 6.57,18.24 v 0.11 0 l 0.24,-0.66 v -0.09 0 c 0.26,-0.9 0.51,-1.71 0.68,-2.44 a 36.92,36.92 0 0 0 0.64,-3.81 v -0.13 a 3.64,3.64 0 0 1 0,-0.45 m -28.39,-35.11 a 36.17,36.17 0 0 1 3.92,1 c 0.94,0.24 3.49,1.2 3.3,1.54 h -0.51 c -4.18,-0.47 -3.7,-1.18 -4.39,-1.41 -2.78,-0.9 -2.31,-1.07 -2.33,-1.07 m -2.87,18.11 0.38,-0.19 a 15.36,15.36 0 0 0 -4.69,0.86 10.08,10.08 0 0 0 -2.36,1.22 c -0.19,0.34 0.24,0.54 0.32,0.56 1.26,0.24 1.33,-0.17 6.36,-2.44"
         transform="translate(-34.05,-211.1)"
         id="path3627" />
      <path
         class="cls-4"
         d="m 171.7,268.23 a 1.69,1.69 0 0 1 1.61,0.08 c 1.54,-2 3.15,-2.7 4.54,-4.8 l 1.31,-2.06 c 1.16,-2.1 1.28,-4.13 1.69,-5.7 l -0.26,0.45 c -0.09,0.09 -0.64,2.5 -1.9,2.5 -0.41,0 -1.43,-0.19 -1.29,-0.68 -0.94,3.25 -3.81,4.69 -5,7.37 1.2,0.61 -0.85,1.91 -0.7,2.84 z"
         transform="translate(-34.05,-211.1)"
         id="path3629" />
      <path
         class="cls-5"
         d="m 129.17,277.93 h 0.08 0.06 -0.11 z"
         transform="translate(-34.05,-211.1)"
         id="path3631"
         style="fill:url(#linearGradient3691)" />
      <path
         class="cls-6"
         d="m 180.48,284.67 q -3.25,2.21 -6.57,4.32 c -7,4.43 -14.37,8.27 -23,9.76 -0.75,0.13 -1.5,0.23 -2.27,0.32 v 0 c 6.62,-0.53 10.41,-1 16.72,-4 5.59,-2.73 12.14,-7.87 15.12,-10.4 z"
         transform="translate(-34.05,-211.1)"
         id="path3633"
         style="fill:url(#linear-gradient-2)" />
      <path
         class="cls-7"
         d="m 125,281.67 a 15.31,15.31 0 0 0 1.69,1 c 4.78,2.55 11.75,3.9 8.37,2.35 -7.09,-4 -2,-1.35 4.26,0.11 a 45.72,45.72 0 0 0 14,1.2 c 7.37,-2.85 13.64,-6.94 17.15,-10.83 a 16.65,16.65 0 0 1 -2.18,1.24 c -0.09,0 -7.15,2.06 2.06,-4.56 7,-5 11.91,-11.63 13.77,-20 a 4,4 0 0 1 0.6,-1.16 l 0.73,0.28 c -0.56,2.68 -1.18,4.93 -2,7.56 0.69,-0.86 1.09,-1.13 1.76,-2 -1.59,6.15 -5.38,10.28 -9.51,14.84 -1.11,1.24 1.61,-0.08 -0.75,2.48 0.56,-0.62 0.43,-0.28 0.88,-0.06 1.88,-2.36 4.92,-2.5 6.62,-5.07 4.45,-6.79 6,-10.56 7.07,-14.82 l 0.09,0.11 v -0.06 a 14,14 0 0 0 -3.68,-2.83 19,19 0 0 0 -6.17,-1.84 l -1.22,-0.19 c -3,7.07 -3.4,12 -10,15.89 -7.32,4.77 -2.74,3.55 -2.66,3.51 a 8.9,8.9 0 0 0 1.61,-0.86 c -2.81,4.54 -7.79,7.43 -13.7,8.72 -0.13,0.43 -2.18,0.38 -2.53,0.68 a 1.57,1.57 0 0 1 -1.22,0.66 c 0.21,0.62 -1.22,0.84 -1.63,1.41 -0.56,0.75 0.49,1.07 -0.77,1.13 l -1,-0.53 c -4.54,0 -6.42,-1.37 -7.88,-2.66 l -3,0.08 c -0.49,0.36 -2,0.34 -3.11,0.79 A 1.29,1.29 0 0 1 131.96,278 c -0.45,-0.23 -1,-0.45 -1.16,0 -0.16,0.45 -1.18,0 -1.58,0 -0.23,0.11 -1.69,0.77 -1.35,0.83 -1.69,-0.28 -1.11,0.24 -2.7,0.79 l -1.54,0.06 c -0.39,0.04 -0.21,1.01 1.37,1.99 z m 47.38,-16.29 c 1.24,-2.68 4.11,-4.13 5,-7.37 -0.13,0.49 0.88,0.68 1.29,0.68 1.26,0 1.8,-2.4 1.88,-2.5 l 0.3,-0.45 c -0.43,1.58 -0.54,3.6 -1.71,5.72 l -1.31,2 c -1.39,2.1 -3,2.85 -4.54,4.8 a 1.69,1.69 0 0 0 -1.61,-0.08 c -0.13,-0.88 1.9,-2.18 0.68,-2.8 z"
         transform="translate(-34.05,-211.1)"
         id="path3635"
         style="fill:url(#linear-gradient-3)" />
      <path
         class="cls-8"
         d="m 161.81,290.58 q -4.77,1.24 -9.53,2.53 c -3.38,0.94 -7,2.25 -17.28,1.29 h -0.19 a 22.15,22.15 0 0 1 -4.47,0.13 c -1.46,-0.09 -4.07,-0.51 -4,-0.49 0.07,0.02 0.56,0.21 1,0.38 v 0 c 0,0 1.31,-0.19 5.93,0.75 1.82,0.38 3.62,0.47 5.5,0.69 h 0.11 a 25.35,25.35 0 0 0 4.13,0.19 45,45 0 0 0 10,-1.69 c 5.4,-1.54 9.34,-3.56 8.86,-3.77 z"
         transform="translate(-34.05,-211.1)"
         id="path3637"
         style="fill:url(#linear-gradient-4)" />
      <path
         class="cls-9"
         d="m 193.09,263.07 v -0.23 l -0.06,-0.68 V 262 q 0,-0.34 -0.11,-0.68 v -0.17 q -0.07,-0.38 -0.15,-0.75 l -0.09,-0.39 -0.09,-0.34 q -0.1,-0.35 -0.21,-0.69 l -0.19,-0.45 q -0.12,-0.33 -0.26,-0.66 a 0.14,0.14 0 0 0 0,-0.11 l -0.24,-0.51 a 13.27,13.27 0 0 0 -2.08,-3 c -1.09,4.26 -2.63,8 -7.07,14.82 -1.71,2.57 -4.75,2.7 -6.62,5.07 -0.45,-0.23 -0.32,-0.56 -0.9,0.06 2.38,-2.55 -0.34,-1.24 0.77,-2.48 4.13,-4.56 7.92,-8.69 9.51,-14.84 -0.68,0.84 -1.07,1.11 -1.76,2 0.77,-2.63 1.37,-4.88 2,-7.56 l -0.73,-0.28 a 4,4 0 0 0 -0.6,1.16 c -1.88,8.41 -6.81,15 -13.77,20 -9.21,6.6 -2.16,4.6 -2.06,4.56 a 13.85,13.85 0 0 0 2.18,-1.24 c -3.51,3.9 -9.76,8 -17.15,10.83 -12.46,4.8 -28.09,6.12 -39.06,-2.81 a 50.2,50.2 0 0 0 7.9,6.47 c -1.65,-0.28 -2.81,-1.56 -4.39,-2.06 0,0.08 3.79,5 15,6.27 l 2.25,0.23 c 10.26,0.94 13.9,-0.38 17.26,-1.31 q 4.76,-1.26 9.53,-2.5 c 0.49,0.19 -3.45,2.23 -8.86,3.75 A 43.92,43.92 0 0 1 143,296 a 27.43,27.43 0 0 1 -4.13,-0.15 h -0.13 c -1.88,-0.24 -3.68,-0.34 -5.5,-0.71 -4.63,-0.94 -5.93,-0.75 -5.93,-0.75 0,0 0.69,0.38 7.07,2.66 -0.39,0.15 -2.29,0.39 -10.13,-3 0.08,0.06 9.4,4.5 14.73,5 a 45.14,45.14 0 0 0 12,-0.41 c 8.59,-1.48 16,-5.33 23,-9.76 2.46,-1.54 4.88,-3.17 7.26,-4.77 v 0.19 l 0.51,0.08 c -0.09,0.26 -0.09,0.26 -1.41,1.84 2.85,-2.31 4.32,-5.91 7.37,-8.09 a 7.28,7.28 0 0 1 -0.86,1.59 l -0.28,0.41 a 41.45,41.45 0 0 1 -5.31,6.29 l -0.19,0.19 -0.6,0.53 a 51.79,51.79 0 0 1 -23.64,12.44 16,16 0 0 0 2.44,-0.49 c -1.44,0.41 -1.5,0.45 -2.1,0.66 l 2.35,-0.45 c -1.14,0.56 -2.48,0.83 -5.69,1.5 11.56,-2 21.16,-6.9 28.2,-14.22 0.32,-0.32 2.21,-2.36 2.83,-3.11 a 37.73,37.73 0 0 0 6.81,-11.33 21.68,21.68 0 0 0 0.81,-2.72 6,6 0 0 0 0.19,-0.79 c 0.3,-1.73 0.32,-1.73 0.45,-2.74 v -0.06 q 0.09,-1 0.09,-1.93 v -0.19 -0.75 z"
         transform="translate(-34.05,-211.1)"
         id="path3639"
         style="fill:url(#linear-gradient-5)" />
      <path
         class="cls-10"
         d="m 151.46,274.26 a 7.28,7.28 0 0 1 -2.63,-2.8 c -0.24,-0.38 -0.45,-0.81 -0.66,-1.2 l -0.26,-0.45 a 11.46,11.46 0 0 0 -1.44,-2.1 l -0.53,-0.56 -0.45,-0.51 a 1.76,1.76 0 0 1 -0.26,-0.41 c -2.33,-5.95 -2.87,-9.31 -3.72,-15.2 -0.43,-3.06 -2.29,-5.52 -5.31,-9.19 L 134.94,240.26 134,239 a 31.11,31.11 0 0 0 -2.44,-2.78 l -2.91,-2.46 -3.23,-2.72 q -2.31,-1.92 -4.8,-3.6 a 12.57,12.57 0 0 0 -7.13,-2.29 9.89,9.89 0 0 0 -5,1.26 28.28,28.28 0 0 1 -5.55,3.11 c -1.31,0.56 -2.68,1 -4.41,1.56 l -1.78,0.6 a 11.4,11.4 0 0 0 -4.33,2.72 l -0.68,0.66 q -0.34,0.34 -0.69,0.66 a 3.57,3.57 0 0 1 -1,0.73 6.59,6.59 0 0 1 -1.48,0.23 l -1.09,0.06 h -0.79 a 9.25,9.25 0 0 0 -5.22,2.35 c -0.62,0.51 -1.16,1 -1.73,1.5 l -0.24,0.24 a 16.2,16.2 0 0 1 -1.65,1.35 9.77,9.77 0 0 1 -4.85,1.4 21.17,21.17 0 0 0 -2.66,0.38 13.63,13.63 0 0 0 -3.26,1.04 27.46,27.46 0 0 0 -3.9,2.33 l -1.93,1.39 -1.66,1.28 c -2.5,1.74 -4.63,2.91 -6.94,2.91 a 3.81,3.81 0 0 1 -4.13,-3.41 c -0.21,-1.82 0.73,-3.66 2.63,-5.2 l 1,-0.84 c 0.77,-0.62 1.5,-1.2 2.14,-1.76 a 18.72,18.72 0 0 0 2.44,-2.44 6.75,6.75 0 0 0 1.19,-6.26 c -0.56,-2.21 -2.25,-3.72 -5.18,-4.58 a 24.39,24.39 0 0 0 -3.1,-0.66 l -0.34,-0.08 a 7,7 0 0 1 -0.83,-0.13 3.81,3.81 0 0 1 -0.68,-0.17 56.68,56.68 0 0 1 -5.74,-3.47 l -0.28,-0.19 -0.19,0.28 c -0.64,0.9 -1.13,1.61 -1.5,4.77 -0.41,3.47 2.44,7.71 7.37,8.48 a 0.66,0.66 0 0 1 0.56,0.53 0.64,0.64 0 0 1 -0.23,0.71 c -5.22,4.11 -6.32,5.87 -6.59,10.47 a 10.32,10.32 0 0 0 2.81,7.66 11.65,11.65 0 0 0 8.73,3.38 20.49,20.49 0 0 0 3.15,-0.26 0.68,0.68 0 0 1 0.69,0.64 c 0.26,3.21 0.83,5.82 1.56,7 a 0.71,0.71 0 0 1 -0.11,0.9 3.12,3.12 0 0 1 -1,0.58 13.32,13.32 0 0 1 -4.47,0.71 c -1.05,0 -1.84,0.73 -2.46,2.27 -0.21,0.51 -0.38,1.05 -0.53,1.56 l -0.06,0.15 -0.24,0.73 a 2.61,2.61 0 0 1 -0.23,0.53 4.48,4.48 0 0 1 -0.94,1.13 0.69,0.69 0 0 1 -0.47,0.17 H 47.49 A 0.71,0.71 0 0 1 47,275.73 3.51,3.51 0 0 0 44.6,274 h -0.13 a 6.51,6.51 0 0 0 -5.38,3.88 0.69,0.69 0 0 1 -0.56,0.43 H 38.4 a 2.8,2.8 0 0 0 -2.53,1.86 6.77,6.77 0 0 0 -0.38,1.5 l -0.09,0.34 a 8.82,8.82 0 0 1 -0.24,1.18 3.23,3.23 0 0 1 -0.36,0.88 l -0.23,0.41 -0.19,0.28 a 2.57,2.57 0 0 0 -0.19,2 1.72,1.72 0 0 0 1,1.07 7.33,7.33 0 0 0 1.56,0.56 13,13 0 0 0 2.42,0.36 1,1 0 0 0 0.45,-0.13 l 0.32,-0.23 a 0.71,0.71 0 0 1 0.56,-0.15 l 0.53,0.09 1.5,0.3 h 0.08 l 1.41,0.28 0.56,0.11 h 0.38 a 4.41,4.41 0 0 0 3.73,-1.78 7.39,7.39 0 0 0 0.49,-0.75 l 0.24,-0.41 0.19,-0.32 c 0.19,-0.3 0.36,-0.58 0.56,-0.86 a 0.65,0.65 0 0 1 0.56,-0.28 h 0.19 l 0.71,0.17 1.16,0.13 h 0.43 a 7.5,7.5 0 0 0 4.92,-2.25 l 0.43,-0.36 0.56,-0.49 a 8.43,8.43 0 0 1 1,-0.71 2.91,2.91 0 0 1 1.69,-0.62 h 0.11 a 59.4,59.4 0 0 1 6,0.69 6.91,6.91 0 0 0 2.72,-0.73 24.8,24.8 0 0 0 2.51,-1.45 5.17,5.17 0 0 1 0.71,-0.38 h 0.08 l 0.83,-0.39 a 5.63,5.63 0 0 0 1.91,-1.5 16.34,16.34 0 0 0 1.31,-2.36 l 0.53,-1.07 0.9,-1.84 a 0.71,0.71 0 0 1 0.64,-0.38 h 0.19 a 25.81,25.81 0 0 0 3.21,-0.32 l 1.31,-0.19 a 19,19 0 0 1 2.4,-0.32 c 0.15,0 0.56,0 1.11,0.08 l 1.26,0.08 q 2.83,0.17 5.67,0.08 a 10.51,10.51 0 0 0 3.1,-0.64 0.71,0.71 0 0 1 0.49,0.19 c 0.34,0.36 0.71,0.69 1.09,1 a 0.67,0.67 0 0 1 0.21,0.75 0.69,0.69 0 0 1 -0.6,0.47 H 99.1 a 2.63,2.63 0 0 0 -1.67,0.77 0.68,0.68 0 0 1 -0.56,0.26 0.79,0.79 0 0 1 -0.26,0 2.25,2.25 0 0 0 -0.88,-0.19 h -0.9 a 22.7,22.7 0 0 0 -3.38,0.23 5.6,5.6 0 0 0 -1.88,0.56 1.48,1.48 0 0 0 -0.86,1.39 c 0.08,1.31 1.93,4.88 3.19,6.14 a 3.26,3.26 0 0 0 2,0.51 h 0.36 a 0.68,0.68 0 0 1 0.62,0.38 c 1.29,2.53 3.53,4.26 5.57,4.26 h 0.13 c 2,-0.09 7.2,-2 10.88,-3.73 h 0.15 l 0.38,-0.08 0.75,-0.09 h 0.38 a 7.85,7.85 0 0 0 2.4,-0.56 7.4,7.4 0 0 0 2.29,-3 0.72,0.72 0 0 1 0.62,-0.38 h 0.06 a 0.73,0.73 0 0 1 0.62,0.51 3.81,3.81 0 0 0 0.32,0.81 3.44,3.44 0 0 0 3.34,1.76 H 123 a 12,12 0 0 0 3.32,-0.75 l 0.58,-0.19 a 16.92,16.92 0 0 1 2.53,-0.71 6.38,6.38 0 0 1 1.5,-0.08 l 1,0.08 h 0.68 a 8.68,8.68 0 0 0 1,0.06 5.47,5.47 0 0 0 2.38,-0.47 11.22,11.22 0 0 0 2.25,-1.31 l 0.19,-0.15 a 0.75,0.75 0 0 1 0.41,-0.13 0.69,0.69 0 0 1 0.45,0.19 13,13 0 0 0 8.72,3.26 h 0.45 a 2.9,2.9 0 0 0 2.29,-1 1.54,1.54 0 0 0 0.26,-1.33 0.69,0.69 0 0 1 0.47,-0.86 h 0.09 a 3.6,3.6 0 0 0 1.71,-0.75 1.88,1.88 0 0 0 0.64,-1.28 1,1 0 0 0 -0.32,-0.75 8.84,8.84 0 0 0 -2.14,-1.37 m -31,-5.4 c -0.47,0.6 -1.18,0.77 -1.84,1.93 -1.31,-0.53 -1.54,-2.25 -1.78,-3 1.05,-0.19 3.51,-0.66 4.8,-0.84 a 6.29,6.29 0 0 0 -1.18,1.91"
         transform="translate(-34.05,-211.1)"
         id="path3641" />
      <path
         class="cls-11"
         d="m 149.77,275.08 c -2.4,-1.41 -3.36,-4.05 -4.84,-6.14 -0.53,-0.75 -1.44,-1.26 -1.93,-2 a 55.94,55.94 0 0 1 -3.66,-14.73 15.59,15.59 0 0 0 -1.35,-3.94 89.75,89.75 0 0 0 -7.69,-9.94 l -0.77,-0.79 -9.53,-7.88 a 19,19 0 0 0 -3.81,-2 9.63,9.63 0 0 0 -6.68,0.24 c -2,1.09 -3.88,2.65 -6,3.38 -3.11,1.41 -6.64,1.69 -9.33,4.09 -1.58,1.35 -2.89,3.47 -5.22,3.11 a 9.94,9.94 0 0 0 -6.89,2.46 c -1.76,1.59 -3.43,3.49 -5.72,3.94 -2,0.84 -4.45,0.43 -6.49,1.2 -3.23,0.81 -5.82,3.38 -8.56,5.35 -2.76,1.59 -5.4,3.32 -8.86,3.25 a 5.94,5.94 0 0 1 -5.12,-3.88 6.47,6.47 0 0 1 2,-6.74 c 2,-2.44 5.29,-3.88 6.89,-6.7 a 5.2,5.2 0 0 0 -0.39,-5.29 c -2.14,-2.2 -5.18,-2.27 -7.94,-2.95 -1.76,-0.49 -3.13,-1.84 -4.69,-2.68 a 4.93,4.93 0 0 0 -0.73,3 7.28,7.28 0 0 0 4.65,5.69 c 1.41,0.6 3,0.17 4.45,0.47 a 1.39,1.39 0 0 1 0.84,1 1.6,1.6 0 0 1 -0.47,1.09 44.64,44.64 0 0 0 -6.49,6 c -2,2.16 -2.23,6 -1.18,8.69 a 9.34,9.34 0 0 0 7.53,5.62 c 2.29,0.38 4.32,-0.24 6.42,-0.69 a 0.75,0.75 0 0 1 0.51,0.45 c 0.21,1.84 -0.08,3.47 0.34,5.16 a 29.55,29.55 0 0 0 1.44,4.17 1.82,1.82 0 0 1 -0.38,1.5 18.7,18.7 0 0 1 -3.64,2 l -3.11,0.19 -0.6,0.28 c -1.16,1.37 -1.2,2.78 -1.91,4.32 -1,1.58 -2.72,2.35 -4.2,3.26 a 9.94,9.94 0 0 1 -1.66,2.18 3.11,3.11 0 0 1 -1.84,0.68 c -1.07,1.24 -1.31,3 -1.59,4.65 1.76,0.17 3.6,1.13 5.33,0.17 1.48,-0.69 1.8,-2.5 2.91,-3.58 0.88,-1 2.21,-0.24 3.26,0 1.56,0.08 2.68,-1.05 4,-1.58 0.92,-0.6 1.67,-1.65 2.63,-2.25 1.86,-0.88 4.41,-0.39 6.34,0 a 6.84,6.84 0 0 0 4.45,-0.43 13.37,13.37 0 0 1 3.79,-2.06 6.07,6.07 0 0 0 2.36,-3.19 C 77,272.06 78,271.22 78,270 c -0.32,-0.26 -0.69,-0.88 -1.16,-0.83 -0.6,0.83 -1.05,1.71 -1.73,2.53 -2.93,3.91 -5.22,4.3 -11.11,4.3 a 13.68,13.68 0 0 0 -11.3,4.6 0.56,0.56 0 0 1 -0.64,-0.13 3,3 0 0 1 0.49,-1.63 c 2.66,-3.81 6.85,-4.69 11.26,-4.78 a 17,17 0 0 0 6.72,-1.61 10.19,10.19 0 0 0 4.8,-5.22 c 0.51,-2.51 0.71,-5.25 1.35,-7.66 a 1,1 0 0 1 0.86,-0.34 0.92,0.92 0 0 1 0.75,0.54 c -0.45,2.48 -1.26,5.4 -0.28,7.81 1.91,2.53 5.48,1.16 8.09,1 a 47.67,47.67 0 0 1 7.51,0.13 c 1.29,0 2.25,0.28 3.25,-0.53 a 2.29,2.29 0 0 0 0.3,-1.52 c -0.08,-0.73 -0.68,-1.16 0,-1.76 a 0.9,0.9 0 0 1 1,0.15 12.18,12.18 0 0 0 1.16,3 15.35,15.35 0 0 0 4.93,3.85 6.56,6.56 0 0 1 3.19,4.84 c 0,1.05 -0.94,1.76 -1.74,2.25 a 8.18,8.18 0 0 1 -4.45,1.07 c -2.12,-1 -2.68,-3.26 -4.09,-4.92 a 3.41,3.41 0 0 0 -2.87,-0.88 16,16 0 0 0 -3.38,0.53 1.13,1.13 0 0 0 -0.32,1 c 0.73,1.31 1.52,2.59 2.33,3.9 0.94,0.56 2.21,-0.32 3,0.68 0.79,1 1.13,2.29 2.18,3.1 a 3.8,3.8 0 0 0 3.85,0.73 49.3,49.3 0 0 0 8.69,-3.38 h 0.94 c 1.11,-0.11 2.35,-0.06 3.13,-0.9 A 28.47,28.47 0 0 0 117,276 c 0.68,-0.92 0.38,-2.31 0.08,-3.32 a 19,19 0 0 1 -2.85,-5.5 6.24,6.24 0 0 0 -2,-0.56 c -0.36,0.17 -0.86,0.09 -1.07,0.49 l 3.17,6.25 a 3.57,3.57 0 0 1 0.32,1.82 8.18,8.18 0 0 1 -2.2,3.56 c -0.19,0.11 -0.45,0.23 -0.6,0 a 14.76,14.76 0 0 0 0.92,-4.41 l -3.1,-5.57 a 5,5 0 0 1 -1,-2.33 1,1 0 0 1 0.68,-0.84 c 1.35,-0.43 3,-0.38 4,-1.44 1.37,-2.12 1.65,-4.2 2,-6.74 a 1,1 0 0 1 0.64,-0.47 0.86,0.86 0 0 1 0.64,0.39 10.39,10.39 0 0 1 -1.76,7.73 0.68,0.68 0 0 0 0.13,0.84 5.82,5.82 0 0 0 4.41,-0.69 24.12,24.12 0 0 0 4.63,-0.6 0.55,0.55 0 0 1 0.34,0.39 7.66,7.66 0 0 0 -1.86,3.81 c -1.2,1.26 -2.91,2.35 -3,4.13 0.21,0.9 1,0.06 1.5,0.15 a 0.43,0.43 0 0 1 0.38,0.47 l -1.18,1.76 c -0.64,1 0.11,2.25 0.11,3.23 a 2.17,2.17 0 0 0 2.08,1.22 17,17 0 0 0 5,-1.33 10.88,10.88 0 0 1 5.91,-0.41 c 1.88,-0.11 3.28,-1.37 4.69,-2.61 a 3,3 0 0 1 2,1.09 10.3,10.3 0 0 0 8.14,3.23 l 0.26,-0.15 a 0.47,0.47 0 0 0 0,-0.66 l -0.07,-0.05 -1.88,-1 c -1.31,-0.84 -3,-2 -3.41,-3.43 a 18,18 0 0 0 -1.91,-4.05 c -0.28,-0.64 -0.94,-1.16 -1.2,-1.8 a 0.3,0.3 0 0 1 0.28,-0.17 c 2.06,0.71 3.32,2.78 4.28,4.62 1.54,2.12 3.73,3.94 6.6,3.45 l 0.24,-0.21 a 0.39,0.39 0 0 0 0,-0.49 l -1.44,-0.71 z M 118.3,246.86 h -0.09 v 0 0 a 0.38,0.38 0 0 1 -0.53,0.06 v 0 -0.06 A 25.85,25.85 0 0 0 116.37,242 l -0.38,-0.64 -0.15,-0.19 -0.32,-0.47 a 1.5,1.5 0 0 1 -0.17,-1.59 v -0.06 a 1.19,1.19 0 0 1 1.16,-0.19 h 0.06 a 5.27,5.27 0 0 1 1.44,1.82 8.8,8.8 0 0 1 0.62,3.34 10.65,10.65 0 0 1 -0.38,2.78 z m 15.29,26.42 v 0 a 6.62,6.62 0 0 1 -2.5,0.3 H 131 l -0.17,-0.08 -0.19,-0.11 a 0.39,0.39 0 0 1 -0.13,-0.45 3.92,3.92 0 0 1 2.78,-2.51 h 0.19 l 0.3,0.06 a 0.58,0.58 0 0 1 0.43,0.51 3.33,3.33 0 0 1 0,0.62 2,2 0 0 1 -0.66,1.69 z m 4.9,-10.94 -0.11,0.34 -0.11,0.36 a 0.79,0.79 0 0 1 -0.56,0.56 0.47,0.47 0 0 1 -0.45,-0.08 0.49,0.49 0 0 1 -0.19,-0.41 v -0.36 l -0.13,-1.24 a 3.38,3.38 0 0 0 -0.53,-1.39 q -0.59,-0.65 -1.16,-1.31 a 2,2 0 0 0 -1.31,-0.71 2.28,2.28 0 0 0 -1,0.71 l -0.41,0.53 -0.38,0.51 a 0.38,0.38 0 0 1 -0.45,0.09 h -0.06 a 1.84,1.84 0 0 1 -0.15,-0.75 2.66,2.66 0 0 1 0.23,-1 l 0.34,-0.68 0.38,-0.77 v -0.08 a 1.51,1.51 0 0 0 0.34,-0.64 l 0.11,-0.26 0.21,-0.56 a 1.05,1.05 0 0 1 1.56,-0.6 3,3 0 0 1 1.16,1.2 l 0.19,0.3 0.23,0.38 0.47,0.6 a 6.27,6.27 0 0 1 1.93,4.22 4.91,4.91 0 0 1 -0.15,1.04 z"
         transform="translate(-34.05,-211.1)"
         id="path3643" />
      <path
         class="cls-11"
         d="m 43.42,279.62 a 8.11,8.11 0 0 0 2.7,-3.26 2.7,2.7 0 0 0 -0.94,-1.07 1,1 0 0 0 -0.86,0 23.13,23.13 0 0 1 -2.76,2 c -0.41,0.28 -0.24,0.88 -0.34,1.31 -0.1,0.43 0.49,0.69 0.73,0.94 a 2.23,2.23 0 0 0 1.48,0.08 m -4.2,0.11 a 2.74,2.74 0 0 0 -1.48,1.65 c -0.19,1.28 0.08,2.48 -0.92,3.41 0,0.24 -0.28,0.53 0,0.75 a 13,13 0 0 0 2.81,0.75 c 0.47,-1.56 0.83,-3.28 1.39,-4.63 v -0.41 c -0.49,-0.58 -1,-1.35 -1.76,-1.5 M 100,275.44 c 0.81,0.88 0.75,2.25 1.69,2.93 a 4.1,4.1 0 0 0 3.19,-1 c 0.53,-0.45 -0.23,-1 -0.32,-1.54 -0.53,-0.75 -0.15,-2.29 -1.43,-2.31 a 29.49,29.49 0 0 1 -3.87,0.24 L 98.9,274 c -0.24,0.75 0.88,0.75 1.09,1.43"
         transform="translate(-34.05,-211.1)"
         id="path3645" />
      <path
         class="cls-12"
         d="m 417.51,270.35 a 6.43,6.43 0 0 0 12.85,0 V 250 h 11.11 v 22.48 c 0,7.6 -7.88,13.75 -17.56,13.75 -9.68,0 -17.58,-6.15 -17.58,-13.75 V 250 h 11.18 z M 466.69,285 h 11.26 v -59.1 h -11.26 z m -19,0 h 11.26 v -59.1 h -11.29 z m -206,-46.7 h -6.12 V 285 h -12 v -56.37 h 20.63 a 16.62,16.62 0 0 1 4,32.82 L 264.78,285 h -14.11 l -12,-18.46 v -13.49 h 2.78 c 4.43,0 8,-3.3 8,-7.37 a 7.51,7.51 0 0 0 -7.63,-7.38 h -0.16"
         transform="translate(-34.05,-211.1)"
         id="path3647" />
      <path
         class="cls-12"
         d="m 275.33,263.34 a 6.89,6.89 0 1 1 13.75,0 z m 24.84,6.49 a 19.61,19.61 0 0 0 0.09,-2.36 c 0.19,-12.2 -7.88,-18.88 -18.16,-18.88 a 18.84,18.84 0 0 0 0,37.68 c 7.84,0 14,-3.55 17.11,-9.1 l -9.14,-4.22 a 7.69,7.69 0 0 1 -7.05,4.28 7.35,7.35 0 0 1 -7.66,-7 v -0.38 z m 25.44,6.55 c -4.56,0 -8.26,-4.05 -8.26,-9.06 0,-5.01 3.7,-9 8.26,-9 4.56,0 8.26,4.05 8.26,9 0,4.95 -3.68,9.06 -8.26,9.06 z M 345,285 v -59.1 h -11.26 v 28 a 16,16 0 0 0 -11.31,-4.75 c -9.29,0 -16.83,8.26 -16.83,18.43 0,10.17 7.53,18.42 16.82,18.42 a 16.05,16.05 0 0 0 11.37,-4.88 V 285 Z m 38.16,-9.79 h -10.79 v -36.9 h 7.51 a 6.26,6.26 0 0 1 6,6.32 6,6 0 0 1 -6,6 H 376 v 10.13 h 7.17 a 7,7 0 0 1 7,7.05 q 0,0.09 0,0.17 c -0.15,4.13 -2.68,7 -7,7.26 m 9.42,-20.9 a 15,15 0 0 0 5,-11 14.75,14.75 0 0 0 -4.07,-10.13 c -2.68,-2.95 -7.43,-4.6 -13.85,-4.6 H 360.36 V 285 h 24.86 c 9.51,-0.15 17.19,-7.35 17.19,-16.17 0,-6.42 -2.25,-11 -9.85,-14.52"
         transform="translate(-34.05,-211.1)"
         id="path3649" />
    </g>
    <path
       class="cls-1"
       d="m 224.31956,38.525362 c 0,0 -2.1923,0.87274 -4.74205,3.68298 -2.54975,2.81024 -4.03473,5.97034 -2.93574,6.81074 0.42211,0.31943 1.39562,0.38028 3.162,-1.21688 a 13.95614,13.95614 0 0 0 3.73812,-5.18316 c 1.14083,-2.78173 0.77767,-4.05946 0.77767,-4.08988 m 13.95423,5.05197 c -2.83305,-1.45265 -4.90366,-3.23235 -7.05793,-4.33324 -2.05539,-1.05527 -3.38446,-1.49639 -5.04626,-1.27393 a 5.148941,5.148941 0 0 0 -0.6845,0.17112 c 0,0 0.85562,2.92243 -2.54975,7.83179 -3.44911,4.97782 -6.57878,4.9436 -7.46863,3.5765 -0.93168,-1.44314 0.2719,-4.38458 2.28166,-7.00278 2.10482,-2.73799 5.80111,-5.00825 5.80111,-5.00825 0,0 -1.17885,-0.72062 -4.07276,0.92028 -2.82354,1.59336 -7.68348,5.39611 -12.19356,11.80948 -4.51007,6.41335 -5.40372,9.94232 -6.05019,12.72024 -0.64647,2.77792 -0.0589,5.75357 3.02129,5.75357 3.08024,0 6.66624,-4.69831 7.67778,-6.33159 1.88047,-3.04221 3.10686,-7.7082 0.5476,-7.06744 -1.26062,0.31564 -2.28166,1.71125 -2.92623,3.05552 a 13.071997,13.071997 0 0 0 -0.92788,2.69996 10.647736,10.647736 0 0 0 -2.49651,1.45266 18.460513,18.460513 0 0 0 -2.36912,2.09152 c 0,0 0.0114,-2.22082 1.78159,-5.81442 1.77019,-3.59362 5.01965,-5.23451 6.86019,-5.38852 1.65801,-0.1331 3.81608,1.27393 1.98695,6.4647 -1.82914,5.19077 -7.22525,11.50146 -12.89327,11.57941 -5.2307,0.0722 -8.65319,-6.6035 -1.3728,-18.25326 8.05805,-12.87045 17.50982,-16.81963 20.57866,-17.25884 3.06882,-0.43922 4.06705,0.91456 4.06705,0.91456 a 13.201292,13.201292 0 0 1 5.83534,-0.9621 c 3.74762,0.25289 6.64532,2.90531 10.47091,4.76867 -0.99443,0.95069 -1.94321,1.94891 -2.79884,2.88439 m 16.83483,-4.33324 c -2.59729,1.66561 -6.19089,3.1753 -9.64381,2.85207 -0.87463,0.90316 -1.81011,1.94892 -2.74749,3.08975 5.98745,1.18455 11.23336,-2.52504 14.02269,-5.68324 a 18.616426,18.616426 0 0 0 2.60109,-3.74001 23.352767,23.352767 0 0 1 -4.23437,3.48143 m -7.9725,16.86905 a 1.3043477,1.3043477 0 0 0 0.11028,-0.24908 0.60463931,0.60463931 0 0 0 -0.5495,-0.52478 c -0.57041,-0.0266 -1.34808,0.0818 -3.38826,2.3406 a 30.714916,30.714916 0 0 0 -4.33705,6.15287 c -1.16745,2.13335 -1.6409,3.7229 -0.96971,4.1336 a 0.96780319,0.96780319 0 0 0 0.70732,0.0723 c 0.45443,-0.10838 0.9697,-0.53429 1.75307,-1.44125 0.36697,-0.42591 0.77387,-1.02865 1.26062,-1.69603 1.34998,-1.83673 4.74204,-7.61884 5.41323,-8.78819 m -21.1928,2.45659 c 0.34035,-0.88985 0.77386,-2.63722 -0.12739,-3.32362 -0.9678,-0.72822 -3.43579,0.98112 -3.4491,2.73419 -0.0171,1.7949 1.73786,2.6068 2.15806,2.72088 0.23957,0.0647 0.32324,0.0551 0.43922,-0.1369 a 16.003928,16.003928 0 0 0 0.97921,-1.99455 m -1.86715,3.26467 a 7.4610209,7.4610209 0 0 1 -1.69603,-1.08189 5.437951,5.437951 0 0 1 -1.27013,-1.54582 c -0.0342,-0.0571 -0.0684,-0.0133 -0.10648,0.038 -0.038,0.0513 -0.19013,0.19013 -1.50589,2.11814 -1.31575,1.92799 -3.33692,5.9228 -1.50779,6.60349 1.17124,0.43542 3.12016,-1.61617 4.18303,-2.97566 a 25.389146,25.389146 0 0 0 1.96413,-2.98897 c 0.0551,-0.11599 0,-0.14261 -0.0589,-0.16732 m 20.74788,4.61465 c -0.49626,0.79478 -1.06287,2.31969 0.57041,1.3709 1.99835,-1.15414 4.84472,-5.47218 4.84472,-5.47218 h 1.29104 a 43.275442,43.275442 0 0 1 -3.91304,5.13373 c -2.02497,2.24363 -4.49487,4.28191 -6.23463,4.08037 -2.03258,-0.23768 -1.39562,-2.90531 -1.39562,-2.90531 0,0 -2.90721,3.09544 -4.91887,2.87298 -2.71708,-0.30042 -1.88807,-3.65825 -1.88807,-3.65825 0,0 -3.07264,3.77043 -5.16605,3.65445 -3.28179,-0.19014 -2.45659,-4.18304 -1.54393,-6.99518 0.48866,-1.504 0.94119,-2.68475 0.94119,-2.68475 0,0 -0.32514,0.0856 -1.02485,0.19013 -0.36507,0.0513 -1.03055,0.0894 -1.03055,0.0894 0,0 -1.36709,2.41095 -2.46039,3.8598 -1.09329,1.44885 -5.74027,6.44379 -8.47446,5.44366 -2.52883,-0.92407 -1.69222,-4.79529 -0.22056,-7.87172 2.14857,-4.48536 8.19116,-10.92914 11.67639,-10.07733 3.61262,0.87654 0.0818,7.46864 0.0818,7.46864 0,0 0,0.0247 0.038,0.0418 0.0723,0.0266 0.26049,0.0475 0.69591,-0.038 a 7.8203816,7.8203816 0 0 0 1.32146,-0.39358 c 0,0 3.63164,-7.60553 7.64355,-12.58145 4.01191,-4.97591 12.01483,-13.54544 15.15591,-11.47293 0.76056,0.50957 0.41831,2.26454 -0.61605,4.39409 a 14.089237,14.089237 0 0 1 -1.41843,0.38028 c 0.69211,-1.25682 1.15034,-2.31589 1.28724,-3.05553 0.47344,-2.57066 -5.52922,2.85208 -9.81873,8.67791 a 80.861951,80.861951 0 0 0 -6.86399,11.10977 18.808465,18.808465 0 0 0 2.21321,-1.58005 63.357833,63.357833 0 0 0 5.44556,-5.08428 59.298384,59.298384 0 0 0 4.63556,-5.3505 12.575737,12.575737 0 0 0 1.36329,-0.1407 58.737476,58.737476 0 0 1 -5.11471,6.04259 c -1.71125,1.73026 -3.56319,3.59171 -5.17176,4.94359 a 43.073895,43.073895 0 0 1 -4.5367,3.37116 c 0,0 -3.75143,7.56559 -1.71124,8.05045 1.19977,0.289 3.56889,-3.35975 3.56889,-3.35975 0,0 3.09165,-4.71732 4.955,-6.84497 2.54215,-2.8901 4.73064,-4.56331 6.91723,-4.59374 1.27392,-0.0229 2.02497,1.33097 2.02497,1.33097 l 0.59894,-0.92788 h 3.68867 c 0,0 -6.8887,11.68969 -7.4401,12.57003 m 10.28648,-27.19355 c -2.59729,1.66561 -6.19091,3.17531 -9.64381,2.85207 -0.87464,0.90316 -1.81012,1.94892 -2.7475,3.08975 5.98745,1.18456 11.23336,-2.52504 14.02269,-5.68323 a 18.616426,18.616426 0 0 0 2.60299,-3.74002 23.352767,23.352767 0 0 1 -4.23437,3.48143 m -51.80315,5.73457 h -3.50804 l -1.98314,3.20382 h 3.50805 z m -16.61046,11.09456 c 1.49258,-2.04589 5.61098,-9.216 5.61098,-9.216 a 0.60273793,0.60273793 0 0 0 -0.5476,-0.52478 c -0.57042,-0.0266 -1.52111,0.16542 -3.40918,2.52884 -1.88808,2.36341 -3.35404,4.24388 -4.42262,6.2004 -1.17125,2.13525 -1.68272,3.64114 -1.00963,4.04994 a 1.0001266,1.0001266 0 0 0 0.70541,0.0723 c 0.43732,-0.11029 1.00964,-0.54951 1.79491,-1.45266 0.36887,-0.4221 0.78717,-0.99062 1.27773,-1.658 m -18.82368,-9.69704 c -0.9697,-0.73203 -3.4358,0.98111 -3.44911,2.73038 -0.0152,1.79681 2.21892,2.3463 2.50793,2.35961 a 0.43921912,0.43921912 0 0 0 0.24527,-0.0513 0.29281274,0.29281274 0 0 0 0.11789,-0.12929 16.973632,16.973632 0 0 0 0.70731,-1.58575 c 0.34035,-0.88985 0.77196,-2.63722 -0.12929,-3.32362 m -1.46216,6.1852 a 8.1759401,8.1759401 0 0 1 -1.90138,-0.87463 3.9586762,3.9586762 0 0 1 -1.35759,-1.504 c -0.0342,-0.0571 -0.0722,-0.0133 -0.10648,0.038 -0.0342,0.0513 -0.23197,0.29852 -1.55152,2.23413 -1.31956,1.9356 -3.27418,5.89428 -1.44315,6.57498 1.16744,0.44302 3.13918,-1.62569 4.20965,-2.97947 a 35.280133,35.280133 0 0 0 2.21702,-3.31981 c 0.0437,-0.11598 0,-0.14261 -0.0647,-0.16352 m 28.65001,1.18646 h 1.28534 c 0,0 -6.43999,9.31677 -10.07733,8.88325 -2.03067,-0.23767 -1.42793,-2.74368 -1.42793,-2.74368 0,0 -2.85208,3.33882 -5.47218,2.66193 -2.37673,-0.61035 -0.84231,-4.56332 -0.84231,-4.56332 -0.27,0.10838 -5.41324,5.90569 -9.02776,4.51578 -3.78185,-1.46026 -1.81772,-6.31449 -1.099,-7.77475 0.61034,-1.23019 1.28533,-2.42806 1.28533,-2.42806 0,0 -0.57992,0.16352 -0.95069,0.24718 -0.37077,0.0837 -0.90696,0.19014 -0.90696,0.19014 0,0 -1.7892,2.90721 -2.88249,4.35797 -1.09329,1.45075 -5.74027,6.43617 -8.47826,5.44365 -2.73799,-0.99252 -2.0592,-4.8238 -0.52098,-7.86601 2.49461,-4.93409 8.41361,-10.99759 11.97871,-10.07733 3.60121,0.91837 0.61985,6.75942 0.61985,6.75942 0,0 0.71682,0.0932 2.43376,-1.07809 2.4718,-1.68653 5.73457,-6.22322 9.26734,-5.69083 1.66561,0.25098 3.21713,1.95271 1.09519,5.18506 -0.67689,1.03816 -1.81201,1.96603 -2.68095,1.04766 -0.54189,-0.57041 -0.0685,-1.61047 0.50007,-2.32158 a 2.2246163,2.2246163 0 0 1 1.90138,-0.87083 c 0,0 0.58372,-1.33098 -0.90126,-1.31196 -1.20167,0.0228 -4.24388,2.82355 -5.96083,5.6528 -1.57434,2.59729 -3.96057,7.02181 -1.56483,7.98581 2.19609,0.88604 6.37533,-4.07466 8.31094,-6.67385 1.9356,-2.59918 6.34681,-8.48967 10.0469,-8.72544 1.27392,-0.0837 2.03257,1.07809 2.03257,1.07809 l 0.42781,-0.6769 h 3.7001 c 0,0 -6.96857,11.62885 -7.51236,12.50919 -0.42781,0.6883 -0.99633,2.23603 0.57041,1.369 1.56673,-0.86703 4.85042,-5.0843 4.85042,-5.0843 m -2.01356,18.63354 a 15.323233,15.323233 0 0 0 -9.29776,-2.71327 5.7041444,5.7041444 0 0 0 -4.53669,2.45849 c -1.41083,-2.46229 -4.20015,-3.97389 -8.51249,-3.93967 -6.96856,0.0799 -13.88008,3.29319 -19.35606,3.28939 -5.24781,0 -9.07529,-3.29889 -8.95171,-9.15705 0.23007,-10.28077 8.91749,-19.5386 15.4012,-23.70452 3.73811,-2.39384 6.86398,-3.10496 8.90797,-2.87489 1.49068,0.16542 3.28368,1.88807 2.15236,4.42641 -1.66181,3.7096 -3.95677,3.40538 -3.87121,1.63139 0.0475,-1.15414 0.81569,-1.88047 1.39371,-2.28166 0.36697,-0.25288 1.01534,-0.32513 1.35379,-0.33274 0.32893,-0.2776 0.57041,-2.30827 -2.09152,-1.64089 -2.66194,0.66738 -5.89429,3.29129 -8.96312,6.68145 -3.06883,3.39016 -7.847,9.79782 -9.02776,16.52681 -0.5514,3.12017 -0.19013,8.811 7.20814,8.74636 6.27456,-0.0513 15.52288,-4.18305 24.02206,-4.09748 3.29889,0.0323 6.16998,0.92217 8.40791,2.30257 2.19799,1.35378 4.8333,3.33122 5.76878,4.6812"
       id="path3715"
       style="stroke-width:0.190138" />
  </g>
</svg>
