<?xml version="1.0" encoding="UTF-8" standalone="no"?>
<svg
   xmlns:dc="http://purl.org/dc/elements/1.1/"
   xmlns:cc="http://creativecommons.org/ns#"
   xmlns:rdf="http://www.w3.org/1999/02/22-rdf-syntax-ns#"
   xmlns:svg="http://www.w3.org/2000/svg"
   xmlns="http://www.w3.org/2000/svg"
   xmlns:sodipodi="http://sodipodi.sourceforge.net/DTD/sodipodi-0.dtd"
   xmlns:inkscape="http://www.inkscape.org/namespaces/inkscape"
   width="87mm"
   height="87mm"
   viewBox="0 0 87 87"
   version="1.1"
   id="svg8"
   inkscape:version="1.0.2-2 (e86c870879, 2021-01-15)"
   sodipodi:docname="prohibido.svg">
  <defs
     id="defs2">
    <inkscape:path-effect
       effect="spiro"
       id="path-effect891"
       is_visible="true"
       lpeversion="1" />
    <inkscape:path-effect
       effect="spiro"
       id="path-effect2125"
       is_visible="true"
       lpeversion="1" />
    <inkscape:path-effect
       effect="spiro"
       id="path-effect2127"
       is_visible="true"
       lpeversion="1" />
    <inkscape:path-effect
       effect="spiro"
       id="path-effect2129"
       is_visible="true"
       lpeversion="1" />
    <inkscape:path-effect
       effect="spiro"
       id="path-effect2334"
       is_visible="true"
       lpeversion="1" />
  </defs>
  <sodipodi:namedview
     id="base"
     pagecolor="#ffffff"
     bordercolor="#666666"
     borderopacity="1.0"
     inkscape:pageopacity="0.0"
     inkscape:pageshadow="2"
     inkscape:zoom="1.4"
     inkscape:cx="141.77118"
     inkscape:cy="182.24578"
     inkscape:document-units="mm"
     inkscape:current-layer="g2275"
     inkscape:document-rotation="0"
     showgrid="false"
     fit-margin-top="0"
     fit-margin-left="0"
     fit-margin-right="0"
     fit-margin-bottom="0"
     inkscape:window-width="1366"
     inkscape:window-height="705"
     inkscape:window-x="-8"
     inkscape:window-y="-8"
     inkscape:window-maximized="1" />
  <metadata
     id="metadata5">
    <rdf:RDF>
      <cc:Work
         rdf:about="">
        <dc:format>image/svg+xml</dc:format>
        <dc:type
           rdf:resource="http://purl.org/dc/dcmitype/StillImage" />
        <dc:title />
      </cc:Work>
    </rdf:RDF>
  </metadata>
  <g
     inkscape:label="Capa 1"
     inkscape:groupmode="layer"
     id="layer1"
     transform="translate(-68.7532,-60.200576)">
    <g
       id="g2275"
       transform="rotate(-5.8944843,316.18096,645.99427)">
      <path
         style="fill:#c0c0c0;fill-opacity:1;stroke:#303030;stroke-width:0.6;stroke-miterlimit:4;stroke-dasharray:none;stroke-opacity:1"
         d="m 156.18743,52.899722 c -0.13651,0.103339 -0.21164,0.356217 -0.24285,0.815628 -0.0156,0.230533 -0.0632,0.46075 -0.10524,0.511127 -0.0465,0.05584 -0.0897,0.459488 -0.11029,1.034718 -0.0286,0.797885 -0.0159,0.980179 0.0777,1.178236 0.0492,0.104136 0.0758,0.234332 0.0782,0.861223 l -0.46898,12.352326 c 0.0311,0.477877 -0.0827,0.872563 -0.32112,1.28209 -0.19243,0.310403 -0.50503,0.686714 -1.11493,1.386869 -2.43728,2.561271 -3.62778,5.849186 -3.85402,9.321558 l -0.0532,34.673863 c 0.11455,0.89934 0.56975,2.30249 1.28991,2.60602 l 15.05336,0.0275 c 0.72122,-0.30091 1.18159,-1.70236 1.29942,-2.6013 l 0.0736,-34.673816 c -0.21356,-3.473173 -1.39206,-6.765409 -3.81993,-9.335589 -0.7089,-0.81983 -1.01438,-1.19699 -1.19659,-1.542633 -0.20409,-0.324281 -0.21393,-0.670854 -0.22646,-1.038803 l -0.427,-12.446724 c 0.005,-0.626874 0.0318,-0.756976 0.0814,-0.860925 0.0943,-0.197713 0.10756,-0.379959 0.082,-1.177938 -0.0184,-0.57531 -0.0602,-0.979108 -0.10655,-1.035107 -0.0418,-0.05058 -0.0885,-0.280941 -0.10334,-0.511532 -0.0295,-0.459529 -0.10379,-0.712622 -0.23978,-0.816526 -1.87483,-0.147913 -3.76978,-0.16486 -5.64499,-0.01032 z"
         id="path2398"
         sodipodi:nodetypes="cssssccccccccccccccssssccc"
         inkscape:transform-center-x="61.909795"
         inkscape:transform-center-y="92.939419" />
      <path
         style="fill:#c0c0c0;fill-opacity:1;stroke:#303030;stroke-width:0.6;stroke-miterlimit:4;stroke-dasharray:none;stroke-opacity:1"
         d="m 179.81324,51.546455 c -0.15871,0.06422 -0.2971,0.288806 -0.44688,0.724235 -0.0751,0.218514 -0.18102,0.42839 -0.23473,0.46608 -0.0594,0.0418 -0.20627,0.42027 -0.37596,0.970287 -0.23541,0.762902 -0.27063,0.942213 -0.23184,1.157812 0.0204,0.113356 0.0122,0.245986 -0.14879,0.851869 l -3.6698,11.803918 c -0.0944,0.469486 -0.30709,0.820914 -0.64394,1.154215 -0.26663,0.249576 -0.66645,0.531488 -1.43765,1.048641 -3.02022,1.838126 -5.02593,4.702528 -6.1487,7.99615 l -9.08171,33.463438 c -0.12363,0.89814 -0.0496,2.37142 0.56669,2.85203 l 14.52672,3.947 c 0.7747,-0.10269 1.58417,-1.33588 1.93205,-2.17311 l 9.1014,-33.458085 c 0.69835,-3.408935 0.41794,-6.894484 -1.25677,-10.008276 -0.47093,-0.976162 -0.66764,-1.419865 -0.75354,-1.801035 -0.11259,-0.366243 -0.0318,-0.703418 0.0519,-1.061933 l 2.82932,-12.128405 c 0.16809,-0.603939 0.22784,-0.722572 0.3028,-0.810016 0.14254,-0.166331 0.20281,-0.338834 0.38595,-1.115932 0.13207,-0.560249 0.19688,-0.960998 0.16671,-1.027136 -0.0272,-0.05972 -0.0123,-0.294295 0.0334,-0.520793 0.0912,-0.451354 0.0854,-0.715061 -0.0188,-0.850796 -1.77161,-0.631084 -3.59676,-1.140961 -5.4475,-1.480128 z"
         id="path2398-0"
         sodipodi:nodetypes="cssssccccccccccccccssssccc"
         inkscape:transform-center-x="87.245056"
         inkscape:transform-center-y="73.419373" />
      <path
         id="path889"
         style="fill:none;stroke:#c0c0c0;stroke-width:5;stroke-linecap:butt;stroke-linejoin:miter;stroke-miterlimit:4;stroke-dasharray:none;stroke-opacity:1"
         inkscape:path-effect="#path-effect891"
         inkscape:original-d="m 144.18247,52.967191 c 17.14161,23.0861 32.75136,42.789495 49.8925,65.875019 m 15.73149,-29.006524 a 41,41 0 0 1 -44.99379,36.572654 41,41 0 0 1 -36.57265,-44.993791 41,41 0 0 1 44.99379,-36.572653 41,41 0 0 1 36.57265,44.99379 z"
         d="m 144.18247,52.967191 49.8925,65.875019 m 15.73149,-29.006524 c -1.10232,10.677024 -6.59319,20.834514 -14.92245,27.604844 -8.32926,6.77034 -19.39432,10.07013 -30.07134,8.96781 -10.67702,-1.10232 -20.83451,-6.5932 -27.60484,-14.92245 -6.77034,-8.32926 -10.07013,-19.394319 -8.96781,-30.071341 1.10232,-10.677022 6.59319,-20.834512 14.92245,-27.604846 8.32926,-6.770334 19.39432,-10.070132 30.07134,-8.967807 10.67702,1.102325 20.83451,6.593195 27.60484,14.922451 6.77034,8.329256 10.07013,19.394317 8.96781,30.071339 z" />
      <path
         style="fill:none;stroke:#303030;stroke-width:0.5;stroke-linecap:round;stroke-linejoin:miter;stroke-opacity:1;stroke-miterlimit:4;stroke-dasharray:none"
         d="m 143.75033,56.548171 46.33813,61.351409"
         id="path855" />
      <path
         style="fill:none;stroke:#303030;stroke-width:0.5;stroke-linecap:round;stroke-linejoin:miter;stroke-miterlimit:4;stroke-dasharray:none;stroke-opacity:1"
         d="M 147.98265,53.337082 194.32078,114.6885"
         id="path855-6" />
    </g>
  </g>
</svg>
