<?xml version="1.0" encoding="UTF-8" standalone="no"?>
<svg
   xmlns:dc="http://purl.org/dc/elements/1.1/"
   xmlns:cc="http://creativecommons.org/ns#"
   xmlns:rdf="http://www.w3.org/1999/02/22-rdf-syntax-ns#"
   xmlns:svg="http://www.w3.org/2000/svg"
   xmlns="http://www.w3.org/2000/svg"
   xmlns:sodipodi="http://sodipodi.sourceforge.net/DTD/sodipodi-0.dtd"
   xmlns:inkscape="http://www.inkscape.org/namespaces/inkscape"
   width="91.120468mm"
   height="157.84834mm"
   viewBox="0 0 91.120468 157.84834"
   version="1.1"
   id="svg857"
   inkscape:version="1.0.2-2 (e86c870879, 2021-01-15)"
   sodipodi:docname="Tequila.svg">
  <defs
     id="defs851">
    <inkscape:path-effect
       effect="spiro"
       id="path-effect2213"
       is_visible="true"
       lpeversion="1" />
    <inkscape:path-effect
       effect="spiro"
       id="path-effect2172"
       is_visible="true"
       lpeversion="1" />
    <inkscape:path-effect
       effect="spiro"
       id="path-effect2168"
       is_visible="true"
       lpeversion="1" />
    <inkscape:path-effect
       effect="spiro"
       id="path-effect2164"
       is_visible="true"
       lpeversion="1" />
    <inkscape:path-effect
       effect="spiro"
       id="path-effect2160"
       is_visible="true"
       lpeversion="1" />
    <inkscape:path-effect
       effect="spiro"
       id="path-effect2156"
       is_visible="true"
       lpeversion="1" />
    <inkscape:path-effect
       effect="spiro"
       id="path-effect2151"
       is_visible="true"
       lpeversion="1" />
    <inkscape:path-effect
       effect="spiro"
       id="path-effect2022"
       is_visible="true"
       lpeversion="1" />
    <inkscape:path-effect
       effect="spiro"
       id="path-effect2016"
       is_visible="true"
       lpeversion="1" />
    <inkscape:path-effect
       effect="spiro"
       id="path-effect2012"
       is_visible="true"
       lpeversion="1" />
    <inkscape:path-effect
       effect="spiro"
       id="path-effect2008"
       is_visible="true"
       lpeversion="1" />
    <inkscape:path-effect
       effect="spiro"
       id="path-effect1974"
       is_visible="true"
       lpeversion="1" />
    <inkscape:path-effect
       effect="spiro"
       id="path-effect1883"
       is_visible="true"
       lpeversion="1" />
    <inkscape:path-effect
       effect="spiro"
       id="path-effect1819"
       is_visible="true"
       lpeversion="1" />
    <inkscape:path-effect
       effect="spiro"
       id="path-effect1796"
       is_visible="true"
       lpeversion="1" />
    <inkscape:path-effect
       effect="spiro"
       id="path-effect1792"
       is_visible="true"
       lpeversion="1" />
    <inkscape:path-effect
       effect="spiro"
       id="path-effect1788"
       is_visible="true"
       lpeversion="1" />
    <inkscape:path-effect
       effect="spiro"
       id="path-effect1731"
       is_visible="true"
       lpeversion="1" />
    <inkscape:path-effect
       effect="spiro"
       id="path-effect1726"
       is_visible="true"
       lpeversion="1" />
    <inkscape:path-effect
       effect="spiro"
       id="path-effect1702"
       is_visible="true"
       lpeversion="1" />
    <inkscape:path-effect
       effect="spiro"
       id="path-effect1691"
       is_visible="true"
       lpeversion="1" />
    <inkscape:path-effect
       effect="spiro"
       id="path-effect1670"
       is_visible="true"
       lpeversion="1" />
    <inkscape:path-effect
       effect="spiro"
       id="path-effect1647"
       is_visible="true"
       lpeversion="1" />
    <inkscape:path-effect
       effect="spiro"
       id="path-effect1642"
       is_visible="true"
       lpeversion="1" />
    <inkscape:path-effect
       effect="spiro"
       id="path-effect1619"
       is_visible="true"
       lpeversion="1" />
    <inkscape:path-effect
       effect="spiro"
       id="path-effect1615"
       is_visible="true"
       lpeversion="1" />
    <inkscape:path-effect
       effect="spiro"
       id="path-effect1054"
       is_visible="true"
       lpeversion="1" />
    <inkscape:path-effect
       effect="spiro"
       id="path-effect1056"
       is_visible="true"
       lpeversion="1" />
    <inkscape:path-effect
       effect="spiro"
       id="path-effect1058"
       is_visible="true"
       lpeversion="1" />
    <inkscape:path-effect
       effect="spiro"
       id="path-effect1060"
       is_visible="true"
       lpeversion="1" />
    <inkscape:path-effect
       effect="spiro"
       id="path-effect1062"
       is_visible="true"
       lpeversion="1" />
    <inkscape:path-effect
       effect="spiro"
       id="path-effect1065"
       is_visible="true"
       lpeversion="1" />
    <inkscape:path-effect
       effect="spiro"
       id="path-effect1064"
       is_visible="true"
       lpeversion="1" />
    <inkscape:path-effect
       effect="spiro"
       id="path-effect1887"
       is_visible="true"
       lpeversion="1" />
    <clipPath
       clipPathUnits="userSpaceOnUse"
       id="clipPath1534-1-3-9">
      <rect
         style="fill:none;stroke:#25358c;stroke-width:2;stroke-linecap:round;stroke-linejoin:round;stroke-miterlimit:4;stroke-dasharray:none;stroke-opacity:1;paint-order:stroke fill markers"
         id="rect1536-5-3-2"
         width="50.270828"
         height="61.988102"
         x="53.011154"
         y="106.40029"
         rx="10.999999"
         ry="10.999999" />
    </clipPath>
    <clipPath
       clipPathUnits="userSpaceOnUse"
       id="clipPath1612-7-6-9">
      <rect
         style="fill:none;stroke:#25358c;stroke-width:0.499999;stroke-linecap:round;stroke-linejoin:round;stroke-miterlimit:4;stroke-dasharray:none;stroke-opacity:1;paint-order:stroke fill markers"
         id="rect1614-5-07-5"
         width="11.513048"
         height="40.744499"
         x="97.470604"
         y="70.185471" />
    </clipPath>
    <inkscape:path-effect
       effect="spiro"
       id="path-effect1889"
       is_visible="true"
       lpeversion="1" />
    <clipPath
       clipPathUnits="userSpaceOnUse"
       id="clipPath1612-0-7-4-4">
      <rect
         style="fill:none;stroke:#25358c;stroke-width:0.499999;stroke-linecap:round;stroke-linejoin:round;stroke-miterlimit:4;stroke-dasharray:none;stroke-opacity:1;paint-order:stroke fill markers"
         id="rect1614-4-1-1-3"
         width="11.513048"
         height="40.744499"
         x="97.470604"
         y="70.185471" />
    </clipPath>
    <inkscape:path-effect
       effect="spiro"
       id="path-effect1891"
       is_visible="true"
       lpeversion="1" />
    <inkscape:path-effect
       effect="spiro"
       id="path-effect1893"
       is_visible="true"
       lpeversion="1" />
    <clipPath
       clipPathUnits="userSpaceOnUse"
       id="clipPath1675">
      <rect
         style="fill:none;stroke:#4b5e72;stroke-width:3;stroke-linecap:round;stroke-linejoin:round;stroke-miterlimit:4;stroke-dasharray:none;stroke-opacity:1;paint-order:stroke fill markers"
         id="rect1677"
         width="46.045948"
         height="55.825573"
         x="86.28186"
         y="87.276215" />
    </clipPath>
    <clipPath
       clipPathUnits="userSpaceOnUse"
       id="clipPath1681">
      <rect
         style="fill:none;stroke:#4b5e72;stroke-width:3;stroke-linecap:round;stroke-linejoin:round;stroke-miterlimit:4;stroke-dasharray:none;stroke-opacity:1;paint-order:stroke fill markers"
         id="rect1683"
         width="44.450069"
         height="52.287716"
         x="86.446144"
         y="90.668922" />
    </clipPath>
    <inkscape:path-effect
       effect="spiro"
       id="path-effect1713"
       is_visible="true"
       lpeversion="1" />
    <inkscape:path-effect
       effect="spiro"
       id="path-effect1717"
       is_visible="true"
       lpeversion="1" />
    <inkscape:path-effect
       effect="spiro"
       id="path-effect1721"
       is_visible="true"
       lpeversion="1" />
    <inkscape:path-effect
       effect="spiro"
       id="path-effect1725"
       is_visible="true"
       lpeversion="1" />
    <inkscape:path-effect
       effect="spiro"
       id="path-effect1733"
       is_visible="true"
       lpeversion="1" />
    <inkscape:path-effect
       effect="spiro"
       id="path-effect1580"
       is_visible="true"
       lpeversion="1" />
    <inkscape:path-effect
       effect="spiro"
       id="path-effect1603"
       is_visible="true"
       lpeversion="1" />
    <inkscape:path-effect
       effect="spiro"
       id="path-effect1608"
       is_visible="true"
       lpeversion="1" />
    <inkscape:path-effect
       effect="spiro"
       id="path-effect1631"
       is_visible="true"
       lpeversion="1" />
    <inkscape:path-effect
       effect="spiro"
       id="path-effect1650"
       is_visible="true"
       lpeversion="1" />
    <inkscape:path-effect
       effect="spiro"
       id="path-effect1673"
       is_visible="true"
       lpeversion="1" />
    <inkscape:path-effect
       effect="spiro"
       id="path-effect1684"
       is_visible="true"
       lpeversion="1" />
    <inkscape:path-effect
       effect="spiro"
       id="path-effect1688"
       is_visible="true"
       lpeversion="1" />
    <inkscape:path-effect
       effect="spiro"
       id="path-effect973"
       is_visible="true"
       lpeversion="1" />
  </defs>
  <sodipodi:namedview
     id="base"
     pagecolor="#ffffff"
     bordercolor="#666666"
     borderopacity="1.0"
     inkscape:pageopacity="0.0"
     inkscape:pageshadow="2"
     inkscape:zoom="0.49497475"
     inkscape:cx="181.64443"
     inkscape:cy="470.54395"
     inkscape:document-units="mm"
     inkscape:current-layer="layer1"
     inkscape:document-rotation="0"
     showgrid="false"
     showguides="false"
     inkscape:window-width="1366"
     inkscape:window-height="705"
     inkscape:window-x="-8"
     inkscape:window-y="-8"
     inkscape:window-maximized="1"
     fit-margin-top="0"
     fit-margin-left="0"
     fit-margin-right="0"
     fit-margin-bottom="0" />
  <metadata
     id="metadata854">
    <rdf:RDF>
      <cc:Work
         rdf:about="">
        <dc:format>image/svg+xml</dc:format>
        <dc:type
           rdf:resource="http://purl.org/dc/dcmitype/StillImage" />
        <dc:title></dc:title>
      </cc:Work>
    </rdf:RDF>
  </metadata>
  <g
     inkscape:label="Capa 1"
     inkscape:groupmode="layer"
     id="layer1"
     transform="translate(-66.799873,-8.6503391)">
    <g
       id="g2259">
      <path
         style="fill:#ea9a58;fill-opacity:1;stroke:none;stroke-width:0.264583px;stroke-linecap:butt;stroke-linejoin:miter;stroke-opacity:1"
         d="m 76.901163,27.355194 c 1.62787,-0.404712 3.329769,0.0042 4.995098,0.205263 3.456797,0.417387 6.948601,-0.07272 10.421662,-0.320722 2.038672,-0.145578 4.083082,-0.207608 6.12692,-0.197594 2.994827,0.01467 5.986777,0.183919 8.974537,0.390028 2.60358,0.179607 5.24879,0.384553 7.79965,-0.166777 0.79484,-0.171793 1.57843,-0.416737 2.38902,-0.481875 0.40529,-0.03257 0.8165,-0.0193 1.21308,0.07038 0.39659,0.08967 0.77875,0.257701 1.09429,0.514129 0.56795,0.461552 0.8853,1.193006 0.91273,1.924341 0.0346,0.92333 -0.36552,1.825764 -0.9572,2.535446 -0.59169,0.709682 -1.36397,1.246364 -2.16267,1.710932 -2.04098,1.187151 -4.29872,1.952059 -6.57162,2.591445 -2.67569,0.752693 -5.39785,1.342564 -8.14815,1.744737 -3.441498,0.503247 -6.963825,0.710079 -10.388467,0.102632 -2.954017,-0.523969 -5.766918,-1.640332 -8.529836,-2.809539 -2.215855,-0.937702 -4.420292,-1.916485 -6.505244,-3.117432 -0.731259,-0.42121 -1.470426,-0.891606 -1.932601,-1.597689 -0.231087,-0.353041 -0.385684,-0.761741 -0.406328,-1.183183 -0.02064,-0.421442 0.09906,-0.854969 0.364124,-1.183269 0.320011,-0.396356 0.816638,-0.608343 1.311005,-0.73125 z"
         id="path2006"
         inkscape:path-effect="#path-effect2008"
         inkscape:original-d="m 76.901163,27.355194 c 0.436737,-0.244015 3.330329,0.137107 4.995098,0.205263 1.664768,0.06816 6.94804,-0.21355 10.421662,-0.320722 3.47363,-0.107172 4.08488,-0.131464 6.12692,-0.197594 2.042047,-0.06613 5.983287,0.260282 8.974537,0.390028 2.99125,0.129744 5.20003,-0.110921 7.79965,-0.166777 2.59962,-0.05586 3.13119,0.06868 4.69639,0.102631 1.5652,0.03395 0.60875,1.283158 0.91273,1.924341 0.30397,0.641181 -2.07965,2.831182 -3.11987,4.246378 -1.04021,1.415195 -4.38081,1.727895 -6.57162,2.591445 -2.19081,0.86355 -5.43183,1.163423 -8.14815,1.744737 -2.71631,0.581313 -6.925377,0.06869 -10.388467,0.102632 -3.463092,0.03395 -5.686293,-1.872761 -8.529836,-2.809539 -2.843543,-0.936776 -4.336566,-2.078022 -6.505244,-3.117432 -2.168679,-1.039408 -1.316273,-2.642497 -1.974805,-3.964141 -0.658535,-1.321644 0.874268,-0.487236 1.311005,-0.73125 z" />
      <path
         style="fill:none;stroke:#000000;stroke-width:0.264583px;stroke-linecap:butt;stroke-linejoin:miter;stroke-opacity:1"
         d="m 89.081084,26.476475 -0.457644,0.09072"
         id="path2010"
         inkscape:path-effect="#path-effect2012"
         inkscape:original-d="m 89.081084,26.476475 c 0.152284,-0.0305 -0.304831,0.06074 -0.457644,0.09072" />
      <path
         style="fill:#ffd772;fill-opacity:1;stroke:none;stroke-width:0.264583px;stroke-linecap:butt;stroke-linejoin:miter;stroke-opacity:1"
         d="m 92.953453,27.184048 c 1.831156,0.05873 3.665711,0.01132 5.49139,-0.141907 2.066597,-0.17345 4.186517,-0.47789 6.184377,0.07841 0.6962,0.193854 1.37241,0.49144 2.09299,0.546534 0.36029,0.02755 0.72994,-0.0083 1.06446,-0.144888 0.33452,-0.136621 0.63188,-0.379621 0.79705,-0.701003 0.10579,-0.205846 0.15528,-0.438038 0.16067,-0.669415 0.005,-0.231377 -0.0323,-0.462311 -0.0934,-0.685542 -0.12218,-0.446463 -0.33625,-0.86152 -0.50149,-1.293901 -0.55337,-1.448014 -0.54519,-3.042022 -0.84488,-4.562928 -0.416,-2.111194 -1.43108,-4.075103 -2.74586,-5.7785 -0.95502,-1.237306 -2.12961,-2.386815 -3.61421,-2.875643 -0.85519,-0.281585 -1.777329,-0.328812 -2.670054,-0.211833 -0.892725,0.116979 -1.758593,0.394302 -2.586973,0.747047 -1.644814,0.700403 -3.184683,1.728386 -4.2596,3.156857 -0.990321,1.316051 -1.540813,2.900292 -2.159138,4.426857 -0.318887,0.787291 -0.660363,1.568653 -0.885635,2.387659 -0.225271,0.819005 -0.331418,1.685951 -0.170465,2.519984 0.200713,1.040061 0.828747,1.990991 1.706514,2.583897 0.877767,0.592905 1.99442,0.82046 3.034204,0.618318 z"
         id="path2014"
         inkscape:path-effect="#path-effect2016"
         inkscape:original-d="m 92.953453,27.184048 c 1.57997,1.067139 3.66119,-0.09434 5.49139,-0.141907 1.830197,-0.04757 4.123177,0.05254 6.184377,0.07841 2.06119,0.02588 2.6366,-0.199308 3.9545,-0.299357 1.31791,-0.10005 -0.28918,-1.765641 -0.43417,-2.648858 -0.14499,-0.883217 -0.56299,-3.041688 -0.84488,-4.562928 -0.28189,-1.521241 -1.83031,-3.852069 -2.74586,-5.7785 -0.91555,-1.926432 -2.40921,-1.916831 -3.61421,-2.875643 -1.204997,-0.958812 -3.504417,0.357074 -5.257027,0.535214 -1.7526,0.17814 -2.83947,2.104836 -4.2596,3.156857 -1.420133,1.052021 -1.439161,2.951503 -2.159138,4.426857 -0.719976,1.475355 -0.703802,3.272027 -1.0561,4.907643 -0.352298,1.635617 3.160738,2.135074 4.740718,3.202215 z" />
      <rect
         style="fill:#91e07c;fill-opacity:1;stroke:none;stroke-width:3;stroke-linecap:round;stroke-linejoin:round;stroke-miterlimit:4;stroke-dasharray:none;stroke-opacity:1;paint-order:stroke fill markers"
         id="rect1873"
         width="60.000008"
         height="95"
         x="68.299873"
         y="61.604259" />
      <rect
         style="fill:#91e07c;fill-opacity:1;stroke:none;stroke-width:3;stroke-linecap:round;stroke-linejoin:round;stroke-miterlimit:4;stroke-dasharray:none;stroke-opacity:1;paint-order:stroke fill markers"
         id="rect1875"
         width="18.999998"
         height="13.999996"
         x="89.069832"
         y="47.534473" />
      <path
         style="fill:#f7e553;fill-opacity:1;stroke:#000000;stroke-width:0.264583px;stroke-linecap:butt;stroke-linejoin:miter;stroke-opacity:1"
         d="m 80.561331,87.308435 c 0.08864,2.046583 0.124909,4.095433 0.108751,6.143871 -0.02104,2.667274 -0.130938,5.333691 -0.117341,8.001014 0.02282,4.47676 0.393482,8.95029 0.28162,13.42571 -0.05337,2.13531 -0.216568,4.26865 -0.187749,6.40443 0.02908,2.15523 0.250298,4.34611 -0.25816,6.44071 -0.276927,1.1408 -0.766812,2.23229 -0.912783,3.39711 -0.07299,0.58241 -0.05682,1.18275 0.114889,1.74404 0.17171,0.56129 0.507216,1.08214 0.988603,1.41799 0.335,0.23372 0.72939,0.372 1.13063,0.44854 0.712993,0.136 1.449464,0.0835 2.166254,-0.0308 0.716789,-0.11432 1.422889,-0.28963 2.140287,-0.40006 1.348141,-0.20753 2.719551,-0.18381 4.083569,-0.18143 5.672119,0.01 11.359209,-0.35719 17.007529,0.162 2.32983,0.21416 4.70382,0.57628 6.9862,0.0618 0.23397,-0.0527 0.46961,-0.11609 0.67473,-0.24039 0.30231,-0.1832 0.51548,-0.48613 0.66301,-0.80736 0.36658,-0.79818 0.36658,-1.70786 0.40484,-2.58536 0.0612,-1.40262 0.23673,-2.79808 0.31096,-4.20007 0.18894,-3.56874 -0.27992,-7.1415 -0.22883,-10.71487 0.0766,-5.35852 1.32084,-10.70732 0.751,-16.03601 -0.25825,-2.414905 -0.88827,-4.822516 -0.64538,-7.239014 0.10447,-1.039394 0.3702,-2.067297 0.3403,-3.1115 -0.0396,-1.384614 -0.63449,-2.760852 -1.67247,-3.678087 -0.66865,-0.590863 -1.4975,-0.981724 -2.35862,-1.21557 -0.89885,-0.244093 -1.84142,-0.325167 -2.71653,-0.644072 -0.98545,-0.359116 -1.84329,-1.006165 -2.59425,-1.73837 -0.75097,-0.732205 -1.40759,-1.554062 -2.10299,-2.339238 -0.66419,-0.749943 -1.36442,-1.467107 -2.07111,-2.177142 -0.53308,-0.535599 -1.08057,-1.075221 -1.74844,-1.42875 -0.74523,-0.394475 -1.614196,-0.535298 -2.452488,-0.4445 -0.928765,0.100598 -1.80315,0.471672 -2.66959,0.820965 -0.876006,0.35315 -1.783477,0.703067 -2.4701,1.351642 -0.529928,0.500563 -0.894224,1.148363 -1.36125,1.708071 -0.746043,0.894095 -1.742067,1.549583 -2.511121,2.423964 -0.497174,0.565265 -0.907766,1.229005 -1.53721,1.64193 -0.591618,0.388111 -1.311438,0.511497 -2.00072,0.671285 -0.749205,0.173679 -1.487321,0.400384 -2.19434,0.703035 -1.240797,0.531143 -2.380726,1.296811 -3.3417,2.244556"
         id="path1881"
         inkscape:path-effect="#path-effect1883"
         inkscape:original-d="m 80.561331,87.308435 c 0.06,2.02403 0.0728,4.096178 0.108751,6.143871 0.036,2.047692 -0.078,5.334271 -0.117341,8.001014 -0.0394,2.66673 0.188011,8.95074 0.28162,13.42571 0.0936,4.47497 -0.124899,4.26988 -0.187749,6.40443 -0.0628,2.13454 -0.17184,4.29407 -0.25816,6.44071 -0.0863,2.14664 0.127409,4.37302 0.190709,6.55914 0.0633,2.18611 0.75402,0.29929 1.13063,0.44854 0.37661,0.14925 2.871291,-0.287 4.306541,-0.43089 1.43525,-0.1439 2.722659,-0.12069 4.083569,-0.18143 1.360931,-0.0607 11.338629,0.10827 17.007529,0.162 5.66891,0.0537 4.65773,0.0414 6.9862,0.0618 2.32847,0.0203 0.45009,-0.16 0.67473,-0.24039 0.22465,-0.0804 0.44226,-0.53798 0.66301,-0.80736 0.22073,-0.26938 0.27016,-1.7233 0.40484,-2.58536 0.13468,-0.86205 0.20757,-2.79978 0.31096,-4.20007 0.10338,-1.40029 -0.15228,-7.14298 -0.22883,-10.71487 -0.0765,-3.57188 0.50094,-10.69041 0.751,-16.03601 0.25007,-5.345619 -0.42999,-4.82575 -0.64538,-7.239014 -0.2154,-2.413265 0.22712,-2.074069 0.3403,-3.1115 0.11316,-1.037432 -1.11472,-2.451793 -1.67247,-3.678087 -0.55775,-1.226293 -1.57215,-0.810114 -2.35862,-1.21557 -0.78647,-0.405455 -1.81076,-0.429117 -2.71653,-0.644072 -0.90577,-0.214956 -3.13123,-2.718139 -4.69724,-4.077608 -1.566,-1.359466 -1.38048,-1.451163 -2.07111,-2.177142 -0.69065,-0.72598 -1.16537,-0.952236 -1.74844,-1.42875 -0.58308,-0.476515 -1.634738,-0.296069 -2.452488,-0.4445 -0.81777,-0.148432 -1.77947,0.547573 -2.66959,0.820965 -0.89013,0.273388 -1.64647,0.901358 -2.4701,1.351642 -0.82363,0.450284 -0.90724,1.138979 -1.36125,1.708071 -0.45402,0.569092 -1.673811,1.616241 -2.511121,2.423964 -0.8373,0.807725 -1.02454,1.094886 -1.53721,1.64193 -0.51266,0.547045 -1.33355,0.447789 -2.00072,0.671285 -0.66717,0.223496 -1.46263,0.468956 -2.19434,0.703035 -0.73171,0.234082 -2.22754,1.496637 -3.3417,2.244556" />
      <rect
         style="fill:none;stroke:#030405;stroke-width:3;stroke-linecap:round;stroke-linejoin:round;stroke-miterlimit:4;stroke-dasharray:none;stroke-opacity:1;paint-order:stroke fill markers"
         id="rect1567"
         width="19"
         height="14"
         x="89.069832"
         y="47.53447" />
      <path
         style="fill:none;stroke:#030405;stroke-width:3;stroke-linecap:round;stroke-linejoin:miter;stroke-miterlimit:4;stroke-dasharray:none;stroke-opacity:1"
         d="M 98.667722,124.05659 98.545373,90.349922"
         id="path1613"
         inkscape:path-effect="#path-effect1615"
         inkscape:original-d="m 98.667722,124.05659 c -0.165689,-9.53591 0.0439,-24.17022 -0.122349,-33.706668"
         sodipodi:nodetypes="cc" />
      <path
         style="fill:none;stroke:#030405;stroke-width:3;stroke-linecap:round;stroke-linejoin:miter;stroke-miterlimit:4;stroke-dasharray:none;stroke-opacity:1"
         d="m 89.993046,106.03477 -0.13276,7.74868"
         id="path1617"
         inkscape:path-effect="#path-effect1619"
         inkscape:original-d="m 89.993046,106.03477 c -0.044,2.58316 -0.0882,5.16605 -0.13276,7.74868" />
      <path
         style="fill:none;stroke:#030405;stroke-width:3;stroke-linecap:round;stroke-linejoin:miter;stroke-miterlimit:4;stroke-dasharray:none;stroke-opacity:1"
         d="m 106.28682,102.0984 -0.13276,7.74868"
         id="path1617-2"
         inkscape:path-effect="#path-effect1642"
         inkscape:original-d="m 106.28682,102.0984 c -0.044,2.58316 -0.0882,5.16605 -0.13276,7.74868" />
      <path
         style="fill:none;stroke:#030405;stroke-width:3;stroke-linecap:butt;stroke-linejoin:miter;stroke-miterlimit:4;stroke-dasharray:none;stroke-opacity:1"
         d="m 89.860286,113.78345 8.463456,0.23092"
         id="path1645"
         inkscape:path-effect="#path-effect1647"
         inkscape:original-d="m 89.860286,113.78345 c 2.799286,0.0516 5.642566,0.15421 8.463456,0.23092" />
      <path
         style="fill:none;stroke:#030405;stroke-width:3;stroke-linecap:butt;stroke-linejoin:miter;stroke-miterlimit:4;stroke-dasharray:none;stroke-opacity:1"
         d="m 97.690603,109.61616 8.463457,0.23092"
         id="path1645-7"
         inkscape:path-effect="#path-effect1670"
         inkscape:original-d="m 97.690603,109.61616 c 2.799287,0.0516 5.642567,0.15421 8.463457,0.23092" />
      <path
         style="fill:none;stroke:#030405;stroke-width:3;stroke-linecap:round;stroke-linejoin:round;stroke-miterlimit:4;stroke-dasharray:none;stroke-opacity:1;paint-order:stroke fill markers"
         id="path1733"
         sodipodi:type="arc"
         sodipodi:cx="98.437981"
         sodipodi:cy="82.692299"
         sodipodi:rx="7"
         sodipodi:ry="7"
         sodipodi:start="3.5953783"
         sodipodi:end="5.714208"
         sodipodi:arc-type="arc"
         sodipodi:open="true"
         d="m 92.146422,79.623701 a 7,7 0 0 1 5.888611,-3.919795 7,7 0 0 1 6.300117,3.216998" />
      <path
         style="fill:none;stroke:#030405;stroke-width:3;stroke-linecap:round;stroke-linejoin:miter;stroke-miterlimit:4;stroke-dasharray:none;stroke-opacity:1"
         d="m 80.561331,87.308475 c 0.291807,-0.688702 0.793846,-1.286656 1.421651,-1.693255 0.928219,-0.601163 2.062856,-0.763703 3.153051,-0.949341 0.850585,-0.144837 1.707214,-0.315395 2.489252,-0.679934 1.296334,-0.604273 2.293318,-1.693952 3.219432,-2.783879 0.441598,-0.519709 0.875562,-1.045906 1.301705,-1.578362"
         id="path1794"
         inkscape:path-effect="#path-effect1796"
         inkscape:original-d="m 80.561331,87.308475 c 0.05505,-0.817041 0.976617,-1.395786 1.421651,-1.693255 0.445036,-0.297468 2.163147,-0.844306 3.153051,-0.949341 0.989905,-0.105034 1.598916,-0.241347 2.489252,-0.679934 0.890334,-0.438586 2.146552,-1.855655 3.219432,-2.783879 1.072875,-0.928225 0.868076,-1.051976 1.301705,-1.578362"
         sodipodi:nodetypes="cssssc" />
      <rect
         style="fill:none;stroke:#030405;stroke-width:3;stroke-linecap:round;stroke-linejoin:round;stroke-miterlimit:4;stroke-dasharray:none;stroke-opacity:1;paint-order:stroke fill markers"
         id="rect1565"
         width="60"
         height="95"
         x="68.299873"
         y="61.604259" />
      <rect
         style="fill:#fbb9d7;fill-opacity:1;stroke:none;stroke-width:3;stroke-linecap:round;stroke-linejoin:round;stroke-miterlimit:4;stroke-dasharray:none;stroke-opacity:1;paint-order:stroke fill markers"
         id="rect1871"
         width="18.529884"
         height="8.8123426"
         x="89.069832"
         y="38.722126" />
      <rect
         style="fill:none;stroke:#030405;stroke-width:3;stroke-linecap:round;stroke-linejoin:round;stroke-miterlimit:4;stroke-dasharray:none;stroke-opacity:1;paint-order:stroke fill markers"
         id="rect1567-3"
         width="19"
         height="9"
         x="89.069832"
         y="38.53447" />
      <path
         style="fill:none;fill-opacity:1;stroke:#000000;stroke-width:3;stroke-linecap:round;stroke-linejoin:round;stroke-miterlimit:4;stroke-dasharray:none;stroke-opacity:1;paint-order:stroke fill markers"
         id="path1976"
         sodipodi:type="arc"
         sodipodi:cx="98.444847"
         sodipodi:cy="27.042141"
         sodipodi:rx="22.999508"
         sodipodi:ry="11.375635"
         sodipodi:start="0"
         sodipodi:end="3.1415927"
         sodipodi:arc-type="slice"
         d="m 121.44436,27.042141 a 22.999508,11.375635 0 0 1 -11.49976,9.851589 22.999508,11.375635 0 0 1 -22.999507,0 22.999508,11.375635 0 0 1 -11.499754,-9.851589 h 22.999508 z" />
      <path
         style="fill:none;fill-opacity:1;stroke:#000000;stroke-width:3;stroke-linecap:round;stroke-linejoin:round;stroke-miterlimit:4;stroke-dasharray:none;stroke-opacity:1;paint-order:stroke fill markers"
         id="path1978"
         sodipodi:type="arc"
         sodipodi:cx="98.35424"
         sodipodi:cy="-26.150339"
         sodipodi:rx="10"
         sodipodi:ry="16"
         sodipodi:start="0"
         sodipodi:end="3.1415927"
         sodipodi:arc-type="arc"
         transform="scale(1,-1)"
         sodipodi:open="true"
         d="m 108.35424,-26.150339 a 10,16 0 0 1 -5,13.856406 10,16 0 0 1 -10,0 10,16 0 0 1 -5,-13.856406" />
      <path
         style="fill:none;stroke:#000000;stroke-width:5;stroke-linecap:round;stroke-linejoin:miter;stroke-miterlimit:4;stroke-dasharray:none;stroke-opacity:0.25098"
         d="m 124.54562,64.077391 c 0.2148,8.43079 0.38665,16.862674 0.51557,25.295214 0.20421,13.357425 0.30065,26.717235 0.16461,40.075525 -0.0728,7.1497 -0.21223,14.29872 -0.41822,21.44582 l -0.54273,4.32937"
         id="path2154"
         inkscape:path-effect="#path-effect2156"
         inkscape:original-d="m 124.54562,64.077391 c 0.26924,28.243194 29.80079,-766.653151 0.51557,25.295214 -0.52781,14.273485 -0.013,28.977215 0.16461,40.075525 0.1776,11.09831 -0.41822,21.44582 -0.41822,21.44582 0.59713,-5.11046 -0.13865,3.54279 -0.54273,4.32937"
         sodipodi:nodetypes="csscc" />
      <path
         style="fill:none;stroke:#000000;stroke-width:5;stroke-linecap:butt;stroke-linejoin:miter;stroke-miterlimit:4;stroke-dasharray:none;stroke-opacity:0.25098"
         d="M 105.26593,61.407523 104.99604,38.583809"
         id="path2158"
         inkscape:path-effect="#path-effect2160"
         inkscape:original-d="m 105.26593,61.407523 c -0.0897,-7.607641 -0.17966,-15.215544 -0.26989,-22.823714" />
      <path
         style="fill:none;stroke:#000000;stroke-width:5;stroke-linecap:round;stroke-linejoin:miter;stroke-miterlimit:4;stroke-dasharray:none;stroke-opacity:0.25098"
         d="m 102.07401,37.359092 c 2.12109,-0.514594 4.20135,-1.197367 6.21483,-2.0398 1.46937,-0.61478 2.90439,-1.315143 4.27321,-2.129602 1.18194,-0.703266 2.31192,-1.489909 3.43518,-2.283552 1.15646,-0.817101 2.30708,-1.642459 3.45176,-2.475987"
         id="path2162"
         inkscape:path-effect="#path-effect2164"
         inkscape:original-d="m 102.07401,37.359092 c 1.82849,-0.664702 4.38688,-1.383122 6.21483,-2.0398 1.82795,-0.65668 2.78822,-1.519965 4.27321,-2.129602 1.48499,-0.60964 2.35123,-1.421611 3.43518,-2.283552 1.08394,-0.861942 2.56972,-1.421609 3.45176,-2.475987"
         sodipodi:nodetypes="csssc" />
      <path
         style="fill:none;stroke:#000000;stroke-width:5;stroke-linecap:round;stroke-linejoin:miter;stroke-miterlimit:4;stroke-dasharray:none;stroke-opacity:0.25098"
         d="m 97.582383,11.451589 c 1.554784,0.212395 3.042947,0.890453 4.223427,1.92434 1.40222,1.228088 2.33938,2.908905 3.00369,4.65049 0.94328,2.472964 1.38624,5.135584 1.29442,7.780751"
         id="path2166"
         inkscape:path-effect="#path-effect2168"
         inkscape:original-d="m 97.582383,11.451589 c 1.40807,0.635297 2.815877,1.283158 4.223427,1.92434 1.40754,0.641183 2.00273,3.100591 3.00369,4.65049 1.00097,1.549899 0.86321,5.187432 1.29442,7.780751" />
      <path
         style="fill:none;stroke:#9d6319;stroke-width:5;stroke-linecap:round;stroke-linejoin:miter;stroke-miterlimit:4;stroke-dasharray:none;stroke-opacity:0.867708"
         d="m 82.315859,132.84098 c 1.436232,-0.28178 2.879346,-0.52849 4.327621,-0.73982 5.317199,-0.77589 10.771318,-1.06941 16.04098,-0.0181 1.85496,0.37007 3.70549,0.90775 5.59597,0.84518 0.94524,-0.0313 1.8944,-0.21758 2.74446,-0.63213 0.85006,-0.41455 1.59726,-1.06704 2.04456,-1.90033 0.31967,-0.59553 0.47993,-1.26608 0.55003,-1.93833 0.0701,-0.67226 0.0531,-1.35019 0.0367,-2.02589 -0.31459,-12.98329 -0.35568,-25.97321 -0.12321,-38.958238"
         id="path2211"
         inkscape:path-effect="#path-effect2213"
         inkscape:original-d="m 82.315859,132.84098 c 1.270701,-0.75434 3.057452,0.0151 4.327621,-0.73982 1.270172,-0.75487 12.982472,-0.0602 16.04098,-0.0181 3.05852,0.0421 9.86806,1.81291 10.38499,-1.68728 0.60161,-4.07361 -1.34528,-2.319 0.58672,-3.96422 1.93201,-1.64522 -1.27292,-35.051208 -0.12321,-38.958238"
         sodipodi:nodetypes="cssssc" />
      <rect
         style="fill:none;stroke:#030405;stroke-width:3;stroke-linecap:round;stroke-linejoin:round;stroke-miterlimit:4;stroke-dasharray:none;stroke-opacity:1;paint-order:stroke fill markers"
         id="rect1611"
         width="35.539783"
         height="50.201714"
         x="91.648178"
         y="87.298782"
         clip-path="url(#clipPath1681)"
         transform="translate(-11.069016,-3.2171502)" />
      <path
         style="fill:none;stroke:#030405;stroke-width:3;stroke-linecap:round;stroke-linejoin:miter;stroke-miterlimit:4;stroke-dasharray:none;stroke-opacity:1"
         d="m 116.1028,87.500496 c -0.012,-0.532137 -0.16888,-1.060301 -0.44931,-1.512713 -0.28042,-0.452411 -0.68365,-0.827873 -1.15489,-1.075359 -0.55209,-0.289946 -1.17956,-0.400642 -1.79923,-0.470418 -0.61968,-0.06978 -1.24672,-0.103131 -1.85168,-0.254417 -0.71029,-0.177625 -1.37211,-0.513872 -1.9914,-0.90444 -1.20375,-0.759171 -2.26489,-1.728316 -3.21943,-2.783879 -0.45757,-0.505993 -0.89207,-1.032841 -1.30171,-1.578362"
         id="path1794-6"
         inkscape:path-effect="#path-effect1819"
         inkscape:original-d="m 116.1028,87.500496 c -0.0551,-0.817041 -1.15917,-2.290604 -1.6042,-2.588072 -0.44504,-0.297468 -2.82592,-0.167758 -3.65091,-0.724835 -11.462687,-7.740277 -1.10106,-0.465853 -1.9914,-0.90444 -0.89033,-0.438583 -2.14655,-1.855655 -3.21943,-2.783879 -1.07288,-0.928225 -0.86808,-1.051976 -1.30171,-1.578362"
         sodipodi:nodetypes="cssssc" />
    </g>
    <g
       id="g2268"
       transform="translate(-51.802737,5.9462128)">
      <g
         id="g2037"
         transform="translate(6.4892046,-6.4641725)">
        <rect
           style="fill:#ffd772;fill-opacity:1;stroke:none;stroke-width:3;stroke-linecap:round;stroke-linejoin:round;stroke-miterlimit:4;stroke-dasharray:none;stroke-opacity:1;paint-order:stroke fill markers"
           id="rect2028"
           width="50.060886"
           height="35.053509"
           x="150.52727"
           y="129.47801"
           rx="2.0000012"
           ry="2.0000012" />
        <rect
           style="fill:#e0f6eb;fill-opacity:1;stroke:none;stroke-width:3;stroke-linecap:round;stroke-linejoin:round;stroke-miterlimit:4;stroke-dasharray:none;stroke-opacity:1;paint-order:stroke fill markers"
           id="rect2030"
           width="50.763462"
           height="13.840279"
           x="149.82469"
           y="115.63773"
           rx="2.0000012"
           ry="2.0000012" />
        <g
           id="g2026"
           transform="translate(-73.623327,-12.023026)"
           style="stroke:#000000;stroke-opacity:1">
          <rect
             style="fill:none;fill-opacity:1;stroke:#000000;stroke-width:3;stroke-linecap:round;stroke-linejoin:round;stroke-miterlimit:4;stroke-dasharray:none;stroke-opacity:1;paint-order:stroke fill markers"
             id="rect2018"
             width="51.909187"
             height="49.878906"
             x="223.44801"
             y="127.66076"
             rx="2"
             ry="2" />
          <path
             style="fill:none;stroke:#000000;stroke-width:3;stroke-linecap:butt;stroke-linejoin:miter;stroke-miterlimit:4;stroke-dasharray:none;stroke-opacity:1"
             d="m 224.15059,141.50104 51.21221,-0.33355"
             id="path2020"
             inkscape:path-effect="#path-effect2022"
             inkscape:original-d="m 224.15059,141.50104 c 17.02674,-0.11947 34.14173,-0.2221 51.21221,-0.33355" />
        </g>
      </g>
      <path
         style="fill:none;stroke:#000000;stroke-width:5;stroke-linecap:round;stroke-linejoin:miter;stroke-miterlimit:4;stroke-dasharray:none;stroke-opacity:0.25098"
         d="m 204.28694,111.14029 c 0.66678,13.31333 0.70278,26.65823 0.10786,39.97496 -0.0926,2.07263 -0.20046,4.14458 -0.32359,6.21562"
         id="path2170"
         inkscape:path-effect="#path-effect2172"
         inkscape:original-d="m 204.28694,111.14029 c 0.2326,15.46769 -0.12421,24.50781 0.10786,39.97496 0.23207,15.46716 -0.21823,5.3649 -0.32359,6.21562"
         sodipodi:nodetypes="csc" />
    </g>
  </g>
</svg>
