<?xml version="1.0" encoding="UTF-8" standalone="no"?>
<svg
   xmlns:dc="http://purl.org/dc/elements/1.1/"
   xmlns:cc="http://creativecommons.org/ns#"
   xmlns:rdf="http://www.w3.org/1999/02/22-rdf-syntax-ns#"
   xmlns:svg="http://www.w3.org/2000/svg"
   xmlns="http://www.w3.org/2000/svg"
   xmlns:sodipodi="http://sodipodi.sourceforge.net/DTD/sodipodi-0.dtd"
   xmlns:inkscape="http://www.inkscape.org/namespaces/inkscape"
   width="69.101433mm"
   height="135.46341mm"
   viewBox="0 0 69.101433 135.46341"
   version="1.1"
   id="svg871"
   inkscape:version="1.0.2-2 (e86c870879, 2021-01-15)"
   sodipodi:docname="Vodka.svg">
  <defs
     id="defs865">
    <inkscape:path-effect
       effect="spiro"
       id="path-effect2128"
       is_visible="true"
       lpeversion="1" />
    <inkscape:path-effect
       effect="spiro"
       id="path-effect2124"
       is_visible="true"
       lpeversion="1" />
    <inkscape:path-effect
       effect="spiro"
       id="path-effect2120"
       is_visible="true"
       lpeversion="1" />
    <inkscape:path-effect
       effect="spiro"
       id="path-effect2116"
       is_visible="true"
       lpeversion="1" />
    <inkscape:path-effect
       effect="spiro"
       id="path-effect2112"
       is_visible="true"
       lpeversion="1" />
    <inkscape:path-effect
       effect="spiro"
       id="path-effect2108"
       is_visible="true"
       lpeversion="1" />
    <inkscape:path-effect
       effect="spiro"
       id="path-effect2091"
       is_visible="true"
       lpeversion="1" />
    <inkscape:path-effect
       effect="spiro"
       id="path-effect2075"
       is_visible="true"
       lpeversion="1" />
    <inkscape:path-effect
       effect="spiro"
       id="path-effect2067"
       is_visible="true"
       lpeversion="1" />
    <inkscape:path-effect
       effect="spiro"
       id="path-effect1741"
       is_visible="true"
       lpeversion="1" />
    <inkscape:path-effect
       effect="spiro"
       id="path-effect1718"
       is_visible="true"
       lpeversion="1" />
    <inkscape:path-effect
       effect="spiro"
       id="path-effect1712"
       is_visible="true"
       lpeversion="1" />
    <inkscape:path-effect
       effect="spiro"
       id="path-effect1663"
       is_visible="true"
       lpeversion="1" />
    <inkscape:path-effect
       effect="spiro"
       id="path-effect1640"
       is_visible="true"
       lpeversion="1" />
    <inkscape:path-effect
       effect="spiro"
       id="path-effect1635"
       is_visible="true"
       lpeversion="1" />
    <inkscape:path-effect
       effect="spiro"
       id="path-effect1612"
       is_visible="true"
       lpeversion="1" />
    <inkscape:path-effect
       effect="spiro"
       id="path-effect1606"
       is_visible="true"
       lpeversion="1" />
    <inkscape:path-effect
       effect="spiro"
       id="path-effect1601"
       is_visible="true"
       lpeversion="1" />
    <inkscape:path-effect
       effect="powerclip"
       id="path-effect1576"
       is_visible="true"
       lpeversion="1"
       inverse="true"
       flatten="false"
       hide_clip="false"
       message="Utilice la regla de relleno parimpar en el diálogo &lt;b&gt;Relleno y borde&lt;/b&gt; si el resultado no está aplanada después de convertir el recorte en trayectos." />
    <inkscape:path-effect
       effect="spiro"
       id="path-effect1551"
       is_visible="true"
       lpeversion="1" />
    <inkscape:path-effect
       effect="spiro"
       id="path-effect1528"
       is_visible="true"
       lpeversion="1" />
    <inkscape:path-effect
       effect="spiro"
       id="path-effect1523"
       is_visible="true"
       lpeversion="1" />
    <inkscape:path-effect
       effect="spiro"
       id="path-effect1500"
       is_visible="true"
       lpeversion="1" />
    <inkscape:path-effect
       effect="spiro"
       id="path-effect1495"
       is_visible="true"
       lpeversion="1" />
    <inkscape:path-effect
       effect="spiro"
       id="path-effect1472"
       is_visible="true"
       lpeversion="1" />
    <clipPath
       clipPathUnits="userSpaceOnUse"
       id="clipPath1572">
      <rect
         style="display:none;fill:none;stroke:#282e80;stroke-width:1;stroke-linecap:round;stroke-linejoin:round;stroke-miterlimit:4;stroke-dasharray:none;stroke-opacity:1;paint-order:stroke fill markers"
         id="rect1574"
         width="32.10146"
         height="5.7584076"
         x="33.869362"
         y="137.93942"
         rx="2.0000012"
         ry="2.0000012"
         d="M 35.869363,137.93942 H 63.97082 c 1.108001,0 2.000001,0.892 2.000001,2 v 1.75841 c 0,1.108 -0.892,2 -2.000001,2 H 35.869363 c -1.108001,0 -2.000001,-0.892 -2.000001,-2 v -1.75841 c 0,-1.108 0.892,-2 2.000001,-2 z" />
      <path
         id="lpe_path-effect1576"
         style="fill:none;stroke:#282e80;stroke-width:1;stroke-linecap:round;stroke-linejoin:round;stroke-miterlimit:4;stroke-dasharray:none;stroke-opacity:1;paint-order:stroke fill markers"
         class="powerclip"
         d="m 25.06101,134.68556 h 48.907738 v 24.71726 H 25.06101 Z m 10.808353,3.25386 c -1.108001,0 -2.000001,0.892 -2.000001,2 v 1.75841 c 0,1.108 0.892,2 2.000001,2 H 63.97082 c 1.108001,0 2.000001,-0.892 2.000001,-2 v -1.75841 c 0,-1.108 -0.892,-2 -2.000001,-2 z" />
    </clipPath>
    <inkscape:path-effect
       effect="spiro"
       id="path-effect1251"
       is_visible="true"
       lpeversion="1" />
    <inkscape:path-effect
       effect="spiro"
       id="path-effect1247"
       is_visible="true"
       lpeversion="1" />
    <inkscape:path-effect
       effect="spiro"
       id="path-effect1243"
       is_visible="true"
       lpeversion="1" />
    <inkscape:path-effect
       effect="spiro"
       id="path-effect1084"
       is_visible="true"
       lpeversion="1" />
    <inkscape:path-effect
       effect="spiro"
       id="path-effect1203"
       is_visible="true"
       lpeversion="1" />
    <inkscape:path-effect
       effect="spiro"
       id="path-effect1208"
       is_visible="true"
       lpeversion="1" />
    <inkscape:path-effect
       effect="spiro"
       id="path-effect1231"
       is_visible="true"
       lpeversion="1" />
    <inkscape:path-effect
       effect="spiro"
       id="path-effect1318"
       is_visible="true"
       lpeversion="1" />
    <inkscape:path-effect
       effect="spiro"
       id="path-effect2445"
       is_visible="true"
       lpeversion="1" />
    <inkscape:path-effect
       effect="spiro"
       id="path-effect2447"
       is_visible="true"
       lpeversion="1" />
    <inkscape:path-effect
       effect="spiro"
       id="path-effect2449"
       is_visible="true"
       lpeversion="1" />
    <inkscape:path-effect
       effect="spiro"
       id="path-effect2451"
       is_visible="true"
       lpeversion="1" />
    <clipPath
       clipPathUnits="userSpaceOnUse"
       id="clipPath1450-5">
      <rect
         style="fill:none;fill-opacity:1;stroke:#174266;stroke-width:3;stroke-linecap:round;stroke-linejoin:round;stroke-miterlimit:4;stroke-dasharray:none;stroke-opacity:1;paint-order:stroke fill markers"
         id="rect1452-2"
         width="99.424248"
         height="89.535286"
         x="47.039436"
         y="98.622459"
         rx="4.99999"
         ry="4.99999" />
    </clipPath>
    <inkscape:path-effect
       effect="spiro"
       id="path-effect2453"
       is_visible="true"
       lpeversion="1" />
    <inkscape:path-effect
       effect="spiro"
       id="path-effect2455"
       is_visible="true"
       lpeversion="1" />
    <clipPath
       clipPathUnits="userSpaceOnUse"
       id="clipath_lpe_path-effect2457">
      <rect
         style="display:none;fill:none;fill-opacity:1;stroke:#000000;stroke-width:3;stroke-linecap:round;stroke-linejoin:round;stroke-miterlimit:4;stroke-dasharray:none;stroke-opacity:1;paint-order:stroke fill markers"
         id="rect2492"
         width="97.267326"
         height="25.361038"
         x="47.039436"
         y="98.622459"
         rx="2.0000012"
         ry="2.0000012" />
      <path
         id="lpe_path-effect2457"
         style="fill:none;fill-opacity:1;stroke:#000000;stroke-width:3;stroke-linecap:round;stroke-linejoin:round;stroke-miterlimit:4;stroke-dasharray:none;stroke-opacity:1;paint-order:stroke fill markers"
         class="powerclip"
         d="m 52.65947,50 h 89.99057 v 68.901 H 52.65947 Z m -3.620032,48.622459 c -1.108001,0 -2.000002,0.892001 -2.000002,2.000001 v 21.36104 c 0,1.108 0.892001,2 2.000002,2 h 93.267322 c 1.108,0 2,-0.892 2,-2 v -21.36104 c 0,-1.108 -0.892,-2.000001 -2,-2.000001 z" />
    </clipPath>
    <inkscape:path-effect
       effect="powerclip"
       id="path-effect2457"
       is_visible="true"
       lpeversion="1"
       inverse="true"
       flatten="false"
       hide_clip="false"
       message="Utilice la regla de relleno parimpar en el diálogo &lt;b&gt;Relleno y borde&lt;/b&gt; si el resultado no está aplanada después de convertir el recorte en trayectos." />
    <inkscape:path-effect
       effect="spiro"
       id="path-effect2459"
       is_visible="true"
       lpeversion="1" />
    <clipPath
       clipPathUnits="userSpaceOnUse"
       id="clipath_lpe_path-effect2461">
      <rect
         style="display:none;fill:none;fill-opacity:1;stroke:#174266;stroke-width:3;stroke-linecap:round;stroke-linejoin:round;stroke-miterlimit:4;stroke-dasharray:none;stroke-opacity:1;paint-order:stroke fill markers"
         id="rect2487"
         width="51.583"
         height="22.985168"
         x="71.628242"
         y="60.670181"
         rx="2.0000012"
         ry="2.0000012"
         d="m 73.628244,60.670181 h 47.582996 c 1.108,0 2,0.892001 2,2.000001 v 18.985167 c 0,1.108 -0.892,2.000001 -2,2.000001 H 73.628244 c -1.108001,0 -2.000002,-0.892001 -2.000002,-2.000001 V 62.670182 c 0,-1.108 0.892001,-2.000001 2.000002,-2.000001 z" />
      <path
         id="lpe_path-effect2461"
         style="fill:none;fill-opacity:1;stroke:#174266;stroke-width:3;stroke-linecap:round;stroke-linejoin:round;stroke-miterlimit:4;stroke-dasharray:none;stroke-opacity:1;paint-order:stroke fill markers"
         class="powerclip"
         d="M 51.764751,64.593697 H 142.76475 V 109.39877 H 51.764751 Z m 21.863493,-3.923516 c -1.108001,0 -2.000002,0.892001 -2.000002,2.000001 v 18.985167 c 0,1.108 0.892001,2.000001 2.000002,2.000001 h 47.582996 c 1.108,0 2,-0.892001 2,-2.000001 V 62.670182 c 0,-1.108 -0.892,-2.000001 -2,-2.000001 z" />
    </clipPath>
    <inkscape:path-effect
       effect="powerclip"
       id="path-effect2461"
       is_visible="true"
       lpeversion="1"
       inverse="true"
       flatten="false"
       hide_clip="false"
       message="Utilice la regla de relleno parimpar en el diálogo &lt;b&gt;Relleno y borde&lt;/b&gt; si el resultado no está aplanada después de convertir el recorte en trayectos." />
    <inkscape:path-effect
       effect="spiro"
       id="path-effect2463"
       is_visible="true"
       lpeversion="1" />
    <inkscape:path-effect
       effect="spiro"
       id="path-effect2465"
       is_visible="true"
       lpeversion="1" />
    <inkscape:path-effect
       effect="spiro"
       id="path-effect2467"
       is_visible="true"
       lpeversion="1" />
    <inkscape:path-effect
       effect="spiro"
       id="path-effect2469"
       is_visible="true"
       lpeversion="1" />
    <inkscape:path-effect
       effect="spiro"
       id="path-effect2471"
       is_visible="true"
       lpeversion="1" />
    <inkscape:path-effect
       effect="spiro"
       id="path-effect2473"
       is_visible="true"
       lpeversion="1" />
    <inkscape:path-effect
       effect="spiro"
       id="path-effect2475"
       is_visible="true"
       lpeversion="1" />
    <inkscape:path-effect
       effect="spiro"
       id="path-effect2477"
       is_visible="true"
       lpeversion="1" />
    <inkscape:path-effect
       effect="spiro"
       id="path-effect2479"
       is_visible="true"
       lpeversion="1" />
    <inkscape:path-effect
       effect="spiro"
       id="path-effect2481"
       is_visible="true"
       lpeversion="1" />
    <inkscape:path-effect
       effect="spiro"
       id="path-effect2483"
       is_visible="true"
       lpeversion="1" />
    <inkscape:path-effect
       effect="spiro"
       id="path-effect2485"
       is_visible="true"
       lpeversion="1" />
  </defs>
  <sodipodi:namedview
     id="base"
     pagecolor="#ffffff"
     bordercolor="#666666"
     borderopacity="1.0"
     inkscape:pageopacity="0.0"
     inkscape:pageshadow="2"
     inkscape:zoom="0.30459099"
     inkscape:cx="-39.383343"
     inkscape:cy="305.44547"
     inkscape:document-units="mm"
     inkscape:current-layer="layer1"
     inkscape:document-rotation="0"
     showgrid="false"
     inkscape:window-width="1366"
     inkscape:window-height="705"
     inkscape:window-x="-8"
     inkscape:window-y="-8"
     inkscape:window-maximized="1"
     fit-margin-top="0"
     fit-margin-left="0"
     fit-margin-right="0"
     fit-margin-bottom="0" />
  <metadata
     id="metadata868">
    <rdf:RDF>
      <cc:Work
         rdf:about="">
        <dc:format>image/svg+xml</dc:format>
        <dc:type
           rdf:resource="http://purl.org/dc/dcmitype/StillImage" />
        <dc:title></dc:title>
      </cc:Work>
    </rdf:RDF>
  </metadata>
  <g
     inkscape:label="Capa 1"
     inkscape:groupmode="layer"
     id="layer1"
     transform="translate(-10.082032,-11.121543)">
    <g
       id="g2104"
       transform="translate(-21.514551,-6.2822881)">
      <g
         id="g1856">
        <rect
           style="fill:#d9dedc;fill-opacity:1;stroke:none;stroke-width:3;stroke-linecap:round;stroke-linejoin:round;stroke-miterlimit:4;stroke-dasharray:none;stroke-opacity:1;paint-order:stroke fill markers"
           id="rect1841"
           width="21.80513"
           height="23.400063"
           x="77.392883"
           y="122.47936" />
        <rect
           style="fill:#e0f6eb;fill-opacity:1;stroke:none;stroke-width:3;stroke-linecap:round;stroke-linejoin:round;stroke-miterlimit:4;stroke-dasharray:none;stroke-opacity:1;paint-order:stroke fill markers"
           id="rect1843"
           width="21.80513"
           height="11.611"
           x="77.392883"
           y="110.86836" />
        <rect
           style="fill:#8aceb6;fill-opacity:1;stroke:none;stroke-width:3;stroke-linecap:round;stroke-linejoin:round;stroke-miterlimit:4;stroke-dasharray:none;stroke-opacity:1;paint-order:stroke fill markers"
           id="rect1845"
           width="21.80513"
           height="4.8110046"
           x="77.392883"
           y="145.87943" />
        <g
           id="g1766"
           style="stroke:#000102;stroke-opacity:1">
          <rect
             style="fill:none;stroke:#000102;stroke-width:3;stroke-linecap:round;stroke-linejoin:round;stroke-miterlimit:4;stroke-dasharray:none;stroke-opacity:1;paint-order:stroke fill markers"
             id="rect1668"
             width="21.805134"
             height="35.011063"
             x="77.392876"
             y="110.86836"
             rx="2.0000012"
             ry="2.0000012" />
          <rect
             style="fill:none;stroke:#000102;stroke-width:3;stroke-linecap:round;stroke-linejoin:round;stroke-miterlimit:4;stroke-dasharray:none;stroke-opacity:1;paint-order:stroke fill markers"
             id="rect1668-4"
             width="21.805134"
             height="4.8109999"
             x="77.392883"
             y="145.87943"
             rx="3"
             ry="3" />
          <rect
             style="fill:none;stroke:#000102;stroke-width:3;stroke-linecap:round;stroke-linejoin:round;stroke-miterlimit:4;stroke-dasharray:none;stroke-opacity:1;paint-order:stroke fill markers"
             id="rect1668-4-4"
             width="21.805134"
             height="11.611"
             x="77.392883"
             y="110.86836"
             rx="2.0000012"
             ry="2.0000012" />
          <path
             style="fill:none;stroke:#000102;stroke-width:3;stroke-linecap:round;stroke-linejoin:miter;stroke-miterlimit:4;stroke-dasharray:none;stroke-opacity:1"
             d="m 77.431267,143.34573 v 4.132"
             id="path1716"
             inkscape:path-effect="#path-effect1718"
             inkscape:original-d="m 77.431267,143.34573 c 2.64e-4,1.3776 2.64e-4,2.75494 0,4.132" />
          <path
             style="fill:none;stroke:#000102;stroke-width:3;stroke-linecap:round;stroke-linejoin:miter;stroke-miterlimit:4;stroke-dasharray:none;stroke-opacity:1"
             d="m 99.19801,143.46793 v 4.132"
             id="path1716-4"
             inkscape:path-effect="#path-effect1741"
             inkscape:original-d="m 99.19801,143.46793 c 2.64e-4,1.3776 2.64e-4,2.75494 0,4.132" />
        </g>
      </g>
      <path
         style="fill:none;stroke:#000000;stroke-width:5;stroke-linecap:round;stroke-linejoin:miter;stroke-miterlimit:4;stroke-dasharray:none;stroke-opacity:0.25098"
         d="m 95.512635,112.71105 c 0.259805,5.39593 0.389638,10.79811 0.389349,16.20029 -2.07e-4,3.87842 -0.06749,7.7572 -0.235793,11.63197 -0.05897,1.35773 -0.129827,2.72605 0.07678,4.06927 0.09835,0.6394 0.259201,1.26979 0.314763,1.91431 0.05556,0.64453 -0.002,1.31992 -0.314761,1.88623 -0.349295,0.63256 -1.015914,1.07908 -1.733813,1.16133 -0.717898,0.0823 -1.468239,-0.20189 -1.951564,-0.73905"
         id="path2089"
         inkscape:path-effect="#path-effect2091"
         inkscape:original-d="m 95.512635,112.71105 c 0.05145,7.42221 0.338428,8.77862 0.389349,16.20029 0.05092,7.42167 -0.235528,9.32888 -0.235793,11.63197 -2.64e-4,2.3031 0.07704,2.27803 0.07678,4.06927 -2.64e-4,1.79123 1.99651,2.77709 2e-6,3.80054 -1.996512,1.02345 -1.484123,0.37136 -3.685377,0.42228"
         sodipodi:nodetypes="cssssc" />
    </g>
    <g
       id="g2155"
       transform="translate(-19.978978,-7.817861)">
      <path
         style="fill:#d9dedc;fill-opacity:1;stroke:none;stroke-width:0.264583px;stroke-linecap:butt;stroke-linejoin:miter;stroke-opacity:1"
         d="m 34.284578,140.39575 c -0.607516,-0.0146 -1.215482,0.26365 -1.601576,0.73293 -0.249817,0.30364 -0.405976,0.67578 -0.499253,1.05775 -0.09328,0.38198 -0.126493,0.77581 -0.152235,1.16817 -0.05285,0.8055 -0.07554,1.61344 -0.162873,2.41593 -0.09809,0.9013 -0.277566,1.79421 -0.325142,2.69958 -0.04758,0.90537 0.04517,1.84236 0.460868,2.64806 0.240793,0.46671 0.590422,0.88224 1.031523,1.16724 0.584195,0.37746 1.297425,0.50931 1.99291,0.51696 0.695486,0.008 1.386299,-0.10024 2.078893,-0.16406 1.208455,-0.11135 2.425458,-0.0885 3.637478,-0.0271 1.745992,0.0884 3.492094,0.25672 5.239052,0.19002 1.843092,-0.0704 3.668118,-0.40173 5.510506,-0.48862 1.808602,-0.0853 3.618969,0.0656 5.42907,0.10858 2.238051,0.0532 4.490542,-0.0576 6.704901,0.27146 0.470372,0.0699 0.940655,0.15979 1.416193,0.15882 0.475538,-9.6e-4 0.9652,-0.10025 1.352635,-0.37599 0.419417,-0.2985 0.681629,-0.77844 0.814358,-1.27583 0.152317,-0.5708 0.150496,-1.17126 0.110665,-1.76069 -0.03983,-0.58942 -0.116636,-1.17746 -0.110665,-1.7682 0.0068,-0.67314 0.120943,-1.3399 0.193252,-2.00918 0.07231,-0.66929 0.101889,-1.35431 -0.05752,-2.00834 -0.166403,-0.68271 -0.529649,-1.2976 -0.841507,-1.92731 -0.368079,-0.74323 -0.670208,-1.523 -0.841505,-2.3345 -0.337675,-1.59969 -0.157604,-3.25644 -0.02715,-4.88617 0.23629,-2.95191 0.304709,-5.91518 0.298598,-8.87653 -0.0066,-3.21242 -0.100834,-6.42418 -0.10858,-9.6366 -0.01214,-5.03232 0.187886,-10.06236 0.325745,-15.09281 0.109081,-3.980361 0.179258,-7.962135 0.162872,-11.943957 -0.01996,-4.851504 -0.168247,-9.709676 0.162872,-14.549909 0.197984,-2.89409 0.56653,-5.809968 0.164899,-8.682884 -0.09101,-0.650985 -0.223579,-1.303468 -0.49906,-1.900272 -0.358474,-0.776599 -0.941024,-1.42318 -1.497184,-2.073023 -1.316248,-1.537965 -2.532512,-3.165563 -3.9541,-4.606719 -1.259311,-1.276645 -2.699531,-2.433499 -3.551013,-4.011684 -0.470689,-0.872401 -0.744194,-1.877284 -0.614227,-2.860005 0.04231,-0.319901 0.12638,-0.633428 0.162638,-0.954072 0.03626,-0.320643 0.02128,-0.658188 -0.124248,-0.946197 -0.09447,-0.186962 -0.240459,-0.344978 -0.408169,-0.470487 -0.167709,-0.125508 -0.356972,-0.219761 -0.551565,-0.2973 -0.639419,-0.254788 -1.336651,-0.332114 -2.024935,-0.3383 -0.688285,-0.0062 -1.375345,0.0562 -2.063528,0.06957 -1.855828,0.03606 -3.697774,-0.283959 -5.547257,-0.441475 -0.461389,-0.0393 -0.929999,-0.06813 -1.384248,0.02178 -0.454248,0.0899 -0.898884,0.312052 -1.168642,0.688423 -0.205913,0.287293 -0.296476,0.644254 -0.317005,0.997122 -0.02053,0.352868 0.0246,0.705852 0.06748,1.056706 0.0945,0.773312 0.177212,1.56865 -0.01918,2.322555 -0.145369,0.558038 -0.439056,1.068825 -0.793025,1.524065 -0.353969,0.45524 -0.768477,0.85934 -1.184026,1.259161 -1.511222,1.454024 -3.056089,2.873445 -4.645107,4.24202 -1.185156,1.020741 -2.434594,2.064684 -3.071146,3.493428 -0.322776,0.724473 -0.470512,1.514927 -0.556646,2.30336 -0.228807,2.094412 -0.0402,4.208553 0,6.315043 0.02539,1.330657 -0.0086,2.661631 -0.01918,3.992488 -0.01049,1.318032 0.0019,2.636139 0.01918,3.9541 0.03206,2.451047 0.08075,4.902026 0.172752,7.351556 0.06561,1.746679 0.153244,3.49266 0.191947,5.240142 0.03641,1.644136 0.02949,3.289211 -0.01918,4.933029 -0.05588,1.887363 -0.166803,3.774944 -0.115171,5.662424 0.04839,1.76916 0.239426,3.53109 0.345506,5.29773 0.157677,2.62594 0.127512,5.25912 0.191945,7.889 0.05974,2.43845 0.200835,4.87448 0.249531,7.31317 0.06273,3.14166 -0.02786,6.28753 0.153559,9.42458 0.108398,1.87439 0.313904,3.74706 0.268724,5.62403 -0.0074,0.30716 -0.02149,0.61486 0,0.92135 0.01394,0.19879 0.04281,0.3963 0.05758,0.59503 0.01282,0.17246 0.01499,0.34597 0,0.51826 -0.01661,0.19091 -0.05433,0.37997 -0.112255,0.56264 z"
         id="path2073"
         inkscape:path-effect="#path-effect2075"
         inkscape:original-d="m 34.284578,140.39575 c -0.03768,0.18729 -1.067453,0.48888 -1.601576,0.73293 -0.534125,0.24404 -0.434062,1.48421 -0.651488,2.22592 -0.217427,0.7417 -0.108318,1.61088 -0.162873,2.41593 -0.05455,0.80505 0.09075,3.56535 0.135726,5.34764 0.04498,1.78228 0.687949,0.77843 1.031523,1.16724 0.343578,0.38882 2.7148,0.23553 4.071803,0.3529 1.357003,0.11736 2.42525,-0.0178 3.637478,-0.0271 1.212229,-0.009 3.492966,0.12694 5.239052,0.19002 1.746086,0.0631 3.673935,-0.32548 5.510506,-0.48862 1.836571,-0.16314 3.619646,0.0727 5.42907,0.10858 1.809427,0.0359 4.470199,0.18124 6.704901,0.27146 2.234703,0.0902 1.846149,-0.14451 2.768828,-0.21717 0.922676,-0.0726 0.543171,-0.85029 0.814358,-1.27583 0.27119,-0.42554 2.65e-4,-2.35233 0,-3.52889 -2.64e-4,-1.17657 0.09075,-2.67808 0.135729,-4.01752 0.04498,-1.33943 -0.560739,-1.28461 -0.841507,-1.92731 -0.280766,-0.64271 -0.56074,-1.55607 -0.841505,-2.3345 -0.280768,-0.77844 -0.01783,-3.25718 -0.02715,-4.88617 -0.0093,-1.62899 0.199332,-5.91742 0.298598,-8.87653 0.09927,-2.95911 -0.07212,-6.42413 -0.10858,-9.6366 -0.03646,-3.21246 0.217427,-10.06161 0.325745,-15.09281 0.108315,-5.031205 0.108844,-7.962375 0.162872,-11.943957 0.05402,-3.981583 0.108844,-9.699673 0.162872,-14.549909 0.05402,-4.850233 0.110199,-5.788324 0.164899,-8.682884 0.0547,-2.89456 -0.332441,-1.266581 -0.49906,-1.900272 -0.166618,-0.633687 -0.997857,-1.381749 -1.497184,-2.073023 -0.499324,-0.691272 -2.6358,-3.070881 -3.9541,-4.606719 -1.318297,-1.535837 -2.367076,-2.674191 -3.551013,-4.011684 -1.183933,-1.337492 -0.40922,-1.906405 -0.614227,-2.860005 -0.20501,-0.953598 0.02585,-1.266582 0.03839,-1.900269 0.01254,-0.633691 -0.639559,-0.511593 -0.959734,-0.767787 -0.320175,-0.256193 -2.725377,-0.178887 -4.088463,-0.268727 -1.363086,-0.08984 -3.697906,-0.294052 -5.547257,-0.441475 -1.84935,-0.147426 -1.701662,0.473731 -2.55289,0.710202 -0.851228,0.236469 -0.166087,1.369483 -0.249529,2.053828 -0.08344,0.684345 -0.01254,1.548633 -0.01918,2.322555 -0.0067,0.77392 -1.317768,1.855748 -1.977051,2.783226 -0.659281,0.927476 -3.096475,2.828277 -4.645107,4.24202 -1.548633,1.41374 -2.047166,2.329217 -3.071146,3.493428 -1.02398,1.164212 -0.370832,1.535838 -0.556646,2.30336 -0.185812,0.767522 2.64e-4,4.210293 0,6.315043 -2.65e-4,2.10475 -0.01254,2.661922 -0.01918,3.992488 -0.0067,1.330566 0.01307,2.636332 0.01918,3.9541 0.0061,1.317771 0.115432,4.901303 0.172752,7.351556 0.05732,2.450254 0.12823,3.493694 0.191947,5.240142 0.06372,1.746451 -0.01254,3.288951 -0.01918,4.933029 -0.0067,1.644079 -0.07652,3.775214 -0.115171,5.662424 -0.03865,1.88721 0.230603,3.53208 0.345506,5.29773 0.114903,1.76564 0.128228,5.2596 0.191945,7.889 0.06372,2.62941 0.166619,4.87571 0.249531,7.31317 0.08291,2.43746 0.102637,6.28332 0.153559,9.42458 0.05092,3.14126 0.179414,3.74962 0.268724,5.62403 0.08931,1.87442 2.65e-4,0.6145 0,0.92135 -2.65e-4,0.30685 0.03865,0.39695 0.05758,0.59503 0.01894,0.19808 2.64e-4,0.34577 0,0.51826 -2.65e-4,0.17248 -0.07457,0.37536 -0.112255,0.56264 z" />
      <rect
         style="fill:#ff1a32;fill-opacity:1;stroke:none;stroke-width:3;stroke-linecap:round;stroke-linejoin:round;stroke-miterlimit:4;stroke-dasharray:none;stroke-opacity:1;paint-order:stroke fill markers"
         id="rect1858"
         width="15.234364"
         height="26.459681"
         x="41.961315"
         y="20.439404" />
      <path
         style="fill:#ff1a32;fill-opacity:1;stroke:none;stroke-width:0.264583px;stroke-linecap:butt;stroke-linejoin:miter;stroke-opacity:1"
         d="m 39.425835,80.156925 c 0.602898,-1.206762 0.699021,-2.657003 0.260667,-3.93278 -0.184509,-0.536992 -0.458935,-1.043907 -0.58929,-1.596548 -0.06518,-0.276321 -0.09325,-0.564066 -0.05272,-0.845061 0.04053,-0.280995 0.152579,-0.555432 0.342954,-0.766046 0.15197,-0.168126 0.349487,-0.29138 0.560568,-0.37388 0.211081,-0.0825 0.435864,-0.125575 0.661348,-0.148345 0.450967,-0.04554 0.907952,-0.01143 1.357351,-0.07047 0.923298,-0.121307 1.744949,-0.622455 2.605953,-0.977233 1.989864,-0.819927 4.20079,-0.858972 6.35201,-0.922941 1.374044,-0.04086 2.759267,-0.09593 4.114451,0.134598 1.355184,0.230525 2.69791,0.773173 3.64912,1.765576 0.529627,0.552563 0.929916,1.250136 1.031523,2.008757 0.09141,0.68248 -0.05955,1.377051 0,2.063046 0.02737,0.315253 0.09903,0.626042 0.113729,0.942139 0.0073,0.158048 2.64e-4,0.317533 -0.03346,0.472116 -0.03373,0.154582 -0.09475,0.304431 -0.188846,0.431629 -0.123951,0.167557 -0.302372,0.29095 -0.497168,0.365071 -0.194795,0.07412 -0.405561,0.100667 -0.613925,0.09579 -0.416727,-0.0098 -0.819271,-0.141566 -1.223407,-0.243697 -1.326959,-0.335343 -2.709583,-0.355831 -4.071803,-0.488614 -1.573622,-0.153389 -3.160735,-0.458481 -4.723291,-0.217165 -1.354101,0.209123 -2.608518,0.817119 -3.90893,1.248688 -0.833711,0.276685 -1.689818,0.481629 -2.551663,0.651486 -0.859178,0.169331 -1.725166,0.304106 -2.595168,0.403889"
         id="path2065"
         inkscape:path-effect="#path-effect2067"
         inkscape:original-d="m 39.425835,80.156925 c 0.08715,-1.310661 0.174042,-2.62159 0.260667,-3.93278 0.08663,-1.311193 -0.199107,-2.138172 -0.299056,-3.207655 -0.09995,-1.069483 1.719776,-0.394867 2.579267,-0.592696 0.859488,-0.197829 1.737566,-0.651224 2.605953,-0.977233 0.868386,-0.326006 4.234939,-0.615029 6.35201,-0.922941 2.117074,-0.307911 5.175981,1.267048 7.763571,1.900174 2.587593,0.633127 0.687948,1.339435 1.031523,2.008757 0.343577,0.669321 2.65e-4,1.375629 0,2.063046 -2.64e-4,0.687419 -0.07212,1.230855 -0.10858,1.845884 -0.03646,0.615029 -1.55607,0.145039 -2.3345,0.217162 -0.778431,0.07212 -2.714271,-0.32548 -4.071803,-0.488614 -1.357532,-0.163137 -3.148597,-0.144513 -4.723291,-0.217165 -1.574694,-0.07265 -2.605688,0.832723 -3.90893,1.248688 -1.303243,0.415962 -1.700845,0.434589 -2.551663,0.651486 -0.850818,0.2169 -1.729849,0.269526 -2.595168,0.403889" />
      <rect
         style="fill:#ff1a32;fill-opacity:1;stroke:none;stroke-width:3;stroke-linecap:round;stroke-linejoin:round;stroke-miterlimit:4;stroke-dasharray:none;stroke-opacity:1;paint-order:stroke fill markers"
         id="rect2069"
         width="18.810768"
         height="14.127274"
         x="40.232006"
         y="89.984573" />
      <rect
         style="fill:#fdbe40;fill-opacity:1;stroke:none;stroke-width:3;stroke-linecap:round;stroke-linejoin:round;stroke-miterlimit:4;stroke-dasharray:none;stroke-opacity:1;paint-order:stroke fill markers"
         id="rect2071"
         width="17.373022"
         height="9.1208344"
         x="41.043766"
         y="128.56038" />
      <g
         id="g1759"
         style="stroke:#000000;stroke-opacity:1">
        <rect
           style="fill:none;stroke:#000000;stroke-width:3;stroke-linecap:round;stroke-linejoin:round;stroke-miterlimit:4;stroke-dasharray:none;stroke-opacity:1;paint-order:stroke fill markers"
           id="rect1446"
           width="15.234363"
           height="26.459681"
           x="41.961315"
           y="20.439404"
           rx="2.0000012"
           ry="2.0000012" />
        <rect
           style="fill:none;stroke:#000000;stroke-width:3;stroke-linecap:round;stroke-linejoin:round;stroke-miterlimit:4;stroke-dasharray:none;stroke-opacity:1;paint-order:stroke fill markers"
           id="rect1446-6"
           width="15.234363"
           height="7.6599998"
           x="41.961315"
           y="20.439404"
           rx="2.0000012"
           ry="2.0000012" />
        <path
           style="fill:none;stroke:#000000;stroke-width:3;stroke-linecap:round;stroke-linejoin:round;stroke-miterlimit:4;stroke-dasharray:none;stroke-opacity:1;paint-order:stroke fill markers"
           id="rect1468"
           width="35.907738"
           height="11.717254"
           x="31.56101"
           y="141.18556"
           rx="2.0000012"
           ry="2.0000012"
           sodipodi:type="rect"
           clip-path="url(#clipPath1572)"
           inkscape:path-effect="#path-effect1576"
           d="m 33.561012,141.18556 h 31.907735 c 1.108001,0 2.000001,0.892 2.000001,2 v 7.71725 c 0,1.10801 -0.892,2.00001 -2.000001,2.00001 H 33.561012 c -1.108001,0 -2.000002,-0.892 -2.000002,-2.00001 v -7.71725 c 0,-1.108 0.892001,-2 2.000002,-2 z" />
        <path
           style="fill:none;stroke:#000000;stroke-width:3;stroke-linecap:round;stroke-linejoin:miter;stroke-miterlimit:4;stroke-dasharray:none;stroke-opacity:1"
           d="M 34.131965,141.2114 32.6737,63.810599"
           id="path1470"
           inkscape:path-effect="#path-effect1472"
           inkscape:original-d="M 34.131965,141.2114 C 33.731325,115.50924 33.074869,89.513282 32.6737,63.810599"
           sodipodi:nodetypes="cc" />
        <path
           style="fill:none;stroke:#000000;stroke-width:3;stroke-linecap:round;stroke-linejoin:miter;stroke-miterlimit:4;stroke-dasharray:none;stroke-opacity:1"
           d="M 32.6737,63.810599 42.900298,52.53869"
           id="path1498"
           inkscape:path-effect="#path-effect1500"
           inkscape:original-d="M 32.6737,63.810599 C 36.082829,60.053561 39.491695,56.296258 42.900298,52.53869" />
        <path
           style="fill:none;stroke:#000000;stroke-width:3;stroke-linecap:round;stroke-linejoin:miter;stroke-miterlimit:4;stroke-dasharray:none;stroke-opacity:1"
           d="M 66.676713,63.811 56.450115,52.539091"
           id="path1498-6"
           inkscape:path-effect="#path-effect1523"
           inkscape:original-d="M 66.676713,63.811 C 63.267584,60.053962 59.858718,56.296659 56.450115,52.539091" />
        <path
           style="fill:none;stroke:#000000;stroke-width:3;stroke-linecap:round;stroke-linejoin:miter;stroke-miterlimit:4;stroke-dasharray:none;stroke-opacity:1"
           d="m 42.900298,52.53869 0.142969,-5.644804"
           id="path1526"
           inkscape:path-effect="#path-effect1528"
           inkscape:original-d="m 42.900298,52.53869 c -0.156824,-2.322814 0.300319,-3.321461 0.142969,-5.644804"
           sodipodi:nodetypes="cc" />
        <path
           style="fill:none;stroke:#000000;stroke-width:3;stroke-linecap:round;stroke-linejoin:miter;stroke-miterlimit:4;stroke-dasharray:none;stroke-opacity:1"
           d="M 56.450115,52.539091 56.307146,46.894287"
           id="path1526-7"
           inkscape:path-effect="#path-effect1551"
           inkscape:original-d="M 56.450115,52.539091 C 56.606939,50.216277 56.149796,49.21763 56.307146,46.894287"
           sodipodi:nodetypes="cc" />
        <path
           style="fill:none;stroke:#000000;stroke-width:3;stroke-linecap:round;stroke-linejoin:miter;stroke-miterlimit:4;stroke-dasharray:none;stroke-opacity:1"
           d="M 65.199253,141.32697 66.676713,63.811"
           id="path1470-9"
           inkscape:path-effect="#path-effect1601"
           inkscape:original-d="m 65.199253,141.32697 c 0.40064,-25.70216 1.076291,-51.813287 1.47746,-77.51597"
           sodipodi:nodetypes="cc" />
        <rect
           style="fill:none;stroke:#000000;stroke-width:3;stroke-linecap:round;stroke-linejoin:round;stroke-miterlimit:4;stroke-dasharray:none;stroke-opacity:1;paint-order:stroke fill markers"
           id="rect1608"
           width="18.810768"
           height="14.12727"
           x="40.23201"
           y="89.984573"
           rx="2.0000012"
           ry="2.0000012" />
        <path
           style="fill:none;stroke:#000000;stroke-width:3;stroke-linecap:round;stroke-linejoin:miter;stroke-miterlimit:4;stroke-dasharray:none;stroke-opacity:1"
           d="m 39.387446,73.016491 c 3.222129,-1.712795 6.869602,-2.618007 10.518674,-2.610472 3.451238,0.0071 6.898153,0.829082 9.981224,2.380136"
           id="path1610"
           inkscape:path-effect="#path-effect1612"
           inkscape:original-d="m 39.387446,73.016491 c 3.506488,-0.869892 7.012715,-1.740051 10.518674,-2.610472 3.505959,-0.870424 6.654414,1.587021 9.981224,2.380136" />
        <path
           style="fill:none;stroke:#000000;stroke-width:3;stroke-linecap:round;stroke-linejoin:miter;stroke-miterlimit:4;stroke-dasharray:none;stroke-opacity:1"
           d="m 39.425835,80.156929 c 3.222129,-1.712795 6.869602,-2.618007 10.518674,-2.610472 3.451238,0.0071 6.898153,0.829082 9.981224,2.380136"
           id="path1610-6"
           inkscape:path-effect="#path-effect1635"
           inkscape:original-d="m 39.425835,80.156929 c 3.506488,-0.869892 7.012715,-1.740051 10.518674,-2.610472 3.505959,-0.870424 6.654414,1.587021 9.981224,2.380136" />
        <path
           style="fill:none;stroke:#000000;stroke-width:3;stroke-linecap:round;stroke-linejoin:miter;stroke-miterlimit:4;stroke-dasharray:none;stroke-opacity:1"
           d="m 39.387446,73.01649 0.03839,7.140437"
           id="path1638"
           inkscape:original-d="m 39.387446,73.01649 c 0.01307,2.380411 0.02585,4.760555 0.03839,7.140437"
           inkscape:path-effect="#path-effect1640" />
        <path
           style="fill:none;stroke:#000000;stroke-width:3;stroke-linecap:round;stroke-linejoin:miter;stroke-miterlimit:4;stroke-dasharray:none;stroke-opacity:1"
           d="m 59.887343,72.786156 0.03839,7.140437"
           id="path1638-7"
           inkscape:original-d="m 59.887343,72.786156 c 0.01307,2.380411 0.02585,4.760555 0.03839,7.140437"
           inkscape:path-effect="#path-effect1663" />
        <rect
           style="fill:none;stroke:#000000;stroke-width:3;stroke-linecap:round;stroke-linejoin:round;stroke-miterlimit:4;stroke-dasharray:none;stroke-opacity:1;paint-order:stroke fill markers"
           id="rect1666"
           width="17.373024"
           height="9.1208382"
           x="41.04377"
           y="128.56038"
           rx="2.0000012"
           ry="2.0000012" />
      </g>
      <path
         style="fill:none;stroke:#000000;stroke-width:5;stroke-linecap:round;stroke-linejoin:miter;stroke-miterlimit:4;stroke-dasharray:none;stroke-opacity:0.25098"
         d="m 55.280624,92.671826 c 1.073544,1.084057 1.709344,2.589875 1.737593,4.115286 0.02825,1.52541 -0.551363,3.053737 -1.584034,4.176798 -0.757467,0.82377 -1.749746,1.42919 -2.828774,1.72592 -1.079027,0.29674 -2.241345,0.28383 -3.31352,-0.0368"
         id="path2110"
         inkscape:path-effect="#path-effect2112"
         inkscape:original-d="m 55.280624,92.671826 c 0.05145,2.764295 0.102637,5.528326 0.153559,8.292084 0.05092,2.76377 -4.094599,1.12636 -6.142294,1.68914" />
      <path
         style="fill:none;stroke:#000000;stroke-width:5;stroke-linecap:round;stroke-linejoin:miter;stroke-miterlimit:4;stroke-dasharray:none;stroke-opacity:0.25098"
         d="m 56.018219,77.488731 c 0.613002,-0.06668 1.197342,-0.369258 1.605571,-0.831391 0.30892,-0.349711 0.517104,-0.787407 0.593467,-1.247731 0.07636,-0.460323 0.02066,-0.941796 -0.158798,-1.372522 -0.179455,-0.430726 -0.482083,-0.809323 -0.862694,-1.079256 -0.380611,-0.269933 -0.837984,-0.430337 -1.303821,-0.457258"
         id="path2114"
         inkscape:path-effect="#path-effect2116"
         inkscape:original-d="m 56.018219,77.488731 c 1.303242,-0.07212 0.302861,-0.758739 1.605571,-0.831391 1.302714,-0.07265 -1.333449,-2.52778 -1.731846,-4.156767"
         sodipodi:nodetypes="csc" />
      <path
         style="fill:none;stroke:#000000;stroke-width:5;stroke-linecap:round;stroke-linejoin:miter;stroke-miterlimit:4;stroke-dasharray:none;stroke-opacity:0.25098"
         d="m 54.833608,136.16107 -0.271453,-6.02626"
         id="path2118"
         inkscape:path-effect="#path-effect2120"
         inkscape:original-d="m 54.833608,136.16107 c 0.217427,-2.46091 -0.488353,-3.56482 -0.271453,-6.02626"
         sodipodi:nodetypes="cc" />
      <path
         style="fill:none;stroke:#000000;stroke-width:6;stroke-linecap:round;stroke-linejoin:miter;stroke-miterlimit:4;stroke-dasharray:none;stroke-opacity:0.25098"
         d="m 53.501542,22.001408 c 0.05814,8.354782 0.01134,16.710295 -0.140383,25.063902 -0.02649,1.458764 -0.05618,2.91846 0,4.376383 0.02519,0.653741 0.06798,1.3094 0.200035,1.950159 0.132056,0.64076 0.356318,1.269046 0.72131,1.811994 0.486092,0.723091 1.194493,1.260458 1.842686,1.842688 0.902464,0.810626 1.703681,1.725811 2.533697,2.610474 0.956342,1.019306 1.95798,2.006058 2.764031,3.147923 1.000008,1.416628 1.679607,3.055404 1.996244,4.760277 0.370195,1.993247 0.247789,4.04037 0.153556,6.065512 -0.248686,5.344435 -0.29155,10.696871 -0.230335,16.046738 0.03338,2.917565 0.09771,5.835085 0.07678,8.752766 -0.0213,2.969786 -0.130918,5.938126 -0.230336,8.906326 -0.183385,5.4751 -0.332119,10.95251 -0.307115,16.43063 0.02104,4.61034 0.164583,9.23396 -0.307115,13.82015 -0.10913,1.06104 -0.250369,2.14096 -0.03839,3.18632 0.239454,1.18085 0.942386,2.26129 1.924923,2.9587 l -0.189688,6.89785 c -2.67814,0.10698 -5.355314,0.23813 -8.031088,0.39341 -1.612892,0.0936 -3.225275,0.19597 -4.837054,0.30711"
         id="path2126"
         inkscape:path-effect="#path-effect2128"
         inkscape:original-d="m 53.501542,22.001408 c 0.02585,8.75303 -0.165713,16.311401 -0.140383,25.063902 0.02532,8.752502 2.65e-4,2.917852 0,4.376383 -2.65e-4,1.458529 0.614495,2.508367 0.921345,3.762153 0.306848,1.253786 1.228723,1.228722 1.842686,1.842688 0.613965,0.613963 1.689396,1.74058 2.533697,2.610474 0.844299,0.869892 1.84295,2.098882 2.764031,3.147923 0.921078,1.049044 1.331095,3.173783 1.996244,4.760277 0.665149,1.586495 0.102637,4.04394 0.153556,6.065512 0.05092,2.021573 -0.153291,10.698091 -0.230335,16.046738 -0.07704,5.348648 0.05145,5.835441 0.07678,8.752766 0.02532,2.917326 -0.153292,5.937816 -0.230336,8.906326 -0.07704,2.9685 -0.204478,10.95401 -0.307115,16.43063 -0.102634,5.47661 -0.204478,9.2137 -0.307115,13.82015 -0.102634,4.60646 -0.02532,2.12448 -0.03839,3.18632 -0.01307,1.06184 1.464514,2.06321 1.924923,2.9587 2.916146,1.21473 0.03879,3.89682 -0.189688,6.89785 4.066033,10.65675 1.844756,0.012 -8.031088,0.39341 -1.44626,0.0893 -3.224437,0.205 -4.837054,0.30711"
         sodipodi:nodetypes="csssssssssssssscccc" />
    </g>
  </g>
</svg>
